<svg width="117" height="133" viewBox="0 0 117 133" fill="none" xmlns="http://www.w3.org/2000/svg">
<path d="M9.38554 100.847C11.2857 100.847 12.8979 101.5 14.2223 102.805C15.5466 104.11 16.2088 105.684 16.2088 107.526C16.2088 109.388 15.5466 110.971 14.2223 112.277C12.8979 113.582 11.2857 114.234 9.38554 114.234H5.84437V121H1.87135V100.847H5.84437H9.38554ZM9.38554 110.52C10.1917 110.52 10.8634 110.233 11.4008 109.657C11.9574 109.081 12.2358 108.371 12.2358 107.526C12.2358 106.682 11.9574 105.981 11.4008 105.425C10.8634 104.849 10.1917 104.561 9.38554 104.561H5.84437V110.52H9.38554ZM29.449 100.847H33.422V121H29.449V112.536H22.7697V121H18.7967V100.847H22.7697V108.735H29.449V100.847ZM54.1133 118.38C52.0788 120.395 49.6029 121.403 46.6855 121.403C43.7681 121.403 41.2921 120.395 39.2576 118.38C37.2423 116.346 36.2347 113.86 36.2347 110.923C36.2347 107.987 37.2423 105.511 39.2576 103.496C41.2921 101.461 43.7681 100.444 46.6855 100.444C49.6029 100.444 52.0788 101.461 54.1133 103.496C56.1478 105.511 57.165 107.987 57.165 110.923C57.165 113.86 56.1478 116.346 54.1133 118.38ZM42.0503 115.674C43.2978 116.902 44.8429 117.516 46.6855 117.516C48.528 117.516 50.0731 116.902 51.3207 115.674C52.5682 114.426 53.192 112.843 53.192 110.923C53.192 109.004 52.5682 107.421 51.3207 106.173C50.0731 104.926 48.528 104.302 46.6855 104.302C44.8429 104.302 43.2978 104.926 42.0503 106.173C40.8027 107.421 40.1789 109.004 40.1789 110.923C40.1789 112.843 40.8027 114.426 42.0503 115.674ZM63.9304 117.2H71.9053V121H61.253H59.9574V100.847H63.9304H71.7613V104.647H63.9304V108.966H71.0416V112.68H63.9304V117.2ZM85.6005 100.847H89.5448V121H86.5218L78.6909 108.534V121H74.7179V100.847H77.7409L85.6005 113.284V100.847ZM93.274 100.847H97.247V121H93.274V100.847ZM116.035 121H111.543L107.743 114.493L103.943 121H99.4805L105.498 110.636L99.7972 100.847H104.288L107.743 106.807L111.227 100.847H115.689L109.989 110.636L116.035 121Z" fill="url(#paint0_linear_25_30)"/>
<path d="M5.17576 131.045C4.78129 131.045 4.41677 130.98 4.08222 130.85C3.74767 130.715 3.45805 130.528 3.21338 130.288C2.96871 130.049 2.77646 129.767 2.63665 129.442C2.50183 129.118 2.43442 128.763 2.43442 128.378C2.43442 127.994 2.50183 127.639 2.63665 127.315C2.77646 126.99 2.96871 126.708 3.21338 126.469C3.46305 126.229 3.75516 126.044 4.08971 125.914C4.42426 125.779 4.78878 125.712 5.18325 125.712C5.56274 125.712 5.91977 125.777 6.25432 125.907C6.58887 126.032 6.871 126.221 7.10069 126.476L6.74866 126.828C6.53395 126.608 6.29676 126.451 6.03711 126.356C5.77746 126.256 5.49783 126.206 5.19823 126.206C4.88365 126.206 4.59154 126.261 4.3219 126.371C4.05226 126.476 3.81757 126.628 3.61784 126.828C3.41811 127.023 3.26082 127.253 3.14597 127.517C3.03612 127.777 2.98119 128.064 2.98119 128.378C2.98119 128.693 3.03612 128.983 3.14597 129.247C3.26082 129.507 3.41811 129.737 3.61784 129.936C3.81757 130.131 4.05226 130.283 4.3219 130.393C4.59154 130.498 4.88365 130.551 5.19823 130.551C5.49783 130.551 5.77746 130.501 6.03711 130.401C6.29676 130.301 6.53395 130.141 6.74866 129.921L7.10069 130.273C6.871 130.528 6.58887 130.72 6.25432 130.85C5.91977 130.98 5.56025 131.045 5.17576 131.045ZM10.435 131.045C10.0406 131.045 9.67354 130.98 9.334 130.85C8.99944 130.715 8.70733 130.528 8.45767 130.288C8.21299 130.044 8.02075 129.762 7.88094 129.442C7.74612 129.118 7.67871 128.763 7.67871 128.378C7.67871 127.994 7.74612 127.642 7.88094 127.322C8.02075 126.998 8.21299 126.716 8.45767 126.476C8.70733 126.231 8.99944 126.044 9.334 125.914C9.66855 125.779 10.0356 125.712 10.435 125.712C10.8295 125.712 11.194 125.779 11.5286 125.914C11.8631 126.044 12.1527 126.229 12.3974 126.469C12.6471 126.708 12.8393 126.99 12.9741 127.315C13.114 127.639 13.1839 127.994 13.1839 128.378C13.1839 128.763 13.114 129.118 12.9741 129.442C12.8393 129.767 12.6471 130.049 12.3974 130.288C12.1527 130.528 11.8631 130.715 11.5286 130.85C11.194 130.98 10.8295 131.045 10.435 131.045ZM10.435 130.551C10.7496 130.551 11.0392 130.498 11.3039 130.393C11.5735 130.283 11.8057 130.131 12.0004 129.936C12.2002 129.737 12.355 129.507 12.4648 129.247C12.5747 128.983 12.6296 128.693 12.6296 128.378C12.6296 128.064 12.5747 127.777 12.4648 127.517C12.355 127.253 12.2002 127.023 12.0004 126.828C11.8057 126.628 11.5735 126.476 11.3039 126.371C11.0392 126.261 10.7496 126.206 10.435 126.206C10.1204 126.206 9.82834 126.261 9.5587 126.371C9.28906 126.476 9.05437 126.628 8.85464 126.828C8.6599 127.023 8.5051 127.253 8.39026 127.517C8.2804 127.777 8.22548 128.064 8.22548 128.378C8.22548 128.688 8.2804 128.975 8.39026 129.24C8.5051 129.504 8.6599 129.737 8.85464 129.936C9.05437 130.131 9.28906 130.283 9.5587 130.393C9.82834 130.498 10.1204 130.551 10.435 130.551ZM13.7321 125.757H14.3687L15.8592 127.832L17.3423 125.757H17.9939L16.2038 128.274L18.1362 131H17.4846L15.8592 128.746L14.2339 131H13.5973L15.5222 128.296L13.7321 125.757ZM19.0049 131V125.757H20.9673C21.4117 125.757 21.7937 125.829 22.1132 125.974C22.4328 126.114 22.6775 126.319 22.8472 126.588C23.022 126.853 23.1094 127.175 23.1094 127.555C23.1094 127.924 23.022 128.244 22.8472 128.513C22.6775 128.778 22.4328 128.983 22.1132 129.128C21.7937 129.272 21.4117 129.345 20.9673 129.345H19.312L19.5591 129.083V131H19.0049ZM19.5591 129.128L19.312 128.858H20.9523C21.4766 128.858 21.8735 128.746 22.1432 128.521C22.4178 128.291 22.5551 127.969 22.5551 127.555C22.5551 127.135 22.4178 126.811 22.1432 126.581C21.8735 126.351 21.4766 126.236 20.9523 126.236H19.312L19.5591 125.974V129.128ZM23.2072 131L25.604 125.757H26.1508L28.5476 131H27.9634L25.7613 126.079H25.986L23.784 131H23.2072ZM24.151 129.599L24.3158 129.15H27.3642L27.529 129.599H24.151ZM33.3872 125.757H33.934V131H33.3872V125.757ZM30.1066 131H29.5523V125.757H30.1066V131ZM33.4396 128.581H30.0467V128.094H33.4396V128.581ZM35.7038 131V125.757H36.2505V130.101L39.6061 125.757H40.1079V131H39.5611V126.663L36.2056 131H35.7038ZM43.8374 131V125.757H46.017C46.5713 125.757 47.0057 125.872 47.3203 126.102C47.6399 126.326 47.7997 126.658 47.7997 127.098C47.7997 127.532 47.6474 127.862 47.3428 128.086C47.0382 128.306 46.6387 128.416 46.1444 128.416L46.2717 128.229C46.8559 128.229 47.3003 128.344 47.6049 128.573C47.9095 128.803 48.0618 129.14 48.0618 129.584C48.0618 130.034 47.902 130.383 47.5824 130.633C47.2679 130.878 46.7935 131 46.1593 131H43.8374ZM44.3842 130.558H46.1593C46.6037 130.558 46.9408 130.476 47.1705 130.311C47.4002 130.146 47.515 129.891 47.515 129.547C47.515 129.207 47.4002 128.958 47.1705 128.798C46.9408 128.638 46.6037 128.558 46.1593 128.558H44.3842V130.558ZM44.3842 128.131H45.9871C46.3915 128.131 46.7011 128.051 46.9158 127.892C47.1355 127.727 47.2454 127.485 47.2454 127.165C47.2454 126.846 47.1355 126.606 46.9158 126.446C46.7011 126.281 46.3915 126.199 45.9871 126.199H44.3842V128.131ZM51.7471 131.045C51.3526 131.045 50.9856 130.98 50.646 130.85C50.3115 130.715 50.0194 130.528 49.7697 130.288C49.525 130.044 49.3328 129.762 49.193 129.442C49.0581 129.118 48.9907 128.763 48.9907 128.378C48.9907 127.994 49.0581 127.642 49.193 127.322C49.3328 126.998 49.525 126.716 49.7697 126.476C50.0194 126.231 50.3115 126.044 50.646 125.914C50.9806 125.779 51.3476 125.712 51.7471 125.712C52.1415 125.712 52.506 125.779 52.8406 125.914C53.1752 126.044 53.4648 126.229 53.7094 126.469C53.9591 126.708 54.1513 126.99 54.2862 127.315C54.426 127.639 54.4959 127.994 54.4959 128.378C54.4959 128.763 54.426 129.118 54.2862 129.442C54.1513 129.767 53.9591 130.049 53.7094 130.288C53.4648 130.528 53.1752 130.715 52.8406 130.85C52.506 130.98 52.1415 131.045 51.7471 131.045ZM51.7471 130.551C52.0616 130.551 52.3513 130.498 52.6159 130.393C52.8855 130.283 53.1177 130.131 53.3125 129.936C53.5122 129.737 53.667 129.507 53.7768 129.247C53.8867 128.983 53.9416 128.693 53.9416 128.378C53.9416 128.064 53.8867 127.777 53.7768 127.517C53.667 127.253 53.5122 127.023 53.3125 126.828C53.1177 126.628 52.8855 126.476 52.6159 126.371C52.3513 126.261 52.0616 126.206 51.7471 126.206C51.4325 126.206 51.1404 126.261 50.8707 126.371C50.6011 126.476 50.3664 126.628 50.1667 126.828C49.9719 127.023 49.8171 127.253 49.7023 127.517C49.5924 127.777 49.5375 128.064 49.5375 128.378C49.5375 128.688 49.5924 128.975 49.7023 129.24C49.8171 129.504 49.9719 129.737 50.1667 129.936C50.3664 130.131 50.6011 130.283 50.8707 130.393C51.1404 130.498 51.4325 130.551 51.7471 130.551ZM58.1105 131.045C57.716 131.045 57.3515 130.98 57.0169 130.85C56.6824 130.715 56.3927 130.528 56.1481 130.288C55.9034 130.049 55.7112 129.767 55.5713 129.442C55.4365 129.118 55.3691 128.763 55.3691 128.378C55.3691 127.994 55.4365 127.639 55.5713 127.315C55.7112 126.99 55.9034 126.708 56.1481 126.469C56.3977 126.229 56.6899 126.044 57.0244 125.914C57.359 125.779 57.7235 125.712 58.1179 125.712C58.4974 125.712 58.8545 125.777 59.189 125.907C59.5236 126.032 59.8057 126.221 60.0354 126.476L59.6834 126.828C59.4686 126.608 59.2315 126.451 58.9718 126.356C58.7122 126.256 58.4325 126.206 58.1329 126.206C57.8183 126.206 57.5262 126.261 57.2566 126.371C56.987 126.476 56.7523 126.628 56.5525 126.828C56.3528 127.023 56.1955 127.253 56.0807 127.517C55.9708 127.777 55.9159 128.064 55.9159 128.378C55.9159 128.693 55.9708 128.983 56.0807 129.247C56.1955 129.507 56.3528 129.737 56.5525 129.936C56.7523 130.131 56.987 130.283 57.2566 130.393C57.5262 130.498 57.8183 130.551 58.1329 130.551C58.4325 130.551 58.7122 130.501 58.9718 130.401C59.2315 130.301 59.4686 130.141 59.6834 129.921L60.0354 130.273C59.8057 130.528 59.5236 130.72 59.189 130.85C58.8545 130.98 58.4949 131.045 58.1105 131.045ZM61.18 131V125.757H65.5916V131H65.0448V126.087L65.1872 126.236H61.5845L61.7268 126.087V131H61.18ZM69.6602 131.045C69.2657 131.045 68.8987 130.98 68.5591 130.85C68.2246 130.715 67.9325 130.528 67.6828 130.288C67.4381 130.044 67.2459 129.762 67.1061 129.442C66.9712 129.118 66.9038 128.763 66.9038 128.378C66.9038 127.994 66.9712 127.642 67.1061 127.322C67.2459 126.998 67.4381 126.716 67.6828 126.476C67.9325 126.231 68.2246 126.044 68.5591 125.914C68.8937 125.779 69.2607 125.712 69.6602 125.712C70.0546 125.712 70.4191 125.779 70.7537 125.914C71.0882 126.044 71.3779 126.229 71.6225 126.469C71.8722 126.708 72.0644 126.99 72.1993 127.315C72.3391 127.639 72.409 127.994 72.409 128.378C72.409 128.763 72.3391 129.118 72.1993 129.442C72.0644 129.767 71.8722 130.049 71.6225 130.288C71.3779 130.528 71.0882 130.715 70.7537 130.85C70.4191 130.98 70.0546 131.045 69.6602 131.045ZM69.6602 130.551C69.9747 130.551 70.2643 130.498 70.529 130.393C70.7986 130.283 71.0308 130.131 71.2256 129.936C71.4253 129.737 71.5801 129.507 71.6899 129.247C71.7998 128.983 71.8547 128.693 71.8547 128.378C71.8547 128.064 71.7998 127.777 71.6899 127.517C71.5801 127.253 71.4253 127.023 71.2256 126.828C71.0308 126.628 70.7986 126.476 70.529 126.371C70.2643 126.261 69.9747 126.206 69.6602 126.206C69.3456 126.206 69.0535 126.261 68.7838 126.371C68.5142 126.476 68.2795 126.628 68.0798 126.828C67.885 127.023 67.7302 127.253 67.6154 127.517C67.5055 127.777 67.4506 128.064 67.4506 128.378C67.4506 128.688 67.5055 128.975 67.6154 129.24C67.7302 129.504 67.885 129.737 68.0798 129.936C68.2795 130.131 68.5142 130.283 68.7838 130.393C69.0535 130.498 69.3456 130.551 69.6602 130.551ZM73.7316 131V125.757H74.1885L76.5853 129.847H76.3456L78.72 125.757H79.1768V131H78.6451V126.588H78.7724L76.5853 130.333H76.3232L74.1211 126.588H74.2634V131H73.7316ZM80.9437 131V125.757H81.4904V130.101L84.846 125.757H85.3478V131H84.801V126.663L81.4455 131H80.9437ZM90.9519 125.757H91.4987V131H90.9519V125.757ZM87.6713 131H87.1171V125.757H87.6713V131ZM91.0044 128.581H87.6114V128.094H91.0044V128.581ZM92.497 131L94.8938 125.757H95.4406L97.8374 131H97.2532L95.0511 126.079H95.2758L93.0738 131H92.497ZM93.4408 129.599L93.6056 129.15H96.654L96.8188 129.599H93.4408ZM102.677 125.757H103.224V131H102.677V125.757ZM99.3964 131H98.8421V125.757H99.3964V131ZM102.729 128.581H99.3365V128.094H102.729V128.581ZM104.994 131V125.757H105.54V130.101L108.896 125.757H109.398V131H108.851V126.663L105.495 131H104.994ZM114.335 131V129.262L114.485 129.412H112.77C112.35 129.412 111.991 129.34 111.691 129.195C111.397 129.05 111.169 128.845 111.01 128.581C110.855 128.311 110.777 127.989 110.777 127.615C110.777 127.215 110.862 126.878 111.032 126.603C111.202 126.324 111.442 126.114 111.751 125.974C112.066 125.829 112.43 125.757 112.845 125.757H114.882V131H114.335ZM110.777 131L112.066 129.157H112.635L111.369 131H110.777ZM114.335 129.105V126.079L114.485 126.236H112.867C112.378 126.236 111.998 126.354 111.729 126.588C111.464 126.818 111.332 127.155 111.332 127.6C111.332 128.029 111.457 128.361 111.706 128.596C111.956 128.825 112.325 128.94 112.815 128.94H114.485L114.335 129.105Z" fill="white"/>
<path fill-rule="evenodd" clip-rule="evenodd" d="M104 45.5C104 70.629 83.629 91 58.5 91C33.371 91 13 70.629 13 45.5C13 20.371 33.371 0 58.5 0C83.629 0 104 20.371 104 45.5ZM65.5017 78.7635C65.5305 78.9281 65.5584 79.0909 65.5862 79.2525C65.6555 79.6564 65.7236 80.0533 65.8017 80.4545C65.9924 81.4286 66.4361 82.3314 67.0857 83.0674C67.3107 83.3056 67.4834 83.5906 67.5922 83.9031C67.701 84.2157 67.7434 84.5486 67.7166 84.8794C67.6826 84.7211 67.6308 84.5674 67.5624 84.4213C67.3238 83.9738 67.042 83.552 66.7213 83.1624C65.7624 82.1455 65.0195 81.0335 64.8092 79.5989C64.6942 78.8124 64.184 78.3083 63.5055 77.9713C63.3525 77.8965 63.1995 77.8242 63.0464 77.752L63.0454 77.7515L62.9197 77.6922L62.8158 77.6428L62.7653 77.7293L63.6989 79.0256L63.5952 79.1236C63.4404 78.9884 63.2823 78.8563 63.1242 78.7241C62.7296 78.3942 62.3342 78.0636 61.9859 77.6832C61.6409 77.3063 61.3394 76.9078 61.0377 76.509L61.0375 76.5088L61.0373 76.5085L61.0371 76.5083C60.9124 76.3435 60.7877 76.1786 60.6598 76.0152L60.5449 76.0584C60.5811 76.1973 60.614 76.3374 60.6468 76.4774C60.7183 76.7817 60.7897 77.0858 60.8953 77.3778C61.1427 78.0496 61.554 78.6448 62.0897 79.1063C62.1557 79.1643 62.2219 79.2222 62.2881 79.2801C62.6853 79.6276 63.0825 79.975 63.455 80.3479C63.7187 80.6258 63.9163 80.9625 64.0325 81.3318C64.1488 81.701 64.1804 82.0929 64.1251 82.4768C64.0045 83.9518 64.1027 84.4933 64.6858 85.7724C64.3905 85.5724 64.1693 85.2761 64.0578 84.9312C63.899 84.5896 63.7768 84.2312 63.6933 83.8625C63.6404 83.4489 63.6141 83.0322 63.6148 82.6151C63.2002 83.0884 62.8674 83.6311 62.6308 84.2197C62.4118 84.7756 62.2337 85.3476 62.0981 85.9309C61.9704 85.2667 62.0428 84.5783 62.3055 83.9575C62.4903 83.5396 62.6449 83.1082 62.7681 82.6669C62.8969 82.2713 62.9055 81.8447 62.7928 81.4439C62.6802 81.0431 62.4515 80.687 62.1373 80.4228C61.9102 80.2154 61.6663 80.0281 61.4224 79.8466C60.4579 79.112 59.9869 78.0721 59.6785 76.9284C59.6002 76.6727 59.4746 76.435 59.3085 76.2284C59.1555 76.9178 59.1993 77.638 59.4346 78.3025C59.7598 79.403 60.5561 80.1174 61.3579 80.8232C61.7087 81.1065 61.9629 81.4969 62.0841 81.9381L60.629 80.708L60.5084 80.8002C60.5451 80.9557 60.5939 81.1079 60.6542 81.2553C60.8315 81.6027 60.9271 81.988 60.9334 82.3802C60.9398 82.7724 60.8566 83.1606 60.6906 83.5139C60.5153 83.9557 60.3937 84.4196 60.2704 84.8896L60.2704 84.8897L60.2704 84.8898L60.2704 84.8899L60.2703 84.89C60.1847 85.2166 60.0983 85.5461 59.9925 85.8732C59.9858 85.4293 60.0101 84.9855 60.0654 84.5452C60.1377 84.1545 60.2486 83.7783 60.3598 83.4014L60.3599 83.4009C60.4126 83.2222 60.4653 83.0434 60.514 82.8628C60.7177 82.1182 60.3749 81.5198 60.0342 80.9247L59.9729 80.8175C59.9518 80.7951 59.9265 80.7775 59.8986 80.7656C59.8706 80.7537 59.8406 80.7478 59.8103 80.7483C59.7529 80.8116 59.7124 80.889 59.6926 80.973C59.632 81.3188 59.575 81.6645 59.518 82.0102C59.4326 82.5287 59.3471 83.0472 59.2496 83.5657C59.2496 83.6118 59.2019 83.655 59.0786 83.6925C59.0321 83.2353 59.0377 82.7742 59.0954 82.3184C59.3757 81.0854 59.3169 79.936 58.6384 78.847C58.5541 78.6704 58.4783 78.4897 58.4113 78.3054C58.3761 78.2396 58.3196 78.1886 58.2515 78.1614C58.2178 78.1614 58.1337 78.219 58.1113 78.2709C58.0291 78.4702 57.938 78.668 57.8468 78.8661C57.6269 79.3435 57.4066 79.8219 57.3095 80.3249C57.2256 80.7498 57.2788 81.2012 57.3321 81.6539L57.3322 81.654C57.3555 81.8519 57.3788 82.0501 57.3908 82.2463C57.4034 82.4766 57.4167 82.7069 57.43 82.9372C57.4433 83.1679 57.4566 83.3985 57.4693 83.6291L57.2786 83.6522L56.7179 80.7339C56.1964 81.094 55.7983 82.2204 55.9525 82.7937C55.9995 82.9684 56.0512 83.1498 56.104 83.3351L56.104 83.3353C56.2245 83.758 56.3507 84.2011 56.4403 84.6316C56.5034 85.0198 56.5034 85.416 56.4403 85.8041C56.358 85.501 56.2762 85.1979 56.1944 84.8951L56.194 84.8933L56.1935 84.8914L56.1923 84.8872C56.0883 84.5018 55.9844 84.1169 55.8796 83.7328C55.7605 83.4191 55.6585 83.0989 55.574 82.7735C55.4921 82.2752 55.5719 81.763 55.8011 81.3158C55.8597 81.1974 55.9067 81.076 55.9536 80.9549L55.9536 80.9548L55.9536 80.9547L55.9537 80.9546L55.9537 80.9545C55.9718 80.9078 55.9899 80.8611 56.0086 80.8146L55.8964 80.708L54.4722 81.8776L54.4021 81.8401C54.5458 81.5681 54.7128 81.3097 54.9011 81.0681C55.1046 80.8319 55.3479 80.6184 55.5903 80.4057C55.682 80.3253 55.7736 80.2449 55.8628 80.1635C56.9422 79.1812 57.3431 77.9252 57.2983 76.4876C57.2773 76.3745 57.2464 76.2637 57.2057 76.1564C57.1215 76.2791 57.0447 76.407 56.9758 76.5395C56.7346 77.2691 56.4461 77.9813 56.1123 78.6713C55.8056 79.1936 55.3947 79.6432 54.9067 79.9907C53.4825 80.999 53.3675 82.1282 54.0657 83.6666C54.4441 84.5049 54.5703 85.2251 54.3628 86C54.3264 84.7382 53.676 83.7703 52.961 82.8167C52.9033 83.367 52.8096 83.9127 52.6807 84.4501C52.5237 84.9572 52.3218 85.4786 51.8396 85.7926C52.2041 85.139 52.4153 84.4071 52.4564 83.655C52.4868 83.3678 52.4868 83.078 52.4564 82.7908C52.3498 82.2636 52.3921 81.7161 52.5784 81.2128C52.7646 80.7095 53.0871 80.2715 53.5077 79.9504C53.5669 79.9015 53.6263 79.8527 53.6858 79.8039L53.6866 79.8033L53.6888 79.8014C54.3927 79.2239 55.1063 78.6386 55.4703 77.7552C55.6276 77.3806 55.7456 76.9898 55.8637 76.5985C55.9181 76.4181 55.9726 76.2375 56.031 76.0584L55.8488 76.0008C55.4346 76.5914 54.991 77.1597 54.5198 77.7033C54.0086 78.1993 53.4734 78.6685 52.9162 79.1092L52.8293 79.04L53.704 77.7437C52.8993 77.7811 51.9377 78.6079 51.7414 79.4145C51.7085 79.5448 51.6762 79.6753 51.644 79.8058C51.5531 80.1742 51.4622 80.5422 51.3545 80.9039C51.161 81.5633 50.732 82.0524 50.3022 82.5424C50.1405 82.7267 49.9788 82.9111 49.8294 83.1048C49.5499 83.4653 49.2985 83.8488 49.0513 84.2258L49.0512 84.2259L49.051 84.2262L49.0508 84.2265L49.0506 84.2268C48.9484 84.3828 48.8468 84.5376 48.7444 84.6892C48.7206 84.5948 48.7206 84.4956 48.7444 84.4012C48.9209 83.9228 49.1564 83.4697 49.4453 83.053C50.2025 82.1435 50.6702 81.0175 50.7854 79.8265C50.8583 79.4556 50.9079 79.0804 50.934 78.703C50.8979 78.7292 50.8615 78.7552 50.8249 78.7813L50.8247 78.7814C50.7451 78.8382 50.6651 78.8953 50.5863 78.9565C50.4199 79.0849 50.2542 79.2145 50.0883 79.3441L50.0882 79.3442L50.088 79.3443L50.0879 79.3445C49.6588 79.6799 49.2292 80.0157 48.7864 80.3335C48.5822 80.4608 48.3554 80.545 48.1192 80.5812C46.9332 80.8405 46.2912 81.6846 45.8398 82.7476C45.6874 83.1 45.4995 83.4351 45.2791 83.7472C45.3382 83.5596 45.3915 83.3697 45.4449 83.1801L45.4449 83.1799C45.6445 82.4701 45.8433 81.763 46.3388 81.1833C46.3961 81.0893 46.4378 80.9861 46.4622 80.878C46.3541 80.8494 46.243 80.8349 46.1314 80.8348C45.9699 80.8513 45.8099 80.8799 45.6492 80.9085L45.6489 80.9086L45.5438 80.9272C45.5163 80.932 45.4888 80.9367 45.4613 80.9413L45.4333 80.8059C45.6322 80.7446 45.8348 80.6851 46.0385 80.6252L46.0387 80.6251L46.0404 80.6246C46.4103 80.5159 46.7843 80.406 47.1491 80.2816C48.0406 79.9936 48.9266 79.6536 49.5546 78.8701C49.6219 78.7865 49.6892 78.703 49.7509 78.6165C49.7703 78.5519 49.7825 78.4852 49.7873 78.4178C48.638 78.3124 47.4917 78.6503 46.5715 79.3656L46.4986 79.2302C46.8051 78.9568 47.1387 78.7173 47.4939 78.5157C48.0034 78.2722 48.5461 78.11 49.1032 78.0346C49.9703 77.9318 50.8054 77.6369 51.5508 77.1704C52.2895 76.738 53.0152 76.2864 53.7415 75.8344L53.7421 75.8341L53.7481 75.8304C53.9099 75.7296 54.0718 75.6289 54.2339 75.5284C54.3675 75.4346 54.494 75.3306 54.6124 75.2172L54.5451 75.0991C54.4398 75.1466 54.3352 75.196 54.2305 75.2455C53.967 75.3699 53.7025 75.4948 53.4236 75.5917C52.8435 75.8344 52.2416 76.0177 51.6265 76.1391C50.5387 76.2889 49.4957 76.5309 48.5649 77.1531L48.4948 77.0494C48.5876 76.9739 48.6793 76.8965 48.7711 76.8192L48.7711 76.8191L48.7712 76.8191L48.7712 76.819C48.9874 76.6368 49.2038 76.4544 49.4341 76.2946C49.6543 76.1418 49.905 76.0007 50.1783 75.8468L50.1785 75.8466L50.1792 75.8463L50.1796 75.8461C50.3129 75.771 50.4516 75.693 50.5948 75.609C50.4905 75.5755 50.3835 75.5514 50.2751 75.537C49.8098 75.5257 49.3476 75.6185 48.9206 75.809C48.4936 75.9995 48.112 76.2832 47.8023 76.6403C47.0077 77.585 46.0886 78.4112 45.0716 79.0948C44.5909 79.4049 44.4661 79.9285 44.3434 80.4429L44.3433 80.4432C44.3179 80.5498 44.2926 80.656 44.2642 80.7599C44.1102 81.4742 43.7866 82.1383 43.3221 82.6929C43.3289 82.6747 43.3358 82.6566 43.3428 82.6384L43.3624 82.5881C43.3961 82.5019 43.43 82.4152 43.4539 82.327C43.5136 82.1082 43.5767 81.8898 43.6398 81.6714C43.7902 81.1509 43.9408 80.6298 44.0455 80.1002C44.1149 79.726 44.2668 79.3732 44.4893 79.0686C44.7119 78.764 44.9993 78.5158 45.3295 78.3429C46.0304 77.9385 46.5638 77.3538 47.0982 76.7681L47.0982 76.7681C47.2756 76.5736 47.4531 76.379 47.6369 76.1909C47.6641 76.162 47.6834 76.1262 47.693 76.0872C47.693 76.0671 47.693 76.0382 47.665 75.9605C47.0008 76.1474 46.4607 76.5431 45.9226 76.9372L45.9225 76.9373L45.9224 76.9374L45.9223 76.9374C45.6315 77.1505 45.3412 77.3631 45.0323 77.542C44.9072 77.6145 44.7809 77.6856 44.6545 77.7568L44.6543 77.7569L44.6542 77.7569C43.8917 78.1862 43.1258 78.6173 42.5848 79.3684L42.467 79.2532L43.5296 78.0173C42.8312 78.1723 42.1862 78.5176 41.6624 79.017C41.1694 79.522 40.8196 80.1554 40.6503 80.8492C40.5045 80.273 40.74 79.7804 41.0203 79.3396C41.3348 78.8967 41.6737 78.4725 42.0353 78.0692C40.6334 78.1355 39.6494 78.9075 38.755 79.838L38.6793 79.7516C38.7248 79.6921 38.7693 79.6317 38.8138 79.5712L38.8138 79.5711C38.9203 79.4264 39.0269 79.2815 39.1475 79.1495C39.8757 78.3899 40.8185 77.8859 41.8418 77.7091C43.4483 77.3548 44.8697 76.577 46.2323 75.6897C46.2602 75.6712 46.2768 75.6368 46.2931 75.6029L46.2932 75.6027C46.2998 75.589 46.3063 75.5754 46.3136 75.5629C45.9379 75.2748 45.7529 75.3094 43.8576 76.0094C44.1156 75.6292 44.8866 75.0905 45.4333 75.0991C46.296 75.1171 47.0851 74.8663 47.8782 74.6142C48.1006 74.5435 48.3234 74.4727 48.5481 74.4077C49.0988 74.2725 49.6692 74.2432 50.2303 74.3213C50.7496 74.3847 51.2761 74.3362 51.7762 74.179C52.2762 74.0218 52.739 73.7592 53.1348 73.4081C53.1621 73.3853 53.1791 73.3487 53.209 73.2839C53.2282 73.2422 53.2528 73.1888 53.2891 73.12C53.1338 73.1463 52.9842 73.1628 52.8412 73.1785L52.8411 73.1786C52.5449 73.2112 52.2767 73.2408 52.0442 73.3476C50.8919 73.8834 49.7425 73.7538 48.5902 73.4225C47.6525 73.1541 46.6521 73.2421 45.7725 73.6702C44.9298 74.028 44.1582 74.5416 43.496 75.1855C43.1541 75.5361 42.7484 75.8139 42.3019 76.0032C41.8555 76.1926 41.3771 76.2896 40.8942 76.2889C39.8051 76.2866 38.7369 76.5969 37.8102 77.1848L37.7317 77.0926C37.8903 76.9261 38.0609 76.772 38.242 76.6317C39.0543 76.113 39.991 75.8367 40.9475 75.8337C42.01 75.7934 42.8511 75.2864 43.6109 74.3933H43.2408C43.0306 74.3991 42.8203 74.4045 42.61 74.4099L42.6085 74.4099C41.9782 74.4261 41.3479 74.4423 40.7176 74.4682C40.0212 74.4771 39.3257 74.5252 38.6345 74.6123C38.3209 74.7046 38.0328 74.8714 37.7934 75.0991C36.8598 75.8424 35.8561 76.4041 34.6281 76.4444C34.8231 76.3533 35.0209 76.2674 35.2193 76.1812C36.0559 75.8177 36.9035 75.4494 37.6083 74.667H36.6074L36.5906 74.6007C36.7767 74.5361 36.9618 74.4727 37.1471 74.4091L37.1506 74.4079L37.1531 74.407C37.3874 74.3267 37.6223 74.2461 37.8607 74.1629C38.4406 73.9404 39.031 73.7481 39.6297 73.5867C40.0326 73.5047 40.4463 73.4959 40.8521 73.5608C42.2414 73.7675 43.657 73.4612 44.8473 72.6965C45.5499 72.2563 46.367 72.0481 47.1883 72.1002C47.6363 72.0985 48.0834 72.0609 48.5257 71.9879C48.5853 71.971 48.6421 71.9448 48.6939 71.9101L48.7163 71.7776L47.5472 71.4895C46.165 71.1409 44.8669 71.4405 43.6221 72.034C42.8467 72.3858 42.0082 72.5673 41.1605 72.5669C40.7183 72.5786 40.2762 72.6405 39.8331 72.7024C39.6216 72.732 39.41 72.7616 39.198 72.7858C39.119 72.7846 39.0403 72.7769 38.9625 72.7628C39.4566 72.3874 40.0501 72.1754 40.6643 72.155C41.6975 72.17 42.7201 71.9403 43.653 71.4837C43.7835 71.4079 43.9091 71.3232 44.0287 71.2302C43.4067 71.1278 42.7704 71.1712 42.167 71.357C41.7228 71.4949 41.2599 71.5581 40.7961 71.5442C39.1503 71.3426 37.7597 71.9475 36.4504 72.8607C35.7647 73.3644 34.914 73.5713 34.0814 73.4369C33.3019 73.313 32.5281 73.169 31.7515 73.0019C32.3212 72.8856 32.908 72.8905 33.4758 73.0163C33.948 73.1298 34.4385 73.1371 34.9137 73.0377C35.3889 72.9382 35.8376 72.7344 36.2289 72.4402C36.3123 72.3718 36.3918 72.2987 36.4672 72.2212L32.8421 71.7833V71.72C32.9114 71.6878 32.9852 71.6674 33.0608 71.6595C33.5122 71.6595 33.9636 71.6595 34.4094 71.7084C35.6332 71.8621 36.8746 71.6709 38.0008 71.1553C38.1513 71.0873 38.2961 71.0234 38.4396 70.9601L38.4411 70.9595L38.4419 70.9591C38.565 70.9048 38.6872 70.8509 38.8111 70.7952L38.7943 70.6915L22 70.1311C31.078 70.0452 44.6523 70.0015 58.3023 70C58.2024 68.4569 58.1206 66.8972 58.0432 65.3577C57.9693 63.8892 57.9283 62.4194 57.8873 60.9491C57.8693 60.303 57.8513 59.6568 57.8305 59.0107H57.6341C57.5603 60.3505 57.487 61.6898 57.413 63.0419C57.3231 64.6855 57.2321 66.3481 57.1378 68.0533C57.0673 67.7476 57.0027 67.4726 56.942 67.2137C56.8736 66.9222 56.81 66.6511 56.7479 66.3792C56.4159 64.935 55.7635 63.5843 54.8389 62.4273C54.7464 62.3355 54.6877 62.2151 54.6723 62.0856C54.657 61.9562 54.6859 61.8253 54.7544 61.7144C55.5289 60.0758 56.1179 58.3716 56.1752 56.5991L54.4517 60.9088L54.3426 60.876L54.1544 58.7812C54.1549 58.7025 54.1429 58.6241 54.119 58.5491C53.7018 57.6806 53.9336 56.9569 54.4571 56.1785C55.4007 54.772 55.9897 53.1934 56.4861 51.5766C56.4861 51.5165 56.4861 51.451 56.4997 51.38C56.3682 50.5486 56.0428 49.76 55.5501 49.0782C55.0573 48.3963 54.411 47.8403 53.6636 47.4554C53.5577 47.3994 53.4572 47.3336 53.3636 47.2587C50.5984 45.814 47.765 44.5549 46.3988 44.6178C44.0017 44.727 53.2164 50.1127 53.2164 50.1127C53.2164 50.1127 40.3993 47.7913 33.56 40.0077C33.56 40.0077 42.1992 41.873 45.1798 41.3104C45.1798 41.3104 34.6808 40.0459 31.2093 36.3425C27.7378 32.6392 29.3985 25.8769 29.3985 25.8769C30.1609 27.8531 31.4542 29.5796 33.1353 30.8655C34.8163 32.1515 36.8198 32.9468 38.924 33.1635C38.924 33.1635 29.4722 29.8534 30.9093 20.8026C31.2856 18.4156 35.1934 13.5952 35.1934 13.5952C35.1934 13.5952 34.6999 20.4229 39.2294 24.0553C39.2294 24.0553 35.4116 16.5967 38.9349 11.3011C41.9783 6.71828 52.7255 6 52.7255 6C52.7255 6 38.2723 10.3042 44.6099 24.6998C41.7765 38.0467 54.4272 38.156 54.4272 38.156C54.4272 38.156 56.437 36.8068 55.9107 34.6929C55.2889 32.1912 53.3718 33.8053 53.3718 33.8053C53.3718 30.1375 56.756 28.9549 56.756 28.9549C56.756 28.9549 54.9071 29.3482 54.2417 28.2066C54.2417 28.2066 55.2671 28.7965 56.696 26.7864C58.125 24.7763 60.6748 24.8146 60.6748 24.8146C60.6748 24.8146 61.7656 25.0877 62.5646 24.8938C63.3636 24.6998 65.2916 24.3803 65.7143 25.3662C65.7143 25.3662 62.641 25.328 61.8556 26.8246C61.8379 26.8583 61.8194 26.8933 61.8002 26.9299C60.9622 28.5193 58.6955 32.819 63.5872 36.2497C63.5872 36.2497 62.2864 36.5665 60.4375 35.2637C60.4239 35.2637 60.0012 38.5219 61.8747 38.4482C77.4951 37.8419 73.3909 24.6998 73.3909 24.6998C79.7421 10.3042 65.2698 6 65.2698 6C65.2698 6 76.0252 6.71828 79.0795 11.3011C82.6082 16.5967 78.7849 24.0553 78.7849 24.0553C83.3145 20.412 82.8209 13.5952 82.8209 13.5952C82.8209 13.5952 86.7288 18.4156 87.1051 20.8026C88.5313 29.8534 79.0795 33.1635 79.0795 33.1635C81.1843 32.9486 83.1885 32.154 84.8699 30.8678C86.5513 29.5816 87.8441 27.8541 88.6049 25.8769C88.6049 25.8769 90.2684 32.6337 86.7969 36.3343C83.3254 40.035 72.8291 41.3022 72.8291 41.3022C75.807 41.8648 84.4462 39.9995 84.4462 39.9995C77.6041 47.794 64.7898 50.1045 64.7898 50.1045C64.7898 50.1045 73.9936 44.7188 71.6074 44.6096C70.4184 44.5549 67.975 45.5928 65.3925 46.901C65.2381 47.004 65.0725 47.0892 64.8989 47.155C64.8425 47.1842 64.7857 47.2135 64.7287 47.243C64.3811 47.4226 64.0263 47.6059 63.6936 47.7913C61.3538 49.43 61.711 52.1337 61.711 52.1337C62.2694 53.8542 63.0555 55.4919 64.0481 57.0033C64.1381 57.1405 64.1794 57.304 64.1654 57.4676C64.0329 58.298 63.8871 59.1254 63.741 59.9542C63.6887 60.2512 63.6363 60.5484 63.5845 60.846C63.5085 60.6737 63.4301 60.4981 63.3506 60.3202C63.1164 59.7958 62.8731 59.2513 62.6573 58.713C62.4318 58.1505 62.2262 57.5763 62.003 56.953C61.9401 56.7773 61.8758 56.5977 61.8092 56.4134C61.921 58.0302 62.2128 59.5023 62.9 60.8405C63.3445 61.7035 63.3391 62.3399 62.6982 63.1264C61.6589 64.3977 61.3198 65.9874 60.9843 67.5593C60.9739 67.6084 60.9634 67.6575 60.9529 67.7065C60.9459 67.7338 60.9383 67.762 60.9299 67.793C60.9123 67.858 60.8915 67.9352 60.8657 68.0424C60.6966 64.9863 60.533 62.0012 60.3721 59.0298H60.1784C60.1335 62.6909 59.9798 66.3493 59.7175 70C73.3599 70.0015 86.9252 70.0452 96 70.1311L77.6695 70.6886C79.4443 71.9432 81.3729 71.7909 83.2966 71.6389C83.4181 71.6293 83.5395 71.6197 83.6608 71.6105V71.7862L79.8871 72.2558C80.0461 72.3398 80.1959 72.4217 80.3401 72.5006L80.3406 72.5008C80.6465 72.6681 80.9275 72.8218 81.2189 72.9529C81.7512 73.1881 82.2987 73.117 82.8517 73.0451L82.9403 73.0336C83.3392 72.9824 83.7551 72.9648 84.1809 72.9469C84.3776 72.9386 84.5765 72.9302 84.7767 72.9184C84.761 72.9679 84.7515 73.0042 84.745 73.0294C84.7363 73.0628 84.7326 73.0768 84.7262 73.0768C84.4616 73.1218 84.1966 73.1637 83.9317 73.2056C83.4668 73.2792 83.0019 73.3527 82.5394 73.4427C81.3702 73.6674 80.4254 73.1546 79.503 72.5352C78.8409 72.0387 78.0711 71.7154 77.2601 71.5932C77.0115 71.5551 76.76 71.5397 76.5087 71.5471C75.5949 71.6029 74.6783 71.5056 73.7948 71.259C73.3861 71.1896 72.9727 71.152 72.5584 71.1467L72.5248 71.2648C72.5862 71.3371 72.658 71.3993 72.7379 71.4492C73.6911 71.8698 74.6612 72.2039 75.7237 72.1578C76.0329 72.1415 76.3421 72.1886 76.6334 72.2964C76.9246 72.4042 77.192 72.5706 77.4199 72.7858C77.2178 72.7226 77.0117 72.6735 76.8031 72.6389L76.7361 72.6325L76.736 72.6325C76.2728 72.5884 75.805 72.5439 75.3396 72.5439C74.3694 72.5511 73.4105 72.3303 72.536 71.8986C71.2936 71.2835 69.8717 71.1704 68.552 71.5817C68.3767 71.6335 68.1999 71.6807 68.0238 71.7279L68.0233 71.728L68.0228 71.7281L68.0223 71.7283C67.9539 71.7466 67.8856 71.7648 67.8175 71.7833V71.9418C68.0591 72.013 68.3043 72.0707 68.552 72.1146C68.8318 72.1409 69.1133 72.1409 69.3931 72.1146C70.1818 72.0515 70.9691 72.2537 71.636 72.6908C72.8376 73.4899 74.2885 73.7934 75.6985 73.5406C76.5396 73.3793 77.347 73.6645 78.132 73.967C78.4911 74.1033 78.8522 74.2334 79.2385 74.3724L79.2392 74.3727C79.4892 74.4627 79.7498 74.5565 80.0273 74.6584H79.0517L79.0152 74.7649C79.7062 75.5612 80.6492 75.9132 81.5917 76.2651C81.72 76.313 81.8482 76.3609 81.9758 76.4099L81.9422 76.5337C81.4643 76.4567 80.9949 76.3323 80.5404 76.1621C79.9348 75.8669 79.3575 75.5138 78.8161 75.1078C78.3207 74.6951 77.7094 74.4568 77.0723 74.4279C76.8172 74.4279 76.5615 74.4439 76.3057 74.4599H76.3056H76.3055H76.3054C76.0188 74.4779 75.7321 74.4958 75.4462 74.4913C74.9477 74.4913 74.4492 74.4616 73.9507 74.432C73.7371 74.4193 73.5234 74.4066 73.3098 74.3962L72.9397 74.3732C73.0252 74.5013 73.1189 74.6235 73.2201 74.739C73.8813 75.4225 74.7723 75.8194 75.7097 75.8481C76.6009 75.8555 77.4733 76.1125 78.233 76.5914C78.4435 76.7415 78.644 76.9061 78.833 77.084L78.7741 77.1733C78.7192 77.1474 78.6641 77.1217 78.6089 77.0959L78.6023 77.0928L78.5979 77.0907C78.4174 77.0064 78.2361 76.9217 78.0564 76.8305C77.3286 76.4625 76.5263 76.2769 75.7153 76.2889C75.2186 76.3039 74.7241 76.216 74.2612 76.0304C73.7983 75.8448 73.3765 75.5653 73.021 75.2086C72.1458 74.3325 71.0741 73.6914 69.9006 73.3418C69.2958 73.1775 68.6588 73.1865 68.0586 73.3678C67.1418 73.6069 66.2278 73.8431 65.2802 73.6069C64.9972 73.5357 64.7174 73.4579 64.4378 73.3801L64.4369 73.3799L64.4367 73.3799C64.196 73.3129 63.9554 73.246 63.713 73.1834C63.5276 73.147 63.3404 73.121 63.1522 73.1056C63.1895 73.1641 63.2179 73.2141 63.242 73.2566C63.2868 73.3356 63.3169 73.3888 63.3625 73.4225C64.2625 74.1139 65.2409 74.5086 66.3988 74.2867C67.2961 74.1157 68.1161 74.4182 68.9418 74.7227L69.0345 74.7568L69.1352 74.7937C69.5433 74.9472 69.9736 75.029 70.408 75.0357C70.8265 75.0302 71.2417 75.1133 71.6276 75.2798C72.0135 75.4463 72.3618 75.6927 72.651 76.0037C72.5196 75.954 72.3889 75.9024 72.2582 75.8508C71.9344 75.723 71.6108 75.5952 71.2772 75.4967C71.0066 75.4358 70.7297 75.4096 70.4529 75.4189C70.4011 75.4189 70.3493 75.4539 70.2975 75.489C70.2736 75.5052 70.2497 75.5214 70.2258 75.5341C70.2412 75.5574 70.2549 75.5841 70.2685 75.6106C70.297 75.666 70.3252 75.721 70.3688 75.7444C70.6115 75.8761 70.8525 76.0118 71.0936 76.1475C71.7437 76.5135 72.394 76.8796 73.0771 77.1675C73.5674 77.3743 74.0823 77.5184 74.5979 77.6628C74.9874 77.7718 75.3773 77.881 75.7574 78.0173C76.5671 78.3333 77.267 78.8899 77.7676 79.6162C77.7916 79.6474 77.8106 79.6824 77.8237 79.7199C77.8237 79.7401 77.8237 79.7689 77.79 79.8466C76.8788 78.9162 75.9088 78.1182 74.507 78.0606C74.8787 78.4975 75.2277 78.9543 75.5527 79.4289C75.7139 79.65 75.8268 79.9041 75.8839 80.174C75.941 80.444 75.9409 80.7233 75.8835 80.9932C75.5779 79.3051 74.4565 78.4552 72.9593 77.9655L74.0556 79.2734C73.0759 78.4432 71.9936 77.7938 70.9155 77.1469L70.9154 77.1468C70.3214 76.7903 69.7285 76.4346 69.1548 76.0498C69.0413 76.0057 68.9224 75.9776 68.8016 75.9662C68.8269 76.0553 68.8637 76.1406 68.9109 76.2197C69.0595 76.3777 69.205 76.5388 69.3504 76.7C69.9292 77.3413 70.5075 77.9821 71.2828 78.4149C71.5961 78.5918 71.8665 78.8392 72.0737 79.1385C72.281 79.4377 72.4199 79.7812 72.4799 80.1434C72.5769 80.6033 72.6969 81.0632 72.8184 81.5288L72.8185 81.529L72.8185 81.5291L72.8187 81.5297L72.8187 81.5299C72.9254 81.9388 73.0332 82.3521 73.1276 82.7735C72.9858 82.5819 72.8628 82.3764 72.7603 82.1599C72.5273 81.5729 72.327 80.9727 72.1603 80.3623C71.9788 79.6779 71.5535 79.0887 70.9688 78.7116C70.543 78.4035 70.1471 78.05 69.7507 77.696L69.7505 77.6958C69.591 77.5534 69.4314 77.4109 69.2698 77.2712C69.0905 77.1164 68.9195 76.9536 68.7497 76.7921C68.3858 76.4458 68.0278 76.1052 67.6072 75.8596C67.1813 75.6103 66.6272 75.593 66.0869 75.5761L66.0284 75.5742L65.9475 75.5716C66.1471 75.7126 66.3533 75.8421 66.5585 75.9709L66.5586 75.971C67.091 76.3052 67.6168 76.6354 68.0053 77.1531C67.5948 76.9255 67.1695 76.7272 66.7325 76.5597C66.1631 76.385 65.5794 76.2645 64.9886 76.1996C64.0663 76.0998 63.258 75.7034 62.445 75.3046L62.445 75.3046L62.3592 75.2626L62.2074 75.1884C62.1483 75.1602 62.0874 75.1361 62.0252 75.1164C62.0126 75.1164 61.9977 75.1235 61.9679 75.1377L61.9679 75.1377C61.9512 75.1457 61.9299 75.1559 61.9018 75.1683C61.9247 75.1965 61.9449 75.2259 61.9643 75.2542C62.0045 75.3128 62.0415 75.3667 62.0925 75.3958C62.4477 75.6038 62.8016 75.8151 63.1556 76.0265L63.1573 76.0275L63.1574 76.0276L63.1575 76.0276L63.1576 76.0277C64.1468 76.6184 65.137 77.2098 66.1605 77.7293C66.5374 77.9155 66.9741 77.9813 67.4122 78.0474L67.4123 78.0474C67.652 78.0835 67.8921 78.1198 68.1231 78.1758C68.8573 78.332 69.5139 78.7505 69.9763 79.3569C69.0118 78.6281 67.924 78.389 66.6484 78.4149C66.7356 78.5755 66.8311 78.7313 66.9343 78.8816C67.5596 79.6479 68.4371 79.9619 69.3146 80.2701C69.7101 80.4063 70.1056 80.5252 70.5011 80.6441L70.5012 80.6442L70.5013 80.6442L70.5019 80.6444C70.6669 80.694 70.8318 80.7436 70.9968 80.7944L70.9828 80.9068L70.0576 80.852C70.1664 81.097 70.2745 81.3399 70.3819 81.5813C70.6951 82.2851 71.0025 82.9758 71.3052 83.6666L71.1622 83.7443C70.9979 83.5001 70.8544 83.2418 70.7333 82.9723C70.2875 81.7019 69.5193 80.8088 68.1791 80.5063C67.3829 80.322 66.7661 79.8063 66.2054 79.233C66.0778 79.1058 65.944 78.9851 65.8106 78.8647L65.8103 78.8644L65.7273 78.7894C65.6893 78.755 65.6514 78.7204 65.6138 78.6857L65.5017 78.7635ZM52.308 36.9324C44.6723 35.4658 46.5812 25.7896 46.5812 25.7896C46.9891 35.0103 52.0844 36.8515 52.3009 36.9298L52.3011 36.9299C52.306 36.9316 52.3083 36.9324 52.308 36.9324ZM71.7489 25.5055C71.7489 25.5055 71.059 34.7667 66.434 37.2492C66.434 37.2602 73.017 36.1677 71.7489 25.5055Z" fill="url(#paint1_linear_25_30)"/>
<defs>
<linearGradient id="paint0_linear_25_30" x1="0" y1="111" x2="117" y2="111" gradientUnits="userSpaceOnUse">
<stop stop-color="white"/>
<stop offset="0.672188" stop-color="white" stop-opacity="0.75"/>
<stop offset="1" stop-color="white" stop-opacity="0.990385"/>
</linearGradient>
<linearGradient id="paint1_linear_25_30" x1="59.499" y1="84.6749" x2="59.499" y2="-0.402257" gradientUnits="userSpaceOnUse">
<stop stop-color="white"/>
<stop offset="1" stop-color="white"/>
</linearGradient>
</defs>
</svg>
