<svg width="185" height="55" viewBox="0 0 185 55" fill="none" xmlns="http://www.w3.org/2000/svg">
<path d="M77.2673 15.564C79.1801 15.564 80.8032 16.221 82.1364 17.5349C83.4697 18.8488 84.1363 20.4332 84.1363 22.2881C84.1363 24.1624 83.4697 25.7565 82.1364 27.0704C80.8032 28.3843 79.1801 29.0412 77.2673 29.0412H73.7023V35.8523H69.7026V15.564H73.7023H77.2673ZM77.2673 25.3024C78.0788 25.3024 78.7551 25.0126 79.2961 24.4329C79.8564 23.8532 80.1366 23.1383 80.1366 22.2881C80.1366 21.438 79.8564 20.7327 79.2961 20.1724C78.7551 19.5927 78.0788 19.3029 77.2673 19.3029H73.7023V25.3024H77.2673ZM97.4654 15.564H101.465V35.8523H97.4654V27.3312H90.7413V35.8523H86.7416V15.564H90.7413V23.5054H97.4654V15.564ZM122.295 33.2148C120.247 35.2436 117.754 36.2581 114.818 36.2581C111.881 36.2581 109.388 35.2436 107.34 33.2148C105.311 31.1667 104.297 28.6645 104.297 25.7082C104.297 22.7519 105.311 20.2593 107.34 18.2305C109.388 16.1823 111.881 15.1583 114.818 15.1583C117.754 15.1583 120.247 16.1823 122.295 18.2305C124.343 20.2593 125.367 22.7519 125.367 25.7082C125.367 28.6645 124.343 31.1667 122.295 33.2148ZM110.151 30.4904C111.407 31.727 112.963 32.3453 114.818 32.3453C116.672 32.3453 118.228 31.727 119.484 30.4904C120.74 29.2345 121.368 27.6404 121.368 25.7082C121.368 23.776 120.74 22.1819 119.484 20.9259C118.228 19.67 116.672 19.042 114.818 19.042C112.963 19.042 111.407 19.67 110.151 20.9259C108.895 22.1819 108.267 23.776 108.267 25.7082C108.267 27.6404 108.895 29.2345 110.151 30.4904ZM132.178 32.0265H140.207V35.8523H129.483H128.179V15.564H132.178H140.062V19.3898H132.178V23.7373H139.337V27.4761H132.178V32.0265ZM153.994 15.564H157.964V35.8523H154.921L147.038 23.3026V35.8523H143.038V15.564H146.081L153.994 28.0848V15.564ZM161.719 15.564H165.718V35.8523H161.719V15.564ZM184.632 35.8523H180.111L176.285 29.3021L172.459 35.8523H167.967L174.024 25.4183L168.286 15.564H172.807L176.285 21.5636L179.792 15.564H184.284L178.546 25.4183L184.632 35.8523Z" fill="white"/>
<path d="M73.0292 46.5015C72.6321 46.5015 72.2651 46.4362 71.9283 46.3055C71.5915 46.1698 71.3 45.9813 71.0537 45.74C70.8074 45.4987 70.6138 45.2147 70.4731 44.8879C70.3374 44.5612 70.2695 44.2043 70.2695 43.8172C70.2695 43.4301 70.3374 43.0732 70.4731 42.7465C70.6138 42.4197 70.8074 42.1357 71.0537 41.8944C71.305 41.6531 71.5991 41.4672 71.9359 41.3365C72.2727 41.2007 72.6396 41.1329 73.0368 41.1329C73.4188 41.1329 73.7782 41.1982 74.115 41.3289C74.4518 41.4546 74.7358 41.6456 74.9671 41.902L74.6127 42.2564C74.3965 42.0352 74.1578 41.8768 73.8964 41.7813C73.635 41.6808 73.3535 41.6305 73.0518 41.6305C72.7352 41.6305 72.4411 41.6858 72.1696 41.7964C71.8982 41.902 71.6619 42.0553 71.4609 42.2564C71.2598 42.4524 71.1014 42.6837 70.9858 42.9501C70.8752 43.2115 70.8199 43.5005 70.8199 43.8172C70.8199 44.1339 70.8752 44.4255 70.9858 44.6919C71.1014 44.9533 71.2598 45.1845 71.4609 45.3856C71.6619 45.5816 71.8982 45.7349 72.1696 45.8455C72.4411 45.9511 72.7352 46.0039 73.0518 46.0039C73.3535 46.0039 73.635 45.9536 73.8964 45.8531C74.1578 45.7525 74.3965 45.5917 74.6127 45.3705L74.9671 45.7249C74.7358 45.9813 74.4518 46.1748 74.115 46.3055C73.7782 46.4362 73.4163 46.5015 73.0292 46.5015ZM78.3238 46.5015C77.9267 46.5015 77.5572 46.4362 77.2154 46.3055C76.8786 46.1698 76.5845 45.9813 76.3332 45.74C76.0868 45.4937 75.8933 45.2096 75.7526 44.8879C75.6168 44.5612 75.549 44.2043 75.549 43.8172C75.549 43.4301 75.6168 43.0757 75.7526 42.754C75.8933 42.4273 76.0868 42.1433 76.3332 41.902C76.5845 41.6557 76.8786 41.4672 77.2154 41.3365C77.5522 41.2007 77.9216 41.1329 78.3238 41.1329C78.7209 41.1329 79.0879 41.2007 79.4247 41.3365C79.7615 41.4672 80.053 41.6531 80.2993 41.8944C80.5507 42.1357 80.7442 42.4197 80.8799 42.7465C81.0207 43.0732 81.0911 43.4301 81.0911 43.8172C81.0911 44.2043 81.0207 44.5612 80.8799 44.8879C80.7442 45.2147 80.5507 45.4987 80.2993 45.74C80.053 45.9813 79.7615 46.1698 79.4247 46.3055C79.0879 46.4362 78.7209 46.5015 78.3238 46.5015ZM78.3238 46.0039C78.6405 46.0039 78.932 45.9511 79.1985 45.8455C79.4699 45.7349 79.7037 45.5816 79.8997 45.3856C80.1008 45.1845 80.2566 44.9533 80.3672 44.6919C80.4778 44.4255 80.5331 44.1339 80.5331 43.8172C80.5331 43.5005 80.4778 43.2115 80.3672 42.9501C80.2566 42.6837 80.1008 42.4524 79.8997 42.2564C79.7037 42.0553 79.4699 41.902 79.1985 41.7964C78.932 41.6858 78.6405 41.6305 78.3238 41.6305C78.0071 41.6305 77.713 41.6858 77.4416 41.7964C77.1701 41.902 76.9339 42.0553 76.7328 42.2564C76.5367 42.4524 76.3809 42.6837 76.2653 42.9501C76.1547 43.2115 76.0994 43.5005 76.0994 43.8172C76.0994 44.1289 76.1547 44.4179 76.2653 44.6843C76.3809 44.9508 76.5367 45.1845 76.7328 45.3856C76.9339 45.5816 77.1701 45.7349 77.4416 45.8455C77.713 45.9511 78.0071 46.0039 78.3238 46.0039ZM81.643 41.1781H82.2839L83.7844 43.2668L85.2774 41.1781H85.9334L84.1313 43.7116L86.0767 46.4563H85.4207L83.7844 44.1867L82.1482 46.4563H81.5073L83.4451 43.7343L81.643 41.1781ZM86.9512 46.4563V41.1781H88.9267C89.3741 41.1781 89.7586 41.251 90.0804 41.3968C90.4021 41.5375 90.6484 41.7436 90.8193 42.0151C90.9953 42.2815 91.0832 42.6057 91.0832 42.9878C91.0832 43.3598 90.9953 43.6815 90.8193 43.9529C90.6484 44.2194 90.4021 44.4255 90.0804 44.5712C89.7586 44.717 89.3741 44.7899 88.9267 44.7899H87.2603L87.5091 44.526V46.4563H86.9512ZM87.5091 44.5712L87.2603 44.2998H88.9116C89.4394 44.2998 89.8391 44.1867 90.1105 43.9605C90.387 43.7292 90.5252 43.405 90.5252 42.9878C90.5252 42.5655 90.387 42.2388 90.1105 42.0075C89.8391 41.7763 89.4394 41.6607 88.9116 41.6607H87.2603L87.5091 41.3968V44.5712ZM91.1817 46.4563L93.5946 41.1781H94.145L96.5579 46.4563H95.9698L93.7529 41.5023H93.9792L91.7623 46.4563H91.1817ZM92.1318 45.0463L92.2977 44.5939H95.3666L95.5324 45.0463H92.1318ZM101.43 41.1781H101.98V46.4563H101.43V41.1781ZM98.1274 46.4563H97.5694V41.1781H98.1274V46.4563ZM101.483 44.0208H98.067V43.5307H101.483V44.0208ZM103.762 46.4563V41.1781H104.313V45.5515L107.691 41.1781H108.196V46.4563H107.645V42.0905L104.267 46.4563H103.762ZM111.95 46.4563V41.1781H114.145C114.703 41.1781 115.14 41.2937 115.457 41.525C115.778 41.7512 115.939 42.0855 115.939 42.5278C115.939 42.9652 115.786 43.2969 115.479 43.5231C115.173 43.7443 114.77 43.8549 114.273 43.8549L114.401 43.6664C114.989 43.6664 115.436 43.782 115.743 44.0133C116.05 44.2445 116.203 44.5838 116.203 45.0312C116.203 45.4836 116.042 45.8355 115.721 46.0868C115.404 46.3331 114.926 46.4563 114.288 46.4563H111.95ZM112.501 46.0114H114.288C114.735 46.0114 115.075 45.9285 115.306 45.7626C115.537 45.5967 115.653 45.3403 115.653 44.9935C115.653 44.6517 115.537 44.4003 115.306 44.2395C115.075 44.0786 114.735 43.9982 114.288 43.9982H112.501V46.0114ZM112.501 43.5684H114.114C114.522 43.5684 114.833 43.4879 115.049 43.3271C115.271 43.1612 115.381 42.9174 115.381 42.5957C115.381 42.274 115.271 42.0327 115.049 41.8718C114.833 41.7059 114.522 41.623 114.114 41.623H112.501V43.5684ZM119.913 46.5015C119.516 46.5015 119.146 46.4362 118.805 46.3055C118.468 46.1698 118.174 45.9813 117.922 45.74C117.676 45.4937 117.483 45.2096 117.342 44.8879C117.206 44.5612 117.138 44.2043 117.138 43.8172C117.138 43.4301 117.206 43.0757 117.342 42.754C117.483 42.4273 117.676 42.1433 117.922 41.902C118.174 41.6557 118.468 41.4672 118.805 41.3365C119.141 41.2007 119.511 41.1329 119.913 41.1329C120.31 41.1329 120.677 41.2007 121.014 41.3365C121.351 41.4672 121.642 41.6531 121.889 41.8944C122.14 42.1357 122.334 42.4197 122.469 42.7465C122.61 43.0732 122.68 43.4301 122.68 43.8172C122.68 44.2043 122.61 44.5612 122.469 44.8879C122.334 45.2147 122.14 45.4987 121.889 45.74C121.642 45.9813 121.351 46.1698 121.014 46.3055C120.677 46.4362 120.31 46.5015 119.913 46.5015ZM119.913 46.0039C120.23 46.0039 120.521 45.9511 120.788 45.8455C121.059 45.7349 121.293 45.5816 121.489 45.3856C121.69 45.1845 121.846 44.9533 121.956 44.6919C122.067 44.4255 122.122 44.1339 122.122 43.8172C122.122 43.5005 122.067 43.2115 121.956 42.9501C121.846 42.6837 121.69 42.4524 121.489 42.2564C121.293 42.0553 121.059 41.902 120.788 41.7964C120.521 41.6858 120.23 41.6305 119.913 41.6305C119.596 41.6305 119.302 41.6858 119.031 41.7964C118.759 41.902 118.523 42.0553 118.322 42.2564C118.126 42.4524 117.97 42.6837 117.855 42.9501C117.744 43.2115 117.689 43.5005 117.689 43.8172C117.689 44.1289 117.744 44.4179 117.855 44.6843C117.97 44.9508 118.126 45.1845 118.322 45.3856C118.523 45.5816 118.759 45.7349 119.031 45.8455C119.302 45.9511 119.596 46.0039 119.913 46.0039ZM126.319 46.5015C125.922 46.5015 125.555 46.4362 125.218 46.3055C124.882 46.1698 124.59 45.9813 124.344 45.74C124.097 45.4987 123.904 45.2147 123.763 44.8879C123.627 44.5612 123.559 44.2043 123.559 43.8172C123.559 43.4301 123.627 43.0732 123.763 42.7465C123.904 42.4197 124.097 42.1357 124.344 41.8944C124.595 41.6531 124.889 41.4672 125.226 41.3365C125.563 41.2007 125.93 41.1329 126.327 41.1329C126.709 41.1329 127.068 41.1982 127.405 41.3289C127.742 41.4546 128.026 41.6456 128.257 41.902L127.903 42.2564C127.686 42.0352 127.448 41.8768 127.186 41.7813C126.925 41.6808 126.643 41.6305 126.342 41.6305C126.025 41.6305 125.731 41.6858 125.46 41.7964C125.188 41.902 124.952 42.0553 124.751 42.2564C124.55 42.4524 124.391 42.6837 124.276 42.9501C124.165 43.2115 124.11 43.5005 124.11 43.8172C124.11 44.1339 124.165 44.4255 124.276 44.6919C124.391 44.9533 124.55 45.1845 124.751 45.3856C124.952 45.5816 125.188 45.7349 125.46 45.8455C125.731 45.9511 126.025 46.0039 126.342 46.0039C126.643 46.0039 126.925 45.9536 127.186 45.8531C127.448 45.7525 127.686 45.5917 127.903 45.3705L128.257 45.7249C128.026 45.9813 127.742 46.1748 127.405 46.3055C127.068 46.4362 126.706 46.5015 126.319 46.5015ZM129.409 46.4563V41.1781H133.851V46.4563H133.3V41.5099L133.443 41.6607H129.817L129.96 41.5099V46.4563H129.409ZM137.946 46.5015C137.549 46.5015 137.18 46.4362 136.838 46.3055C136.501 46.1698 136.207 45.9813 135.956 45.74C135.709 45.4937 135.516 45.2096 135.375 44.8879C135.239 44.5612 135.172 44.2043 135.172 43.8172C135.172 43.4301 135.239 43.0757 135.375 42.754C135.516 42.4273 135.709 42.1433 135.956 41.902C136.207 41.6557 136.501 41.4672 136.838 41.3365C137.175 41.2007 137.544 41.1329 137.946 41.1329C138.344 41.1329 138.71 41.2007 139.047 41.3365C139.384 41.4672 139.676 41.6531 139.922 41.8944C140.173 42.1357 140.367 42.4197 140.503 42.7465C140.643 43.0732 140.714 43.4301 140.714 43.8172C140.714 44.2043 140.643 44.5612 140.503 44.8879C140.367 45.2147 140.173 45.4987 139.922 45.74C139.676 45.9813 139.384 46.1698 139.047 46.3055C138.71 46.4362 138.344 46.5015 137.946 46.5015ZM137.946 46.0039C138.263 46.0039 138.555 45.9511 138.821 45.8455C139.093 45.7349 139.326 45.5816 139.522 45.3856C139.723 45.1845 139.879 44.9533 139.99 44.6919C140.1 44.4255 140.156 44.1339 140.156 43.8172C140.156 43.5005 140.1 43.2115 139.99 42.9501C139.879 42.6837 139.723 42.4524 139.522 42.2564C139.326 42.0553 139.093 41.902 138.821 41.7964C138.555 41.6858 138.263 41.6305 137.946 41.6305C137.63 41.6305 137.336 41.6858 137.064 41.7964C136.793 41.902 136.556 42.0553 136.355 42.2564C136.159 42.4524 136.004 42.6837 135.888 42.9501C135.777 43.2115 135.722 43.5005 135.722 43.8172C135.722 44.1289 135.777 44.4179 135.888 44.6843C136.004 44.9508 136.159 45.1845 136.355 45.3856C136.556 45.5816 136.793 45.7349 137.064 45.8455C137.336 45.9511 137.63 46.0039 137.946 46.0039ZM142.045 46.4563V41.1781H142.505L144.918 45.2951H144.677L147.067 41.1781H147.527V46.4563H146.992V42.0151H147.12L144.918 45.7852H144.654L142.437 42.0151H142.581V46.4563H142.045ZM149.306 46.4563V41.1781H149.856V45.5515L153.234 41.1781H153.739V46.4563H153.189V42.0905L149.811 46.4563H149.306ZM159.381 41.1781H159.932V46.4563H159.381V41.1781ZM156.078 46.4563H155.52V41.1781H156.078V46.4563ZM159.434 44.0208H156.018V43.5307H159.434V44.0208ZM160.937 46.4563L163.349 41.1781H163.9L166.313 46.4563H165.725L163.508 41.5023H163.734L161.517 46.4563H160.937ZM161.887 45.0463L162.053 44.5939H165.121L165.287 45.0463H161.887ZM171.185 41.1781H171.735V46.4563H171.185V41.1781ZM167.882 46.4563H167.324V41.1781H167.882V46.4563ZM171.238 44.0208H167.822V43.5307H171.238V44.0208ZM173.517 46.4563V41.1781H174.067V45.5515L177.445 41.1781H177.951V46.4563H177.4V42.0905L174.022 46.4563H173.517ZM182.921 46.4563V44.707L183.072 44.8578H181.345C180.923 44.8578 180.561 44.7849 180.26 44.6391C179.963 44.4933 179.734 44.2872 179.573 44.0208C179.418 43.7493 179.34 43.4251 179.34 43.0481C179.34 42.646 179.425 42.3066 179.596 42.0302C179.767 41.7487 180.008 41.5375 180.32 41.3968C180.637 41.251 181.004 41.1781 181.421 41.1781H183.472V46.4563H182.921ZM179.34 46.4563L180.637 44.6014H181.21L179.935 46.4563H179.34ZM182.921 44.5486V41.5023L183.072 41.6607H181.443C180.951 41.6607 180.569 41.7788 180.297 42.0151C180.031 42.2463 179.898 42.5856 179.898 43.033C179.898 43.4653 180.023 43.7996 180.275 44.0359C180.526 44.2671 180.898 44.3827 181.391 44.3827H183.072L182.921 44.5486Z" fill="white"/>
<path fill-rule="evenodd" clip-rule="evenodd" d="M55 27.5C55 42.6878 42.6878 55 27.5 55C12.3122 55 0 42.6878 0 27.5C0 12.3122 12.3122 0 27.5 0C42.6878 0 55 12.3122 55 27.5ZM31.7318 47.6043C31.7492 47.7038 31.7661 47.8022 31.7829 47.8998L31.7829 47.8999L31.7829 47.9L31.7829 47.9C31.8248 48.1441 31.8659 48.3839 31.9131 48.6263C32.0284 49.2151 32.2965 49.7608 32.6892 50.2055C32.8251 50.3495 32.9295 50.5218 32.9953 50.7107C33.061 50.8996 33.0867 51.1008 33.0704 51.3007C33.0499 51.205 33.0186 51.1121 32.9772 51.0239C32.833 50.7534 32.6627 50.4985 32.4689 50.263C31.8894 49.6484 31.4403 48.9763 31.3132 48.1092C31.2438 47.6339 30.9354 47.3292 30.5253 47.1255C30.4326 47.0802 30.34 47.0365 30.2473 46.9927L30.1996 46.9702L30.1085 46.927L30.078 46.9792L30.6422 47.7627L30.5795 47.8219C30.486 47.7403 30.3905 47.6604 30.2949 47.5805L30.2948 47.5805C30.0563 47.3811 29.8174 47.1813 29.6069 46.9514C29.3984 46.7236 29.2162 46.4828 29.0338 46.2418L29.0338 46.2418L29.0336 46.2415C28.9582 46.1418 28.8827 46.0421 28.8054 45.9433L28.7359 45.9694C28.7578 46.0533 28.7777 46.138 28.7975 46.2226C28.8407 46.4065 28.8839 46.5903 28.9477 46.7668C29.0972 47.1728 29.3458 47.5326 29.6696 47.8115L29.7895 47.9165L29.7895 47.9166L29.7896 47.9166L29.7896 47.9166C30.0297 48.1266 30.2697 48.3366 30.4948 48.5619C30.6541 48.7299 30.7736 48.9334 30.8438 49.1566C30.9141 49.3797 30.9332 49.6166 30.8998 49.8486C30.8269 50.7401 30.8862 51.0674 31.2387 51.8405C31.0602 51.7196 30.9265 51.5405 30.8591 51.3321C30.7632 51.1256 30.6893 50.909 30.6388 50.6861C30.6068 50.4362 30.591 50.1843 30.5914 49.9322C30.3408 50.2183 30.1396 50.5463 29.9966 50.902C29.8643 51.238 29.7566 51.5837 29.6747 51.9362C29.5975 51.5348 29.6412 51.1188 29.8001 50.7436C29.9117 50.4909 30.0052 50.2302 30.0796 49.9635C30.1575 49.7244 30.1627 49.4666 30.0946 49.2244C30.0265 48.9821 29.8883 48.7669 29.6984 48.6072C29.5611 48.4818 29.4137 48.3687 29.2663 48.259C28.6834 47.815 28.3987 47.1864 28.2123 46.4952C28.165 46.3407 28.089 46.197 27.9886 46.0721C27.8962 46.4888 27.9226 46.9241 28.0649 47.3257C28.2614 47.9908 28.7427 48.4226 29.2273 48.8492C29.4393 49.0204 29.593 49.2564 29.6662 49.523L28.7867 48.7796L28.7139 48.8353C28.7361 48.9292 28.7655 49.0212 28.802 49.1104C28.9091 49.3203 28.9669 49.5532 28.9707 49.7902C28.9746 50.0273 28.9243 50.2619 28.824 50.4754C28.7181 50.7425 28.6445 51.0229 28.57 51.307C28.5182 51.5044 28.466 51.7037 28.4021 51.9014C28.398 51.6331 28.4127 51.3649 28.4461 51.0988C28.4898 50.8626 28.5568 50.6353 28.624 50.4075L28.624 50.4075L28.6241 50.4074L28.6241 50.4073C28.6559 50.2993 28.6878 50.1912 28.7173 50.0819C28.8403 49.6319 28.6332 49.2702 28.4273 48.9106L28.3902 48.8457C28.3775 48.8322 28.3622 48.8216 28.3453 48.8144C28.3284 48.8072 28.3102 48.8036 28.2919 48.8039C28.2573 48.8422 28.2328 48.889 28.2208 48.9397C28.1842 49.1487 28.1497 49.3576 28.1153 49.5666C28.0637 49.88 28.012 50.1934 27.953 50.5068C27.953 50.5346 27.9242 50.5607 27.8497 50.5834C27.8216 50.3071 27.825 50.0283 27.8598 49.7529C28.0293 49.0076 27.9937 48.3129 27.5836 47.6548C27.5327 47.5481 27.4869 47.4388 27.4464 47.3275C27.4251 47.2877 27.3909 47.2569 27.3498 47.2404C27.3295 47.2404 27.2786 47.2752 27.2651 47.3066C27.2154 47.427 27.1604 47.5466 27.1052 47.6662L27.1052 47.6663C26.9723 47.9548 26.8391 48.244 26.7804 48.548C26.7297 48.8048 26.7619 49.0777 26.7942 49.3513C26.8083 49.4709 26.8224 49.5907 26.8296 49.7093C26.8372 49.8479 26.8452 49.9865 26.8532 50.1251L26.8532 50.1253L26.8533 50.1274C26.8614 50.2666 26.8694 50.4058 26.877 50.5451L26.7618 50.559L26.4229 48.7952C26.1077 49.0129 25.8671 49.6937 25.9603 50.0401C25.9887 50.1457 26.0199 50.2554 26.0519 50.3674C26.1247 50.6229 26.201 50.8907 26.2551 51.151C26.2933 51.3856 26.2933 51.625 26.2551 51.8596C26.2065 51.6804 26.1581 51.5012 26.1098 51.3222L26.1072 51.3126L26.1063 51.3092L26.106 51.3082C26.0429 51.0744 25.9798 50.8408 25.9162 50.6077C25.8443 50.4181 25.7826 50.2246 25.7315 50.028C25.682 49.7268 25.7303 49.4172 25.8688 49.1469C25.9042 49.0754 25.9326 49.002 25.961 48.9287C25.9719 48.9004 25.9829 48.8721 25.9942 48.844L25.9264 48.7796L25.0656 49.4865L25.0232 49.4638C25.1101 49.2994 25.211 49.1432 25.3249 48.9972C25.4478 48.8545 25.5948 48.7254 25.7414 48.5969C25.7968 48.5483 25.8521 48.4997 25.9061 48.4505C26.5585 47.8568 26.8008 47.0976 26.7737 46.2288C26.761 46.1604 26.7423 46.0934 26.7177 46.0286C26.6668 46.1027 26.6204 46.1801 26.5788 46.2601C26.433 46.7011 26.2586 47.1315 26.0569 47.5486C25.8715 47.8643 25.6232 48.136 25.3283 48.346C24.4674 48.9554 24.398 49.6379 24.8199 50.5677C25.0487 51.0744 25.1249 51.5097 24.9995 51.978C24.9775 51.2154 24.5844 50.6304 24.1523 50.0541C24.1174 50.3867 24.0608 50.7165 23.9828 51.0413C23.8879 51.3477 23.7659 51.6629 23.4745 51.8527C23.6948 51.4576 23.8224 51.0153 23.8473 50.5607C23.8657 50.3871 23.8657 50.212 23.8473 50.0384C23.7828 49.7198 23.8084 49.3889 23.921 49.0847C24.0336 48.7805 24.2285 48.5157 24.4827 48.3216C24.519 48.2916 24.5556 48.2616 24.5921 48.2316C25.0176 47.8826 25.4488 47.5288 25.6688 46.9949C25.7639 46.7685 25.8352 46.5323 25.9066 46.2958C25.9395 46.1867 25.9725 46.0776 26.0078 45.9694L25.8976 45.9345C25.6473 46.2915 25.3792 46.635 25.0944 46.9636C24.7854 47.2633 24.4619 47.5469 24.1252 47.8132L24.0726 47.7714L24.6013 46.9879C24.115 47.0106 23.5338 47.5103 23.4152 47.9978C23.3953 48.0764 23.3758 48.1552 23.3564 48.2339L23.3563 48.2343C23.3013 48.457 23.2464 48.6794 23.1813 48.898C23.0643 49.2965 22.8051 49.5921 22.5453 49.8883L22.5452 49.8883C22.4475 49.9997 22.3498 50.1111 22.2595 50.2282C22.0906 50.446 21.9387 50.6778 21.7893 50.9056L21.7893 50.9057L21.7892 50.9057L21.7892 50.9057L21.789 50.9061C21.7271 51.0004 21.6657 51.0941 21.6037 51.1858C21.5894 51.1287 21.5894 51.0688 21.6037 51.0117C21.7104 50.7226 21.8528 50.4487 22.0274 50.1968C22.485 49.6472 22.7677 48.9666 22.8373 48.2468C22.8814 48.0226 22.9114 47.7958 22.9271 47.5677C22.9053 47.5836 22.8833 47.5993 22.8613 47.615L22.8612 47.6151C22.8131 47.6494 22.7647 47.684 22.717 47.721C22.6167 47.7984 22.5168 47.8765 22.4168 47.9546L22.4164 47.955L22.4159 47.9553L22.4157 47.9555C22.1564 48.1582 21.8967 48.3611 21.6292 48.5532C21.5057 48.6302 21.3686 48.6811 21.2259 48.703C20.5091 48.8597 20.121 49.3698 19.8482 50.0123C19.7561 50.2253 19.6425 50.4278 19.5093 50.6165C19.5451 50.503 19.5773 50.3882 19.6096 50.2736C19.7302 49.8445 19.8503 49.4172 20.1499 49.0668C20.1845 49.01 20.2097 48.9476 20.2244 48.8823C20.1591 48.865 20.0919 48.8563 20.0245 48.8562C19.9268 48.8662 19.8301 48.8835 19.7329 48.9008C19.6952 48.9075 19.6574 48.9143 19.6195 48.9206L19.6025 48.8388C19.7226 48.8017 19.8448 48.7658 19.9678 48.7297L19.9684 48.7295L19.9687 48.7294C20.1925 48.6636 20.4189 48.5971 20.6396 48.5219C21.1784 48.3478 21.7139 48.1423 22.0934 47.6687C22.1341 47.6182 22.1748 47.5677 22.2121 47.5155C22.2238 47.4764 22.2312 47.4361 22.2341 47.3954C21.5395 47.3317 20.8466 47.5359 20.2905 47.9682L20.2464 47.8864C20.4316 47.7211 20.6333 47.5764 20.848 47.4546C21.1559 47.3074 21.4839 47.2093 21.8206 47.1638C22.3447 47.1016 22.8494 46.9234 23.2999 46.6414C23.7465 46.38 24.1852 46.107 24.6243 45.8338C24.7233 45.7722 24.8224 45.7105 24.9216 45.649C25.0023 45.5924 25.0788 45.5295 25.1503 45.461L25.1097 45.3896C25.046 45.4183 24.9828 45.4482 24.9195 45.4781L24.9194 45.4781L24.9194 45.4781C24.7602 45.5533 24.6004 45.6288 24.4319 45.6873C24.0813 45.834 23.7174 45.9448 23.3457 46.0181C22.6882 46.1087 22.0579 46.2549 21.4953 46.631L21.4529 46.5683C21.509 46.5226 21.5645 46.4759 21.62 46.4291C21.7506 46.319 21.8814 46.2087 22.0206 46.1121C22.1539 46.0196 22.3057 45.9342 22.4712 45.841C22.5517 45.7957 22.6356 45.7485 22.7221 45.6978C22.6591 45.6775 22.5944 45.663 22.5289 45.6542C22.2477 45.6474 21.9683 45.7035 21.7102 45.8186C21.4522 45.9338 21.2215 46.1052 21.0344 46.3211C20.5541 46.8921 19.9986 47.3914 19.3839 47.8045C19.0934 47.992 19.018 48.3084 18.9438 48.6194L18.9438 48.6194C18.9284 48.6839 18.9131 48.7481 18.8959 48.8109C18.8029 49.2426 18.6073 49.644 18.3266 49.9792L18.3376 49.9502L18.3509 49.9159L18.3509 49.9158C18.3713 49.8637 18.3917 49.8113 18.4062 49.7581C18.4423 49.6258 18.4804 49.4939 18.5186 49.3618L18.5186 49.3618C18.6095 49.0472 18.7005 48.7323 18.7637 48.4122C18.8057 48.1861 18.8975 47.9728 19.032 47.7887C19.1665 47.6046 19.3402 47.4546 19.5398 47.3501C19.9634 47.1057 20.2858 46.7523 20.6088 46.3983C20.716 46.2808 20.8233 46.1632 20.9344 46.0495C20.9508 46.032 20.9625 46.0104 20.9683 45.9868C20.9683 45.9746 20.9683 45.9572 20.9514 45.9102C20.5499 46.0232 20.2235 46.2623 19.8983 46.5005C19.7224 46.6293 19.547 46.7579 19.3602 46.8661C19.2845 46.9099 19.2081 46.9529 19.1317 46.9959C18.6708 47.2554 18.2079 47.5159 17.8809 47.9699L17.8097 47.9003L18.452 47.1533C18.0298 47.247 17.64 47.4557 17.3234 47.7575C17.0255 48.0628 16.814 48.4456 16.7117 48.8649C16.6236 48.5167 16.7659 48.2189 16.9354 47.9525C17.1255 47.6848 17.3303 47.4284 17.5488 47.1847C16.7015 47.2247 16.1068 47.6914 15.5662 48.2537L15.5205 48.2015C15.5479 48.1656 15.5748 48.129 15.6017 48.0925C15.6661 48.005 15.7306 47.9174 15.8034 47.8376C16.2435 47.3785 16.8134 47.0739 17.4319 46.967C18.4028 46.7529 19.2619 46.2828 20.0855 45.7465C20.1023 45.7354 20.1123 45.7146 20.1222 45.6941C20.1262 45.6857 20.1302 45.6775 20.1346 45.6699C19.9075 45.4958 19.7957 45.5167 18.6502 45.9398C18.8061 45.7099 19.2721 45.3843 19.6025 45.3896C20.1239 45.4005 20.6009 45.2489 21.0802 45.0965L21.0802 45.0965L21.0805 45.0964L21.0806 45.0964C21.2149 45.0537 21.3494 45.0109 21.4851 44.9717C21.818 44.89 22.1627 44.8723 22.5018 44.9195C22.8157 44.9578 23.1339 44.9285 23.4361 44.8335C23.7384 44.7384 24.0181 44.5798 24.2573 44.3675C24.2738 44.3538 24.284 44.3316 24.3021 44.2924C24.3138 44.2672 24.3286 44.235 24.3505 44.1934C24.2567 44.2093 24.1662 44.2193 24.0798 44.2288C23.9008 44.2485 23.7387 44.2664 23.5982 44.331C22.9017 44.6548 22.207 44.5765 21.5105 44.3762C20.9438 44.214 20.3392 44.2672 19.8076 44.526C19.2983 44.7422 18.8319 45.0526 18.4316 45.4418C18.225 45.6537 17.9798 45.8216 17.71 45.936C17.4401 46.0504 17.151 46.1091 16.8591 46.1087C16.2009 46.1073 15.5553 46.2948 14.9952 46.6502L14.9477 46.5944C15.0436 46.4938 15.1467 46.4007 15.2561 46.3159C15.7471 46.0024 16.3133 45.8354 16.8913 45.8336C17.5335 45.8092 18.0419 45.5027 18.5011 44.963H18.2774C18.1526 44.9664 18.0278 44.9696 17.903 44.9728L17.8964 44.973C17.515 44.9828 17.1337 44.9926 16.7524 45.0083C16.3315 45.0136 15.9112 45.0427 15.4934 45.0953C15.3038 45.1512 15.1297 45.2519 14.985 45.3896C14.4207 45.8388 13.8141 46.1783 13.0719 46.2027C13.1898 46.1476 13.3093 46.0957 13.4292 46.0436C13.9349 45.8239 14.4472 45.6013 14.8732 45.1284H14.2682L14.2581 45.0884C14.3719 45.0489 14.485 45.0101 14.5983 44.9712C14.7398 44.9226 14.8817 44.874 15.0257 44.8237C15.3762 44.6893 15.733 44.5731 16.0949 44.4755C16.3384 44.4259 16.5884 44.4206 16.8337 44.4598C17.6734 44.5847 18.529 44.3996 19.2484 43.9375C19.673 43.6714 20.1669 43.5456 20.6633 43.5771C20.934 43.576 21.2043 43.5533 21.4716 43.5092C21.5076 43.499 21.5419 43.4831 21.5732 43.4621L21.5868 43.382L20.8802 43.2079C20.0448 42.9973 19.2602 43.1783 18.5079 43.537C18.0392 43.7497 17.5324 43.8594 17.0201 43.8591C16.7528 43.8662 16.4856 43.9036 16.2178 43.941L16.2175 43.9411L16.2173 43.9411L16.217 43.9411C16.0895 43.959 15.9618 43.9769 15.8339 43.9914C15.7862 43.9907 15.7386 43.986 15.6916 43.9775C15.9902 43.7507 16.349 43.6225 16.7202 43.6101C17.3446 43.6192 17.9627 43.4804 18.5265 43.2045C18.6054 43.1586 18.6813 43.1075 18.7536 43.0512C18.3777 42.9893 17.9931 43.0155 17.6284 43.1278C17.36 43.2112 17.0801 43.2494 16.7998 43.241C15.8051 43.1191 14.9647 43.4848 14.1733 44.0367C13.7589 44.3411 13.2447 44.4662 12.7415 44.3849C12.2704 44.3101 11.8027 44.223 11.3333 44.122C11.6776 44.0517 12.0323 44.0547 12.3755 44.1307C12.6609 44.1994 12.9573 44.2038 13.2445 44.1437C13.5318 44.0835 13.8029 43.9604 14.0395 43.7825C14.0898 43.7412 14.1379 43.697 14.1835 43.6502L11.9925 43.3855V43.3472C12.0344 43.3278 12.079 43.3155 12.1247 43.3107C12.3975 43.3107 12.6703 43.3107 12.9397 43.3403C13.6794 43.4331 14.4297 43.3176 15.1104 43.006C15.2016 42.9647 15.2894 42.926 15.3763 42.8877C15.451 42.8547 15.525 42.8221 15.6001 42.7883L15.5899 42.7256L5.43956 42.3869C10.9263 42.335 19.1305 42.3086 27.3805 42.3077C27.3202 41.3751 27.2707 40.4324 27.2239 39.5019C27.1793 38.6144 27.1545 37.7261 27.1297 36.8375C27.1188 36.447 27.1079 36.0564 27.0953 35.6658H26.9767C26.9321 36.4754 26.8878 37.2846 26.8431 38.1016C26.7887 39.0952 26.7337 40.1003 26.6767 41.1311C26.6341 40.9464 26.5951 40.7802 26.5584 40.6238C26.517 40.4476 26.4785 40.2836 26.441 40.1193C26.2404 39.2464 25.8461 38.4301 25.2873 37.7308C25.2313 37.6753 25.1958 37.6025 25.1866 37.5243C25.1773 37.446 25.1948 37.367 25.2362 37.2999C25.7043 36.3095 26.0603 35.2795 26.0949 34.2082L25.0532 36.813L24.9873 36.7932L24.8736 35.5271C24.8738 35.4795 24.8666 35.4322 24.8521 35.3868C24.6 34.8619 24.7401 34.4245 25.0565 33.954C25.6268 33.104 25.9828 32.1499 26.2828 31.1727C26.2828 31.1364 26.2828 31.0967 26.291 31.0538C26.2115 30.5514 26.0149 30.0747 25.7171 29.6626C25.4193 29.2505 25.0286 28.9145 24.5769 28.6818C24.5129 28.648 24.4522 28.6082 24.3956 28.563C22.7243 27.6898 21.0118 26.9288 20.1861 26.9668C18.7373 27.0328 24.3066 30.2879 24.3066 30.2879C24.3066 30.2879 16.56 28.8848 12.4264 24.1805C12.4264 24.1805 17.6479 25.3079 19.4493 24.9678C19.4493 24.9678 13.1038 24.2036 11.0056 21.9653C8.90744 19.727 9.91119 15.6399 9.91119 15.6399C10.372 16.8343 11.1536 17.8778 12.1697 18.655C13.1857 19.4322 14.3966 19.9129 15.6684 20.0439C15.6684 20.0439 9.9557 18.0433 10.8243 12.573C11.0518 11.1303 13.4136 8.21687 13.4136 8.21687C13.4136 8.21687 13.1153 12.3435 15.853 14.5389C15.853 14.5389 13.5455 10.031 15.675 6.83031C17.5144 4.0605 24.0099 3.62637 24.0099 3.62637C24.0099 3.62637 15.2744 6.22782 19.1049 14.9285C17.3924 22.9953 25.0384 23.0613 25.0384 23.0613C25.0384 23.0613 26.2531 22.2459 25.935 20.9683C25.5592 19.4563 24.4005 20.4318 24.4005 20.4318C24.4005 18.215 26.446 17.5002 26.446 17.5002C26.446 17.5002 25.3285 17.7379 24.9263 17.0479C24.9263 17.0479 25.546 17.4045 26.4097 16.1896C27.2734 14.9747 28.8144 14.9978 28.8144 14.9978C28.8144 14.9978 29.4737 15.1629 29.9566 15.0457C30.4395 14.9285 31.6048 14.7354 31.8603 15.3312C31.8603 15.3312 30.0028 15.3081 29.5281 16.2127C29.5174 16.233 29.5063 16.2542 29.4946 16.2763C28.9882 17.237 27.6182 19.8357 30.5747 21.9091C30.5747 21.9091 29.7885 22.1006 28.671 21.3132C28.6628 21.3132 28.4073 23.2825 29.5396 23.2379C38.9805 22.8715 36.5 14.9285 36.5 14.9285C40.3386 6.22782 31.5916 3.62637 31.5916 3.62637C31.5916 3.62637 38.0921 4.0605 39.9381 6.83031C42.0709 10.031 39.7601 14.5389 39.7601 14.5389C42.4978 12.3369 42.1995 8.21687 42.1995 8.21687C42.1995 8.21687 44.5613 11.1303 44.7888 12.573C45.6508 18.0433 39.9381 20.0439 39.9381 20.0439C41.2103 19.914 42.4217 19.4337 43.4379 18.6563C44.4541 17.879 45.2355 16.8349 45.6953 15.6399C45.6953 15.6399 46.7007 19.7237 44.6025 21.9603C42.5044 24.197 36.1605 24.9629 36.1605 24.9629C37.9603 25.3029 43.1818 24.1755 43.1818 24.1755C39.0465 28.8865 31.3016 30.283 31.3016 30.283C31.3016 30.283 36.8642 27.0279 35.4221 26.9618C34.7034 26.9288 33.2267 27.5561 31.6658 28.3467C31.5725 28.409 31.4724 28.4605 31.3675 28.5002C31.3334 28.5179 31.2991 28.5356 31.2647 28.5534C31.0546 28.662 30.8401 28.7728 30.639 28.8849C29.2248 29.8752 29.4407 31.5094 29.4407 31.5094C29.7782 32.5492 30.2533 33.5391 30.8532 34.4525C30.9076 34.5355 30.9326 34.6343 30.9241 34.7332C30.844 35.235 30.7559 35.735 30.6677 36.2359C30.636 36.4155 30.6044 36.5951 30.5731 36.775C30.5271 36.6709 30.4797 36.5648 30.4317 36.4573C30.2901 36.1404 30.1431 35.8113 30.0127 35.4859C29.8764 35.1459 29.7521 34.7989 29.6172 34.4221C29.5792 34.316 29.5403 34.2074 29.5001 34.096C29.5676 35.0732 29.744 35.9629 30.1594 36.7717C30.428 37.2933 30.4247 37.6779 30.0374 38.1533C29.4093 38.9217 29.2043 39.8825 29.0015 40.8326C28.9952 40.8622 28.9889 40.8919 28.9825 40.9215C28.9783 40.938 28.9737 40.9551 28.9686 40.9738C28.958 41.0131 28.9454 41.0597 28.9298 41.1245C28.8276 39.2774 28.7287 37.4733 28.6315 35.6773H28.5145C28.4873 37.8901 28.3944 40.1012 28.2359 42.3077C36.4812 42.3086 44.68 42.335 50.1648 42.3869L39.0859 42.7239C40.1586 43.4822 41.3243 43.3901 42.487 43.2982L42.4879 43.2982L42.4888 43.2981C42.5616 43.2924 42.6344 43.2866 42.7071 43.2811V43.3873L40.4263 43.6711C40.5225 43.7219 40.6131 43.7714 40.7003 43.8192L40.7004 43.8192L40.7007 43.8194L40.7011 43.8196C40.8857 43.9205 41.0553 44.0133 41.2312 44.0924C41.5529 44.2346 41.8838 44.1916 42.2181 44.1481L42.2716 44.1412C42.5126 44.1102 42.7639 44.0996 43.0211 44.0888L43.0213 44.0888L43.0214 44.0888H43.0215C43.1404 44.0838 43.2605 44.0787 43.3815 44.0715C43.372 44.1015 43.3663 44.1234 43.3623 44.1386C43.3571 44.1588 43.3549 44.1673 43.351 44.1673C43.1911 44.1945 43.0309 44.2198 42.8708 44.2452L42.8703 44.2452C42.5895 44.2897 42.3087 44.3341 42.0293 44.3884C41.3227 44.5242 40.7516 44.2143 40.1941 43.84C39.794 43.5399 39.3287 43.3445 38.8385 43.2706C38.6883 43.2476 38.5363 43.2383 38.3844 43.2428C37.8321 43.2765 37.2781 43.2177 36.7441 43.0686C36.4971 43.0267 36.2473 43.004 35.9969 43.0007L35.9765 43.0721C36.0136 43.1159 36.0571 43.1534 36.1053 43.1836C36.6814 43.4378 37.2677 43.6397 37.91 43.6119C38.0968 43.602 38.2837 43.6305 38.4597 43.6956C38.6357 43.7608 38.7974 43.8614 38.9351 43.9914C38.813 43.9532 38.6884 43.9236 38.5623 43.9026L38.5219 43.8988H38.5219H38.5218H38.5218C38.2419 43.8721 37.9591 43.8452 37.6778 43.8452C37.0914 43.8495 36.5118 43.7161 35.9833 43.4552C35.2324 43.0835 34.373 43.0151 33.5754 43.2637C33.4691 43.295 33.362 43.3237 33.2552 43.3522L33.2551 43.3523C33.2138 43.3633 33.1726 43.3744 33.1314 43.3855V43.4813C33.2775 43.5244 33.4257 43.5592 33.5754 43.5858C33.7445 43.6016 33.9147 43.6016 34.0838 43.5858C34.5604 43.5476 35.0362 43.6698 35.4394 43.934C36.1656 44.4169 37.0425 44.6004 37.8947 44.4476C38.403 44.3501 38.8911 44.5225 39.3655 44.7053C39.5825 44.7877 39.8007 44.8663 40.0342 44.9503L40.0346 44.9505L40.0358 44.9509L40.0372 44.9514C40.1875 45.0056 40.3442 45.062 40.511 45.1232H39.9213L39.8993 45.1876C40.3169 45.6688 40.8869 45.8816 41.4565 46.0943L41.4572 46.0945C41.5345 46.1234 41.6118 46.1523 41.6887 46.1818L41.6684 46.2567C41.3795 46.2101 41.0958 46.1349 40.8211 46.0321C40.4551 45.8536 40.1062 45.6402 39.779 45.3948C39.4796 45.1454 39.1101 45.0013 38.725 44.9839C38.5708 44.9839 38.4161 44.9936 38.2615 45.0033C38.0883 45.0141 37.915 45.025 37.7422 45.0222C37.4409 45.0222 37.1396 45.0043 36.8383 44.9864C36.7092 44.9787 36.5801 44.971 36.451 44.9647L36.2273 44.9508C36.279 45.0283 36.3356 45.1021 36.3968 45.1719C36.7964 45.585 37.3349 45.8249 37.9015 45.8423C38.4401 45.8467 38.9674 46.002 39.4265 46.2915C39.5538 46.3822 39.6749 46.4817 39.7892 46.5892L39.7536 46.6432L39.6472 46.5933L39.6471 46.5933L39.647 46.5933L39.6469 46.5932C39.5379 46.5423 39.4284 46.4911 39.3198 46.436C38.8799 46.2136 38.395 46.1014 37.9049 46.1087C37.6047 46.1177 37.3058 46.0646 37.026 45.9524C36.7462 45.8402 36.4913 45.6713 36.2764 45.4557C35.7475 44.9263 35.0997 44.5388 34.3905 44.3275C34.0249 44.2282 33.6399 44.2336 33.2772 44.3432C32.7231 44.4877 32.1707 44.6304 31.5979 44.4877C31.4267 44.4446 31.2575 44.3976 31.0884 44.3506L31.0881 44.3505L31.088 44.3504C30.9425 44.31 30.7972 44.2696 30.6507 44.2317C30.5386 44.2097 30.4255 44.194 30.3118 44.1847C30.3343 44.22 30.3515 44.2503 30.366 44.276C30.3931 44.3237 30.4113 44.3559 30.4389 44.3762C30.9828 44.7941 31.5742 45.0326 32.274 44.8986C32.8163 44.7952 33.312 44.978 33.811 45.1621L33.9279 45.205C34.1745 45.2977 34.4346 45.3472 34.6972 45.3513C34.9501 45.3479 35.201 45.3981 35.4342 45.4988C35.6675 45.5994 35.878 45.7484 36.0528 45.9363C35.9737 45.9064 35.895 45.8753 35.8163 45.8443L35.8161 45.8442L35.8158 45.844L35.8155 45.8439C35.6198 45.7666 35.4241 45.6894 35.2225 45.6299C35.0589 45.593 34.8916 45.5773 34.7243 45.5828C34.693 45.5828 34.6617 45.604 34.6304 45.6252L34.6303 45.6253C34.6159 45.635 34.6015 45.6448 34.587 45.6525C34.5964 45.6666 34.6046 45.6827 34.6128 45.6987C34.63 45.7322 34.6471 45.7655 34.6734 45.7796C34.8201 45.8592 34.9658 45.9412 35.1115 46.0232C35.5045 46.2444 35.8975 46.4657 36.3103 46.6397C36.6067 46.7647 36.9179 46.8518 37.2295 46.939L37.2295 46.939L37.2295 46.9391L37.2296 46.9391C37.465 47.005 37.7006 47.0709 37.9303 47.1533C38.4197 47.3443 38.8427 47.6807 39.1452 48.1197C39.1598 48.1385 39.1712 48.1597 39.1791 48.1824C39.1791 48.1945 39.1791 48.212 39.1588 48.259C38.6081 47.6966 38.0218 47.2143 37.1745 47.1795C37.3992 47.4435 37.6102 47.7196 37.8066 48.0065C37.904 48.1401 37.9723 48.2937 38.0068 48.4568C38.0413 48.62 38.0412 48.7888 38.0065 48.9519C37.8218 47.9316 37.144 47.418 36.2392 47.122L36.9017 47.9125C36.3096 47.4107 35.6555 47.0182 35.0039 46.6272C34.6448 46.4118 34.2865 46.1967 33.9397 45.9641C33.8711 45.9375 33.7993 45.9205 33.7262 45.9137C33.7415 45.9675 33.7638 46.019 33.7923 46.0669C33.882 46.1622 33.9699 46.2596 34.0577 46.3569L34.0578 46.357L34.0579 46.3571C34.4078 46.7447 34.7573 47.132 35.2259 47.3936C35.4152 47.5006 35.5786 47.65 35.7039 47.8309C35.8292 48.0118 35.9131 48.2194 35.9494 48.4383C36.008 48.7163 36.0806 48.9942 36.154 49.2756L36.154 49.2758C36.2186 49.5231 36.2838 49.773 36.3408 50.028C36.2552 49.9121 36.1808 49.7879 36.1189 49.6571C35.9781 49.3023 35.857 48.9395 35.7562 48.5706C35.6465 48.157 35.3895 47.8009 35.0361 47.573C34.7787 47.3867 34.5395 47.1731 34.2999 46.9592L34.2999 46.9591L34.2997 46.9589L34.2995 46.9588C34.2032 46.8728 34.1068 46.7867 34.0092 46.7024C33.9009 46.6088 33.7975 46.5104 33.6949 46.4128L33.6949 46.4128C33.4749 46.2035 33.2586 45.9976 33.0044 45.8492C32.747 45.6986 32.412 45.6881 32.0855 45.6779L32.0012 45.6751C32.1219 45.7604 32.2465 45.8386 32.3705 45.9164L32.3705 45.9165L32.3706 45.9165L32.3706 45.9165L32.3706 45.9165C32.6924 46.1186 33.0102 46.3181 33.245 46.631C32.9969 46.4934 32.7398 46.3736 32.4757 46.2723C32.1316 46.1668 31.7788 46.0939 31.4217 46.0547C30.8642 45.9944 30.3757 45.7548 29.8843 45.5138L29.8828 45.513L29.8819 45.5126C29.8349 45.4895 29.7879 45.4665 29.7407 45.4436C29.705 45.4265 29.6682 45.4119 29.6306 45.4C29.623 45.4 29.614 45.4043 29.596 45.4129L29.5763 45.4222L29.556 45.4314C29.5699 45.4484 29.5821 45.4662 29.5938 45.4833C29.6181 45.5187 29.6405 45.5513 29.6713 45.5689C29.8861 45.6946 30.1 45.8224 30.3141 45.9503L30.3143 45.9504L30.3146 45.9505L30.3148 45.9507L30.315 45.9508L30.315 45.9508C30.9129 46.3078 31.5113 46.6652 32.13 46.9792C32.3578 47.0918 32.6217 47.1316 32.8865 47.1715L32.8865 47.1715H32.8866C33.0314 47.1934 33.1765 47.2152 33.3161 47.2491C33.7599 47.3435 34.1567 47.5964 34.4362 47.963C33.8533 47.5225 33.1958 47.3779 32.4248 47.3936C32.4776 47.4907 32.5353 47.5849 32.5977 47.6757C32.9756 48.1388 33.5059 48.3286 34.0363 48.5149C34.2756 48.5973 34.5148 48.6692 34.7541 48.7412C34.8537 48.7711 34.9534 48.8011 35.053 48.8318L35.0445 48.8997L34.4854 48.8666L34.6809 49.3064C34.8704 49.7321 35.0563 50.1499 35.2394 50.5677L35.153 50.6147C35.0537 50.4671 34.9669 50.311 34.8937 50.1481C34.6243 49.3803 34.16 48.8405 33.35 48.6577C32.8688 48.5462 32.496 48.2346 32.1571 47.8881C32.08 47.8112 31.999 47.7381 31.9183 47.6653L31.918 47.665L31.887 47.6371C31.8577 47.6105 31.8285 47.584 31.7996 47.5573L31.7318 47.6043ZM23.7576 22.3218C19.1426 21.4354 20.2963 15.5871 20.2963 15.5871C20.5428 21.1601 23.6224 22.2729 23.7533 22.3202C23.7549 22.3208 23.7561 22.3212 23.7568 22.3215C23.7574 22.3217 23.7577 22.3218 23.7576 22.3218ZM35.5076 15.4154C35.5076 15.4154 35.0906 21.0128 32.2953 22.5133C32.2953 22.5199 36.274 21.8596 35.5076 15.4154Z" fill="url(#paint0_linear_29_84)"/>
<defs>
<linearGradient id="paint0_linear_29_84" x1="28.1038" y1="51.1771" x2="28.1038" y2="-0.243122" gradientUnits="userSpaceOnUse">
<stop stop-color="white"/>
<stop offset="1" stop-color="white"/>
</linearGradient>
</defs>
</svg>
