<svg width="91" height="91" viewBox="0 0 91 91" fill="none" xmlns="http://www.w3.org/2000/svg">
<path fill-rule="evenodd" clip-rule="evenodd" d="M91 45.5C91 70.629 70.629 91 45.5 91C20.371 91 0 70.629 0 45.5C0 20.371 20.371 0 45.5 0C70.629 0 91 20.371 91 45.5ZM52.5017 78.7635C52.5305 78.9281 52.5584 79.0909 52.5862 79.2525C52.6555 79.6564 52.7236 80.0533 52.8017 80.4545C52.9924 81.4286 53.4361 82.3314 54.0857 83.0674C54.3107 83.3056 54.4834 83.5906 54.5922 83.9031C54.701 84.2157 54.7434 84.5486 54.7166 84.8794C54.6826 84.7211 54.6308 84.5674 54.5624 84.4213C54.3238 83.9738 54.042 83.552 53.7213 83.1624C52.7624 82.1455 52.0195 81.0335 51.8092 79.5989C51.6942 78.8124 51.184 78.3083 50.5055 77.9713C50.3525 77.8965 50.1995 77.8242 50.0464 77.752L50.0454 77.7515L49.9197 77.6922L49.8158 77.6428L49.7653 77.7293L50.6989 79.0256L50.5952 79.1236C50.4404 78.9884 50.2823 78.8563 50.1242 78.7241C49.7296 78.3942 49.3342 78.0636 48.9859 77.6832C48.6409 77.3063 48.3394 76.9078 48.0377 76.509L48.0375 76.5088L48.0373 76.5085L48.0371 76.5083C47.9124 76.3435 47.7877 76.1786 47.6598 76.0152L47.5449 76.0584C47.5811 76.1973 47.614 76.3374 47.6468 76.4774C47.7183 76.7817 47.7897 77.0858 47.8953 77.3778C48.1427 78.0496 48.554 78.6448 49.0897 79.1063C49.1557 79.1643 49.2219 79.2222 49.2881 79.2801C49.6853 79.6276 50.0825 79.975 50.455 80.3479C50.7187 80.6258 50.9163 80.9625 51.0325 81.3318C51.1488 81.701 51.1804 82.0929 51.1251 82.4768C51.0045 83.9518 51.1027 84.4933 51.6858 85.7724C51.3905 85.5724 51.1693 85.2761 51.0578 84.9312C50.899 84.5896 50.7768 84.2312 50.6933 83.8625C50.6404 83.4489 50.6141 83.0322 50.6148 82.6151C50.2002 83.0884 49.8674 83.6311 49.6308 84.2197C49.4118 84.7756 49.2337 85.3476 49.0981 85.9309C48.9704 85.2667 49.0428 84.5783 49.3055 83.9575C49.4903 83.5396 49.6449 83.1082 49.7681 82.6669C49.8969 82.2713 49.9055 81.8447 49.7928 81.4439C49.6802 81.0431 49.4515 80.687 49.1373 80.4228C48.9102 80.2154 48.6663 80.0281 48.4224 79.8466C47.4579 79.112 46.9869 78.0721 46.6785 76.9284C46.6002 76.6727 46.4746 76.435 46.3085 76.2284C46.1555 76.9178 46.1993 77.638 46.4346 78.3025C46.7598 79.403 47.5561 80.1174 48.3579 80.8232C48.7087 81.1065 48.9629 81.4969 49.0841 81.9381L47.629 80.708L47.5084 80.8002C47.5451 80.9557 47.5939 81.1079 47.6542 81.2553C47.8315 81.6027 47.9271 81.988 47.9334 82.3802C47.9398 82.7724 47.8566 83.1606 47.6906 83.5139C47.5153 83.9557 47.3937 84.4196 47.2704 84.8896L47.2704 84.8897L47.2704 84.8898L47.2704 84.8899L47.2703 84.89C47.1847 85.2166 47.0983 85.5461 46.9925 85.8732C46.9858 85.4293 47.0101 84.9855 47.0654 84.5452C47.1377 84.1545 47.2486 83.7783 47.3598 83.4014L47.3599 83.4009C47.4126 83.2222 47.4653 83.0434 47.514 82.8628C47.7177 82.1182 47.3749 81.5198 47.0342 80.9247L46.9729 80.8175C46.9518 80.7951 46.9265 80.7775 46.8986 80.7656C46.8706 80.7537 46.8406 80.7478 46.8103 80.7483C46.7529 80.8116 46.7124 80.889 46.6926 80.973C46.632 81.3188 46.575 81.6645 46.518 82.0102C46.4326 82.5287 46.3471 83.0472 46.2496 83.5657C46.2496 83.6118 46.2019 83.655 46.0786 83.6925C46.0321 83.2353 46.0377 82.7742 46.0954 82.3184C46.3757 81.0854 46.3169 79.936 45.6384 78.847C45.5541 78.6704 45.4783 78.4897 45.4113 78.3054C45.3761 78.2396 45.3196 78.1886 45.2515 78.1614C45.2178 78.1614 45.1337 78.219 45.1113 78.2709C45.0291 78.4702 44.938 78.668 44.8468 78.8661C44.6269 79.3435 44.4066 79.8219 44.3095 80.3249C44.2256 80.7498 44.2788 81.2012 44.3321 81.6539L44.3322 81.654C44.3555 81.8519 44.3788 82.0501 44.3908 82.2463C44.4034 82.4766 44.4167 82.7069 44.43 82.9372C44.4433 83.1679 44.4566 83.3985 44.4693 83.6291L44.2786 83.6522L43.7179 80.7339C43.1964 81.094 42.7983 82.2204 42.9525 82.7937C42.9995 82.9684 43.0512 83.1498 43.104 83.3351L43.104 83.3353C43.2245 83.758 43.3507 84.2011 43.4403 84.6316C43.5034 85.0198 43.5034 85.416 43.4403 85.8041C43.358 85.501 43.2762 85.1979 43.1944 84.8951L43.194 84.8933L43.1935 84.8914L43.1923 84.8872C43.0883 84.5018 42.9844 84.1169 42.8796 83.7328C42.7605 83.4191 42.6585 83.0989 42.574 82.7735C42.4921 82.2752 42.5719 81.763 42.8011 81.3158C42.8597 81.1974 42.9067 81.076 42.9536 80.9549L42.9536 80.9548L42.9536 80.9547L42.9537 80.9546L42.9537 80.9545C42.9718 80.9078 42.9899 80.8611 43.0086 80.8146L42.8964 80.708L41.4722 81.8776L41.4021 81.8401C41.5458 81.5681 41.7128 81.3097 41.9011 81.0681C42.1046 80.8319 42.3479 80.6184 42.5903 80.4057C42.682 80.3253 42.7736 80.2449 42.8628 80.1635C43.9422 79.1812 44.3431 77.9252 44.2983 76.4876C44.2773 76.3745 44.2464 76.2637 44.2057 76.1564C44.1215 76.2791 44.0447 76.407 43.9758 76.5395C43.7346 77.2691 43.4461 77.9813 43.1123 78.6713C42.8056 79.1936 42.3947 79.6432 41.9067 79.9907C40.4825 80.999 40.3676 82.1282 41.0657 83.6666C41.4441 84.5049 41.5703 85.2251 41.3628 86C41.3264 84.7382 40.676 83.7703 39.961 82.8167C39.9033 83.367 39.8096 83.9127 39.6807 84.4501C39.5237 84.9572 39.3218 85.4786 38.8396 85.7926C39.2041 85.139 39.4153 84.4071 39.4564 83.655C39.4868 83.3678 39.4868 83.078 39.4564 82.7908C39.3498 82.2636 39.3921 81.7161 39.5784 81.2128C39.7646 80.7095 40.0871 80.2715 40.5077 79.9504C40.5669 79.9015 40.6263 79.8527 40.6858 79.8039L40.6866 79.8033L40.6888 79.8014C41.3927 79.2239 42.1063 78.6386 42.4703 77.7552C42.6276 77.3806 42.7456 76.9898 42.8637 76.5985C42.9181 76.4181 42.9726 76.2375 43.031 76.0584L42.8488 76.0008C42.4346 76.5914 41.991 77.1597 41.5198 77.7033C41.0086 78.1993 40.4734 78.6685 39.9162 79.1092L39.8293 79.04L40.704 77.7437C39.8993 77.7811 38.9377 78.6079 38.7414 79.4145C38.7085 79.5448 38.6763 79.6752 38.6441 79.8056L38.6441 79.8057L38.644 79.8058L38.644 79.8059C38.553 80.1743 38.4622 80.5423 38.3545 80.9039C38.161 81.5633 37.732 82.0524 37.3022 82.5424C37.1405 82.7267 36.9788 82.9111 36.8294 83.1048C36.5499 83.4653 36.2985 83.8487 36.0513 84.2257L36.0513 84.2258L36.0509 84.2263C35.9486 84.3824 35.847 84.5374 35.7444 84.6892C35.7206 84.5948 35.7206 84.4956 35.7444 84.4012C35.9209 83.9228 36.1564 83.4697 36.4453 83.053C37.2025 82.1435 37.6702 81.0175 37.7854 79.8265C37.8583 79.4556 37.9079 79.0804 37.934 78.703C37.8979 78.7292 37.8615 78.7552 37.8249 78.7813L37.8247 78.7814C37.7451 78.8382 37.6651 78.8953 37.5863 78.9565C37.4199 79.0849 37.2542 79.2145 37.0884 79.3441C36.6591 79.6796 36.2293 80.0156 35.7864 80.3335C35.5822 80.4608 35.3554 80.545 35.1192 80.5812C33.9332 80.8405 33.2912 81.6846 32.8398 82.7476C32.6874 83.1 32.4995 83.4351 32.2791 83.7472C32.3382 83.5596 32.3915 83.3697 32.4449 83.1801L32.4449 83.1799C32.6445 82.4701 32.8433 81.763 33.3388 81.1833C33.3961 81.0893 33.4378 80.9861 33.4622 80.878C33.3541 80.8494 33.243 80.8349 33.1314 80.8348C32.9699 80.8513 32.8099 80.8799 32.6492 80.9085L32.6489 80.9086L32.5438 80.9272C32.5163 80.932 32.4888 80.9367 32.4613 80.9413L32.4333 80.8059C32.6323 80.7446 32.8348 80.6851 33.0386 80.6252L33.0388 80.6251L33.039 80.6251L33.0407 80.6246C33.4104 80.5159 33.7844 80.4059 34.1491 80.2816C35.0406 79.9936 35.9266 79.6536 36.5546 78.8701C36.6219 78.7865 36.6892 78.703 36.7509 78.6166C36.7703 78.5519 36.7825 78.4852 36.7873 78.4178C35.638 78.3124 34.4917 78.6503 33.5715 79.3656L33.4986 79.2302C33.8051 78.9568 34.1387 78.7173 34.4939 78.5157C35.0034 78.2722 35.5461 78.11 36.1032 78.0346C36.9703 77.9318 37.8054 77.6369 38.5508 77.1704C39.2895 76.738 40.0152 76.2864 40.7415 75.8344L40.7421 75.8341L40.7481 75.8304C40.9099 75.7296 41.0718 75.6289 41.2339 75.5284C41.3675 75.4346 41.494 75.3306 41.6124 75.2172L41.5451 75.0991C41.4398 75.1466 41.3352 75.196 41.2305 75.2455C40.967 75.3699 40.7025 75.4948 40.4236 75.5917C39.8435 75.8344 39.2416 76.0177 38.6265 76.1391C37.5387 76.2889 36.4957 76.5309 35.5649 77.1531L35.4948 77.0494C35.5876 76.9739 35.6793 76.8965 35.7711 76.8192L35.7711 76.8191L35.7712 76.8191L35.7712 76.819C35.9874 76.6368 36.2038 76.4544 36.4341 76.2946C36.6547 76.1416 36.9057 76.0002 37.1795 75.8461L37.1798 75.8459C37.313 75.7709 37.4516 75.6929 37.5948 75.609C37.4905 75.5755 37.3835 75.5514 37.2751 75.537C36.8098 75.5257 36.3476 75.6185 35.9206 75.809C35.4936 75.9995 35.112 76.2832 34.8023 76.6403C34.0077 77.585 33.0886 78.4112 32.0716 79.0948C31.5909 79.4049 31.4661 79.9285 31.3434 80.4429L31.3433 80.4432C31.3179 80.5498 31.2926 80.656 31.2642 80.7599C31.1102 81.4742 30.7866 82.1383 30.3221 82.6929C30.3289 82.6747 30.3358 82.6566 30.3428 82.6384L30.3624 82.5881C30.3961 82.5019 30.43 82.4152 30.4539 82.327C30.5136 82.1082 30.5767 81.8898 30.6398 81.6714C30.7902 81.1509 30.9408 80.6298 31.0455 80.1002C31.1149 79.726 31.2668 79.3732 31.4893 79.0686C31.7119 78.764 31.9993 78.5158 32.3295 78.3429C33.0304 77.9385 33.5638 77.3539 34.0981 76.7682L34.0982 76.7681L34.0985 76.7677C34.2758 76.5734 34.4533 76.3789 34.6369 76.1909C34.6641 76.162 34.6834 76.1262 34.693 76.0872C34.693 76.0671 34.693 76.0382 34.665 75.9605C34.0008 76.1474 33.4607 76.5431 32.9226 76.9372L32.9225 76.9373L32.9224 76.9374L32.9223 76.9374C32.6315 77.1505 32.3412 77.3631 32.0323 77.542C31.9072 77.6145 31.7809 77.6856 31.6545 77.7568L31.6543 77.7569L31.6542 77.7569C30.8917 78.1862 30.1258 78.6173 29.5848 79.3684L29.467 79.2532L30.5296 78.0173C29.8312 78.1723 29.1862 78.5176 28.6624 79.017C28.1694 79.522 27.8196 80.1554 27.6503 80.8492C27.5045 80.273 27.74 79.7804 28.0203 79.3396C28.3348 78.8967 28.6737 78.4725 29.0353 78.0692C27.6334 78.1355 26.6494 78.9075 25.755 79.838L25.6793 79.7516C25.7248 79.6921 25.7693 79.6317 25.8138 79.5712L25.8138 79.5711C25.9203 79.4264 26.0269 79.2815 26.1475 79.1495C26.8757 78.3899 27.8185 77.8859 28.8418 77.7091C30.4483 77.3548 31.8697 76.577 33.2323 75.6897C33.2602 75.6712 33.2768 75.6368 33.2931 75.6029L33.2932 75.6027C33.2998 75.589 33.3063 75.5754 33.3136 75.5629C32.9379 75.2748 32.7529 75.3094 30.8576 76.0094C31.1156 75.6292 31.8866 75.0905 32.4333 75.0991C33.296 75.1171 34.0851 74.8663 34.8782 74.6142L34.8783 74.6142L34.8784 74.6142L34.8785 74.6141C35.1008 74.5435 35.3235 74.4727 35.5481 74.4077C36.0988 74.2725 36.6692 74.2432 37.2303 74.3213C37.7496 74.3847 38.2761 74.3362 38.7762 74.179C39.2763 74.0218 39.739 73.7592 40.1348 73.4081C40.1621 73.3853 40.1791 73.3487 40.209 73.2839L40.209 73.2838L40.2091 73.2835L40.2092 73.2832C40.2284 73.2417 40.253 73.1885 40.2891 73.12C40.1338 73.1463 39.9842 73.1628 39.8412 73.1785L39.8411 73.1786C39.5449 73.2112 39.2767 73.2408 39.0442 73.3476C37.8919 73.8834 36.7425 73.7538 35.5902 73.4225C34.6525 73.1541 33.6521 73.2421 32.7725 73.6702C31.9298 74.028 31.1582 74.5416 30.496 75.1855C30.1541 75.5361 29.7484 75.8139 29.3019 76.0032C28.8555 76.1926 28.3771 76.2896 27.8942 76.2889C26.8051 76.2866 25.7369 76.5969 24.8102 77.1848L24.7317 77.0926C24.8903 76.9261 25.0609 76.772 25.242 76.6317C26.0543 76.113 26.991 75.8367 27.9475 75.8337C29.01 75.7934 29.8511 75.2864 30.6109 74.3933H30.2408C30.0306 74.3991 29.8203 74.4045 29.61 74.4099L29.6085 74.4099C28.9782 74.4261 28.3479 74.4423 27.7176 74.4682C27.0212 74.4771 26.3257 74.5252 25.6345 74.6123C25.3209 74.7046 25.0328 74.8714 24.7934 75.0991C23.8598 75.8424 22.8561 76.4041 21.6281 76.4444C21.8231 76.3533 22.0209 76.2674 22.2193 76.1812C23.0559 75.8177 23.9035 75.4494 24.6083 74.667H23.6074L23.5906 74.6007C23.7779 74.5358 23.9641 74.4719 24.1506 74.4079L24.1531 74.407C24.3874 74.3267 24.6223 74.2461 24.8607 74.1629C25.4406 73.9404 26.031 73.7481 26.6297 73.5867C27.0326 73.5047 27.4463 73.4959 27.8521 73.5608C29.2414 73.7675 30.657 73.4612 31.8473 72.6965C32.5499 72.2563 33.367 72.0481 34.1883 72.1002C34.6363 72.0985 35.0834 72.0609 35.5257 71.9879C35.5853 71.971 35.6421 71.9448 35.6939 71.9101L35.7163 71.7776L34.5472 71.4895C33.165 71.1409 31.8669 71.4405 30.6221 72.034C29.8467 72.3858 29.0082 72.5673 28.1605 72.5669C27.7183 72.5786 27.2762 72.6405 26.8331 72.7024C26.6216 72.732 26.41 72.7616 26.198 72.7858C26.119 72.7846 26.0403 72.7769 25.9625 72.7628C26.4566 72.3874 27.0501 72.1754 27.6643 72.155C28.6975 72.17 29.7201 71.9403 30.653 71.4837C30.7835 71.4079 30.9091 71.3232 31.0287 71.2302C30.4067 71.1278 29.7704 71.1712 29.167 71.357C28.7228 71.4949 28.2599 71.5581 27.7961 71.5442C26.1503 71.3426 24.7597 71.9475 23.4504 72.8607C22.7647 73.3644 21.914 73.5713 21.0814 73.4369C20.3019 73.313 19.5281 73.169 18.7515 73.0019C19.3212 72.8856 19.908 72.8905 20.4758 73.0163C20.948 73.1298 21.4385 73.1371 21.9137 73.0377C22.3889 72.9382 22.8376 72.7344 23.2289 72.4402C23.3123 72.3718 23.3918 72.2987 23.4672 72.2212L19.8421 71.7833V71.72C19.9114 71.6878 19.9852 71.6674 20.0608 71.6595C20.5122 71.6595 20.9636 71.6595 21.4094 71.7084C22.6332 71.8621 23.8746 71.6709 25.0008 71.1553C25.1513 71.0873 25.2961 71.0234 25.4396 70.9601L25.4411 70.9595L25.4419 70.9591C25.565 70.9048 25.6872 70.8509 25.8111 70.7952L25.7943 70.6915L9 70.1311C18.078 70.0452 31.6523 70.0015 45.3023 70C45.2024 68.4569 45.1206 66.8972 45.0432 65.3577C44.9693 63.8893 44.9283 62.4195 44.8873 60.9493C44.8693 60.3032 44.8513 59.6569 44.8305 59.0107H44.6341C44.5603 60.3501 44.487 61.689 44.4131 63.0407C44.3231 64.6848 44.2321 66.3477 44.1378 68.0533C44.0673 67.7476 44.0028 67.4727 43.942 67.2138C43.8736 66.9223 43.81 66.6511 43.7479 66.3792C43.4159 64.935 42.7635 63.5843 41.8389 62.4273C41.7464 62.3355 41.6877 62.2151 41.6723 62.0856C41.657 61.9562 41.6859 61.8253 41.7544 61.7144C42.5289 60.0758 43.1179 58.3716 43.1752 56.5991L41.4517 60.9088L41.3426 60.876L41.1544 58.7812C41.1549 58.7025 41.1429 58.6241 41.119 58.5491C40.7018 57.6806 40.9336 56.9569 41.4572 56.1785C42.4007 54.772 42.9897 53.1934 43.4861 51.5766V51.5766C43.4861 51.5165 43.4861 51.451 43.4997 51.38C43.3682 50.5486 43.0428 49.76 42.5501 49.0782C42.0573 48.3963 41.411 47.8403 40.6636 47.4554C40.5577 47.3994 40.4572 47.3336 40.3636 47.2587C37.5984 45.814 34.765 44.5549 33.3988 44.6178C31.0017 44.727 40.2164 50.1127 40.2164 50.1127C40.2164 50.1127 27.3993 47.7913 20.56 40.0077C20.56 40.0077 29.1992 41.873 32.1798 41.3104C32.1798 41.3104 21.6808 40.0459 18.2093 36.3425C14.7378 32.6392 16.3985 25.8769 16.3985 25.8769C17.1609 27.8531 18.4542 29.5796 20.1353 30.8655C21.8163 32.1515 23.8198 32.9468 25.924 33.1635C25.924 33.1635 16.4722 29.8534 17.9093 20.8026C18.2856 18.4156 22.1934 13.5952 22.1934 13.5952C22.1934 13.5952 21.6999 20.4229 26.2294 24.0553C26.2294 24.0553 22.4116 16.5967 25.9349 11.3011C28.9783 6.71828 39.7255 6 39.7255 6C39.7255 6 25.2723 10.3042 31.6099 24.6998C28.7765 38.0467 41.4272 38.156 41.4272 38.156C41.4272 38.156 43.437 36.8068 42.9107 34.6929C42.2889 32.1913 40.3718 33.8053 40.3718 33.8053C40.3718 30.1375 43.756 28.9549 43.756 28.9549C43.756 28.9549 41.9071 29.3482 41.2417 28.2066C41.2417 28.2066 42.2671 28.7965 43.696 26.7864C45.125 24.7763 47.6748 24.8146 47.6748 24.8146C47.6748 24.8146 48.7656 25.0877 49.5646 24.8938C50.3636 24.6998 52.2916 24.3803 52.7143 25.3662C52.7143 25.3662 49.641 25.328 48.8556 26.8246C48.8379 26.8583 48.8194 26.8933 48.8002 26.9299C47.9622 28.5193 45.6955 32.819 50.5872 36.2497C50.5872 36.2497 49.2864 36.5665 47.4375 35.2637C47.4239 35.2637 47.0012 38.5219 48.8747 38.4482C64.4951 37.8419 60.3909 24.6998 60.3909 24.6998C66.7421 10.3042 52.2698 6 52.2698 6C52.2698 6 63.0252 6.71828 66.0795 11.3011C69.6082 16.5967 65.7849 24.0553 65.7849 24.0553C70.3145 20.412 69.8209 13.5952 69.8209 13.5952C69.8209 13.5952 73.7288 18.4156 74.1051 20.8026C75.5313 29.8534 66.0795 33.1635 66.0795 33.1635C68.1843 32.9486 70.1885 32.154 71.8699 30.8678C73.5513 29.5816 74.8441 27.8541 75.6049 25.8769C75.6049 25.8769 77.2684 32.6337 73.7969 36.3343C70.3254 40.035 59.8291 41.3022 59.8291 41.3022C62.807 41.8648 71.4462 39.9995 71.4462 39.9995C64.6041 47.794 51.7898 50.1045 51.7898 50.1045C51.7898 50.1045 60.9936 44.7188 58.6074 44.6096C57.4184 44.5549 54.975 45.5928 52.3925 46.901C52.2381 47.004 52.0725 47.0892 51.8989 47.155C51.8425 47.1842 51.7857 47.2135 51.7287 47.243C51.3811 47.4226 51.0263 47.6059 50.6936 47.7913C48.3538 49.43 48.711 52.1337 48.711 52.1337C49.2694 53.8542 50.0555 55.4919 51.0481 57.0033C51.1381 57.1405 51.1794 57.304 51.1654 57.4676C51.0329 58.298 50.8871 59.1254 50.741 59.9542C50.6887 60.2512 50.6363 60.5484 50.5845 60.846C50.5085 60.6737 50.4301 60.4981 50.3506 60.3202C50.1164 59.7958 49.8731 59.2513 49.6573 58.713C49.4318 58.1505 49.2262 57.5763 49.003 56.953C48.9401 56.7773 48.8758 56.5977 48.8092 56.4134C48.921 58.0302 49.2128 59.5023 49.9 60.8405C50.3445 61.7035 50.3391 62.3399 49.6982 63.1264C48.659 64.3977 48.3198 65.9874 47.9843 67.5593C47.9739 67.6084 47.9634 67.6574 47.9529 67.7065C47.9459 67.7338 47.9383 67.762 47.9299 67.793C47.9123 67.858 47.8915 67.9352 47.8657 68.0424C47.6966 64.9863 47.533 62.0012 47.3721 59.0298H47.1785C47.1335 62.6909 46.9798 66.3493 46.7175 70C60.3599 70.0015 73.9252 70.0452 83 70.1311L64.6694 70.6886C66.4443 71.9432 68.3729 71.7909 70.2966 71.6389C70.4181 71.6293 70.5395 71.6197 70.6608 71.6105V71.7862L66.8871 72.2558C67.0461 72.3398 67.1959 72.4217 67.3401 72.5006L67.3406 72.5008C67.6465 72.6681 67.9275 72.8218 68.2189 72.9529C68.7512 73.1881 69.2987 73.117 69.8517 73.0451L69.9403 73.0336C70.3392 72.9824 70.7551 72.9648 71.1809 72.9469C71.3776 72.9386 71.5765 72.9302 71.7767 72.9184C71.761 72.9679 71.7515 73.0042 71.745 73.0294C71.7363 73.0628 71.7326 73.0768 71.7262 73.0768C71.4616 73.1218 71.1967 73.1637 70.9318 73.2056L70.9312 73.2057C70.4664 73.2792 70.0017 73.3528 69.5394 73.4427C68.3702 73.6674 67.4254 73.1546 66.503 72.5352C65.8409 72.0387 65.0711 71.7154 64.2601 71.5932C64.0115 71.5551 63.76 71.5397 63.5087 71.5471C62.5949 71.6029 61.6783 71.5056 60.7948 71.259C60.3861 71.1896 59.9727 71.152 59.5584 71.1467L59.5248 71.2648C59.5862 71.3371 59.658 71.3993 59.7379 71.4492C60.6911 71.8698 61.6612 72.2039 62.7237 72.1578C63.0329 72.1415 63.3421 72.1886 63.6334 72.2964C63.9246 72.4042 64.192 72.5706 64.4199 72.7858C64.2178 72.7226 64.0117 72.6735 63.8031 72.6389L63.7361 72.6325L63.736 72.6325C63.2728 72.5884 62.805 72.5439 62.3396 72.5439C61.3694 72.5511 60.4105 72.3303 59.536 71.8986C58.2936 71.2835 56.8717 71.1704 55.552 71.5817C55.3767 71.6335 55.1999 71.6807 55.0238 71.7279L55.0233 71.728L55.0228 71.7281L55.0223 71.7283C54.9539 71.7466 54.8856 71.7648 54.8175 71.7833V71.9418C55.0591 72.013 55.3043 72.0707 55.552 72.1146C55.8318 72.1409 56.1133 72.1409 56.3931 72.1146C57.1818 72.0515 57.9691 72.2537 58.636 72.6908C59.8376 73.4899 61.2885 73.7934 62.6985 73.5406C63.5396 73.3793 64.347 73.6645 65.132 73.967C65.4905 74.1031 65.851 74.2329 66.2366 74.3717L66.238 74.3722L66.239 74.3726C66.4891 74.4627 66.7498 74.5565 67.0273 74.6584H66.0517L66.0152 74.7649C66.7062 75.5612 67.6492 75.9132 68.5917 76.2651C68.72 76.313 68.8482 76.3609 68.9758 76.4099L68.9422 76.5337C68.4643 76.4567 67.9949 76.3323 67.5404 76.1621C66.9348 75.8669 66.3575 75.5138 65.8161 75.1078C65.3207 74.6951 64.7094 74.4568 64.0723 74.4279C63.8172 74.4279 63.5615 74.4439 63.3057 74.4599H63.3056H63.3055H63.3054C63.0188 74.4779 62.7321 74.4958 62.4462 74.4913C61.9477 74.4913 61.4492 74.4616 60.9507 74.432C60.7371 74.4193 60.5234 74.4066 60.3098 74.3962L59.9397 74.3732C60.0252 74.5013 60.1189 74.6235 60.2201 74.739C60.8813 75.4225 61.7723 75.8194 62.7097 75.8481C63.6009 75.8555 64.4733 76.1125 65.233 76.5914C65.4435 76.7415 65.644 76.9061 65.833 77.084L65.7741 77.1733L65.7084 77.1424L65.5976 77.0906L65.5971 77.0903C65.4169 77.0061 65.2358 76.9216 65.0564 76.8305C64.3286 76.4625 63.5263 76.2769 62.7153 76.2889C62.2186 76.3039 61.7241 76.216 61.2612 76.0304C60.7983 75.8448 60.3765 75.5653 60.021 75.2086C59.1458 74.3325 58.0741 73.6914 56.9006 73.3418C56.2958 73.1775 55.6588 73.1865 55.0586 73.3678C54.1418 73.6069 53.2278 73.8431 52.2802 73.6069C51.9972 73.5357 51.7174 73.4579 51.4378 73.3801L51.4369 73.3799L51.4367 73.3799C51.196 73.3129 50.9554 73.246 50.713 73.1834C50.5276 73.147 50.3404 73.121 50.1522 73.1056C50.1895 73.1641 50.2179 73.2141 50.242 73.2566C50.2868 73.3356 50.3169 73.3888 50.3625 73.4225C51.2625 74.1139 52.2409 74.5086 53.3988 74.2867C54.2961 74.1157 55.1161 74.4182 55.9418 74.7227L56.0345 74.7568L56.1352 74.7937C56.5433 74.9472 56.9736 75.029 57.408 75.0357C57.8265 75.0302 58.2417 75.1133 58.6276 75.2798C59.0135 75.4463 59.3618 75.6927 59.651 76.0037C59.5196 75.954 59.3889 75.9024 59.2582 75.8508C58.9344 75.723 58.6108 75.5952 58.2772 75.4967C58.0066 75.4358 57.7297 75.4096 57.4529 75.4189C57.4011 75.4189 57.3493 75.4539 57.2975 75.489C57.2736 75.5052 57.2497 75.5214 57.2258 75.5341C57.2412 75.5574 57.2549 75.5841 57.2685 75.6106C57.297 75.666 57.3252 75.721 57.3688 75.7444C57.6115 75.8761 57.8525 76.0118 58.0936 76.1475C58.7437 76.5135 59.394 76.8796 60.0771 77.1675C60.5674 77.3743 61.0823 77.5184 61.5979 77.6628C61.9874 77.7718 62.3773 77.881 62.7574 78.0173C63.5671 78.3333 64.267 78.8899 64.7676 79.6162C64.7916 79.6474 64.8106 79.6824 64.8237 79.7199C64.8237 79.7401 64.8237 79.7689 64.79 79.8466C63.8788 78.9162 62.9088 78.1182 61.507 78.0606C61.8787 78.4975 62.2277 78.9543 62.5527 79.4289C62.7139 79.65 62.8268 79.9041 62.8839 80.174C62.941 80.444 62.9409 80.7233 62.8835 80.9932C62.5779 79.3051 61.4565 78.4552 59.9593 77.9655L61.0556 79.2734C60.0759 78.4432 58.9936 77.7938 57.9155 77.1469L57.9154 77.1468C57.3214 76.7903 56.7285 76.4346 56.1548 76.0498C56.0413 76.0057 55.9224 75.9776 55.8016 75.9662C55.8269 76.0553 55.8637 76.1406 55.9109 76.2197C56.0595 76.3777 56.205 76.5388 56.3504 76.7C56.9292 77.3413 57.5075 77.9821 58.2828 78.4149C58.5961 78.5918 58.8665 78.8392 59.0737 79.1385C59.281 79.4377 59.4199 79.7812 59.4799 80.1434C59.5769 80.6033 59.6969 81.0632 59.8184 81.5288L59.8185 81.529L59.8185 81.5291L59.8187 81.5297L59.8187 81.5299C59.9254 81.9388 60.0332 82.3521 60.1276 82.7735C59.9858 82.5819 59.8628 82.3764 59.7603 82.1599C59.5273 81.5729 59.327 80.9727 59.1603 80.3623C58.9788 79.6779 58.5535 79.0887 57.9688 78.7116C57.543 78.4035 57.1471 78.05 56.7507 77.696L56.7505 77.6958C56.591 77.5534 56.4314 77.4109 56.2698 77.2712C56.0905 77.1164 55.9195 76.9536 55.7497 76.7921C55.3858 76.4458 55.0278 76.1052 54.6072 75.8596C54.1813 75.6103 53.6272 75.593 53.0869 75.5761L53.0284 75.5742L52.9475 75.5716C53.1471 75.7126 53.3533 75.8421 53.5585 75.9709L53.5586 75.971C54.091 76.3052 54.6168 76.6354 55.0053 77.1531C54.5948 76.9255 54.1695 76.7272 53.7325 76.5597C53.1631 76.385 52.5794 76.2645 51.9886 76.1996C51.0663 76.0998 50.258 75.7034 49.445 75.3046L49.445 75.3046L49.3592 75.2626L49.2074 75.1884C49.1483 75.1602 49.0874 75.1361 49.0252 75.1164C49.0126 75.1164 48.9977 75.1235 48.9679 75.1377L48.9679 75.1377C48.9512 75.1457 48.9299 75.1559 48.9018 75.1683C48.9247 75.1965 48.9449 75.2259 48.9643 75.2542C49.0045 75.3128 49.0415 75.3667 49.0925 75.3958C49.4477 75.6038 49.8016 75.8151 50.1556 76.0265L50.1573 76.0275L50.1574 76.0276L50.1575 76.0276L50.1576 76.0277C51.1468 76.6184 52.137 77.2098 53.1605 77.7293C53.5375 77.9155 53.9741 77.9813 54.4122 78.0474L54.4124 78.0474C54.652 78.0836 54.8921 78.1198 55.1231 78.1758C55.8573 78.332 56.5139 78.7505 56.9763 79.3569C56.0118 78.6281 54.924 78.389 53.6484 78.4149C53.7356 78.5755 53.8311 78.7313 53.9343 78.8816C54.5596 79.6479 55.4371 79.9619 56.3146 80.2701C56.7101 80.4063 57.1056 80.5252 57.5011 80.6441L57.5012 80.6442L57.5013 80.6442L57.5019 80.6444C57.6669 80.694 57.8318 80.7436 57.9968 80.7944L57.9828 80.9068L57.0576 80.852C57.1664 81.097 57.2745 81.3399 57.3819 81.5813C57.6951 82.2851 58.0025 82.9758 58.3052 83.6666L58.1622 83.7443C57.9979 83.5001 57.8544 83.2418 57.7333 82.9723C57.2875 81.7019 56.5193 80.8088 55.1791 80.5063C54.3829 80.322 53.7661 79.8063 53.2054 79.233C53.0778 79.1058 52.944 78.9851 52.8106 78.8647L52.8103 78.8644L52.7273 78.7894C52.6893 78.755 52.6514 78.7204 52.6138 78.6857L52.5017 78.7635ZM39.308 36.9324C31.6723 35.4658 33.5812 25.7896 33.5812 25.7896C33.9891 35.0103 39.0844 36.8515 39.3009 36.9298L39.3011 36.9299C39.306 36.9316 39.3083 36.9324 39.308 36.9324ZM58.7489 25.5055C58.7489 25.5055 58.059 34.7667 53.434 37.2493C53.434 37.2602 60.017 36.1677 58.7489 25.5055Z" fill="url(#paint0_linear_25_35)"/>
<defs>
<linearGradient id="paint0_linear_25_35" x1="46.499" y1="84.6749" x2="46.499" y2="-0.402257" gradientUnits="userSpaceOnUse">
<stop stop-color="white"/>
<stop offset="1" stop-color="white"/>
</linearGradient>
</defs>
</svg>
