<svg width="91" height="91" viewBox="0 0 91 91" fill="none" xmlns="http://www.w3.org/2000/svg">
<path fill-rule="evenodd" clip-rule="evenodd" d="M45.5 91C70.629 91 91 70.629 91 45.5C91 20.371 70.629 0 45.5 0C20.371 0 0 20.371 0 45.5C0 70.629 20.371 91 45.5 91ZM48.8732 37.4482C64.4936 36.8419 60.3894 23.6998 60.3894 23.6998C66.7407 9.30421 52.2683 5 52.2683 5C52.2683 5 63.0237 5.71828 66.078 10.3011C69.6068 15.5967 65.7835 23.0553 65.7835 23.0553C70.3131 19.412 69.8195 12.5952 69.8195 12.5952C69.8195 12.5952 73.7273 17.4156 74.1036 19.8026C75.5299 28.8534 66.078 32.1635 66.078 32.1635C68.1828 31.9486 70.1871 31.154 71.8685 29.8678C73.5499 28.5816 74.8427 26.8541 75.6035 24.8769C75.6035 24.8769 77.267 31.6337 73.7955 35.3343C70.324 39.035 59.8276 40.3022 59.8276 40.3022C62.8056 40.8648 71.4448 38.9995 71.4448 38.9995C64.6027 46.794 51.7884 49.1045 51.7884 49.1045C51.7884 49.1045 60.9921 43.7188 58.6059 43.6096C57.417 43.5549 54.9735 44.5928 52.3911 45.901C52.2366 46.004 52.071 46.0892 51.8975 46.155L51.7272 46.243C51.3797 46.4226 51.0248 46.6059 50.6921 46.7913C48.3523 48.43 48.7096 51.1337 48.7096 51.1337C49.268 52.8542 50.054 54.4919 51.0466 56.0033C51.1366 56.1405 51.1779 56.304 51.1639 56.4676C51.0314 57.2978 50.8856 58.1251 50.7396 58.9538L50.7395 58.9542C50.6872 59.2512 50.6348 59.5484 50.583 59.846C50.507 59.6737 50.4286 59.4981 50.3491 59.3202C50.1149 58.7958 49.8717 58.2513 49.6558 57.713C49.4304 57.1505 49.2248 56.5764 49.0016 55.9531L49.0015 55.953C48.9386 55.7773 48.8743 55.5977 48.8077 55.4134C48.9196 57.0302 49.2113 58.5023 49.8986 59.8405C50.3431 60.7035 50.3376 61.3399 49.6968 62.1264C48.6575 63.3977 48.3183 64.9874 47.9829 66.5593L47.9515 66.7065C47.9444 66.7338 47.9368 66.762 47.9284 66.793C47.9109 66.858 47.89 66.9352 47.8642 67.0424C47.6951 63.9863 47.5315 61.0012 47.3706 58.0298H47.177C47.1279 62.0252 46.9493 66.0174 46.6415 70C60.3094 70.0014 73.9083 70.045 83 70.1311L64.6694 70.6886C66.4443 71.9433 68.3729 71.7909 70.2967 71.6389L70.2985 71.6387C70.3884 71.6317 70.4782 71.6246 70.568 71.6176C70.599 71.6152 70.6299 71.6128 70.6608 71.6105V71.7862L66.8871 72.2558C67.0462 72.3398 67.1961 72.4218 67.3405 72.5008C67.6464 72.6681 67.9274 72.8218 68.2189 72.9529C68.7512 73.1881 69.2987 73.117 69.8517 73.0451L69.9403 73.0336C70.3391 72.9824 70.755 72.9648 71.1808 72.9469H71.1809C71.3776 72.9386 71.5764 72.9302 71.7767 72.9184C71.7671 72.9487 71.7598 72.9741 71.7541 72.995C71.7505 73.0082 71.7475 73.0196 71.745 73.0294C71.7363 73.0628 71.7326 73.0768 71.7262 73.0768C71.4615 73.1218 71.1965 73.1637 70.9315 73.2057C70.4666 73.2792 70.0019 73.3528 69.5394 73.4427C68.3702 73.6674 67.4254 73.1546 66.503 72.5352C65.8409 72.0387 65.0711 71.7154 64.2601 71.5932C64.0115 71.5551 63.76 71.5397 63.5087 71.5471C62.5949 71.6029 61.6783 71.5056 60.7948 71.259C60.3861 71.1896 59.9727 71.152 59.5584 71.1467L59.5248 71.2648C59.5862 71.3371 59.658 71.3993 59.7379 71.4492C60.6911 71.8698 61.6612 72.2039 62.7237 72.1578C63.0329 72.1415 63.3421 72.1886 63.6334 72.2964C63.9246 72.4043 64.192 72.5706 64.4199 72.7859C64.2178 72.7226 64.0117 72.6735 63.8031 72.6389L63.7363 72.6326C63.2731 72.5884 62.8051 72.5439 62.3396 72.5439C61.3694 72.5511 60.4105 72.3303 59.536 71.8986C58.2936 71.2835 56.8717 71.1704 55.552 71.5817C55.3766 71.6335 55.1997 71.6808 55.0234 71.7279L55.023 71.7281L55.0227 71.7282L55.0221 71.7283C54.9538 71.7466 54.8855 71.7649 54.8175 71.7833V71.9418C55.0591 72.013 55.3043 72.0707 55.552 72.1146C55.8318 72.1409 56.1133 72.1409 56.3931 72.1146C57.1818 72.0515 57.9691 72.2537 58.636 72.6908C59.8376 73.4899 61.2885 73.7934 62.6985 73.5406C63.5396 73.3793 64.347 73.6645 65.132 73.967C65.4903 74.1031 65.8507 74.2328 66.2361 74.3716L66.2377 74.3722L66.239 74.3726L66.2406 74.3732C66.4902 74.4631 66.7504 74.5567 67.0273 74.6584H66.0517L66.0152 74.7649C66.7062 75.5612 67.6492 75.9132 68.5917 76.2651C68.72 76.313 68.8482 76.3609 68.9758 76.4099L68.9422 76.5337C68.4643 76.4567 67.9949 76.3323 67.5404 76.1621C66.9348 75.8669 66.3575 75.5139 65.8161 75.1078C65.3207 74.6951 64.7094 74.4568 64.0723 74.4279C63.8172 74.4279 63.5615 74.4439 63.3057 74.4599H63.3056H63.3055H63.3054C63.0188 74.4779 62.7321 74.4958 62.4462 74.4913C61.9476 74.4913 61.4491 74.4616 60.9506 74.432C60.737 74.4193 60.5234 74.4066 60.3098 74.3962L59.9397 74.3732C60.0252 74.5013 60.1189 74.6235 60.2201 74.739C60.8813 75.4225 61.7723 75.8194 62.7097 75.8481C63.6009 75.8555 64.4733 76.1125 65.233 76.5914C65.4435 76.7415 65.644 76.9061 65.833 77.084L65.7741 77.1733L65.6597 77.1196L65.5976 77.0906L65.5973 77.0905C65.417 77.0062 65.2359 76.9216 65.0564 76.8305C64.3286 76.4625 63.5263 76.2769 62.7153 76.2889C62.2186 76.3039 61.7241 76.216 61.2612 76.0304C60.7983 75.8448 60.3765 75.5653 60.021 75.2086C59.1458 74.3325 58.0741 73.6914 56.9006 73.3418C56.2958 73.1775 55.6588 73.1865 55.0586 73.3678C54.1418 73.6069 53.2278 73.8431 52.2802 73.6069C51.9968 73.5356 51.7167 73.4577 51.4367 73.3799L51.4364 73.3798L51.4362 73.3797C51.1957 73.3128 50.9552 73.246 50.713 73.1834C50.5276 73.147 50.3404 73.121 50.1522 73.1056C50.1895 73.164 50.2178 73.214 50.2419 73.2565L50.242 73.2566C50.2868 73.3356 50.3169 73.3888 50.3625 73.4225C51.2625 74.1139 52.2409 74.5086 53.3988 74.2867C54.2961 74.1157 55.1162 74.4182 55.9418 74.7227L55.9439 74.7234L55.946 74.7242C55.976 74.7353 56.0061 74.7464 56.0363 74.7575C56.0692 74.7696 56.1022 74.7817 56.1352 74.7938C56.5433 74.9472 56.9736 75.029 57.408 75.0357C57.8265 75.0302 58.2417 75.1133 58.6276 75.2798C59.0135 75.4463 59.3618 75.6927 59.651 76.0037C59.5198 75.9541 59.3894 75.9026 59.2589 75.8511L59.2584 75.8509L59.2581 75.8508C58.9343 75.7229 58.6107 75.5952 58.2772 75.4967C58.0066 75.4358 57.7297 75.4096 57.4529 75.4189C57.4011 75.4189 57.3493 75.4539 57.2975 75.489C57.2736 75.5052 57.2497 75.5214 57.2258 75.5341C57.2412 75.5574 57.2549 75.5841 57.2685 75.6106C57.297 75.666 57.3252 75.721 57.3688 75.7444C57.6115 75.8761 57.8526 76.0118 58.0937 76.1476C58.7438 76.5136 59.394 76.8796 60.0771 77.1675C60.5673 77.3743 61.0821 77.5184 61.5976 77.6627L61.5977 77.6627L61.5978 77.6627L61.5978 77.6628C61.9874 77.7718 62.3773 77.881 62.7574 78.0173C63.5671 78.3333 64.267 78.8899 64.7676 79.6162C64.7916 79.6474 64.8106 79.6824 64.8237 79.7199C64.8237 79.7401 64.8237 79.7689 64.79 79.8466C63.8788 78.9162 62.9088 78.1182 61.507 78.0606C61.8787 78.4975 62.2277 78.9543 62.5527 79.4289C62.7139 79.65 62.8268 79.9041 62.8839 80.174C62.941 80.444 62.9409 80.7233 62.8835 80.9932C62.5779 79.3051 61.4565 78.4552 59.9593 77.9655L61.0556 79.2734C60.0759 78.4432 58.9937 77.7938 57.9156 77.1469L57.9156 77.1469L57.9155 77.1468L57.9153 77.1467C57.3212 76.7902 56.7285 76.4345 56.1548 76.0498C56.0413 76.0057 55.9224 75.9776 55.8016 75.9662C55.8269 76.0553 55.8637 76.1406 55.9109 76.2197C56.0595 76.3777 56.205 76.5388 56.3504 76.7C56.9292 77.3413 57.5075 77.9821 58.2828 78.4149C58.5961 78.5918 58.8665 78.8392 59.0737 79.1385C59.281 79.4377 59.4199 79.7812 59.4799 80.1434C59.5769 80.6034 59.697 81.0634 59.8185 81.529L59.8185 81.5292C59.9253 81.9383 60.0332 82.3518 60.1276 82.7735C59.9858 82.5819 59.8628 82.3764 59.7603 82.1599C59.5273 81.5729 59.327 80.9727 59.1603 80.3623C58.9788 79.6779 58.5535 79.0887 57.9688 78.7116C57.543 78.4035 57.1471 78.05 56.7507 77.696L56.7505 77.6958C56.591 77.5534 56.4314 77.4109 56.2698 77.2712C56.0905 77.1164 55.9195 76.9536 55.7497 76.7921L55.7497 76.792L55.7495 76.7918C55.3857 76.4457 55.0277 76.1051 54.6072 75.8596C54.1813 75.6104 53.6271 75.593 53.0868 75.5761C53.0402 75.5746 52.9938 75.5732 52.9475 75.5716C53.1472 75.7126 53.3534 75.8421 53.5586 75.971L53.5587 75.971C54.091 76.3053 54.6168 76.6354 55.0053 77.1531C54.5948 76.9255 54.1695 76.7272 53.7325 76.5597C53.1631 76.385 52.5794 76.2645 51.9886 76.1996C51.0663 76.0998 50.258 75.7034 49.445 75.3046L49.4449 75.3046L49.3481 75.2571L49.2074 75.1884C49.1483 75.1602 49.0874 75.1361 49.0252 75.1164C49.0126 75.1164 48.9977 75.1235 48.9678 75.1378L48.9426 75.1497C48.9309 75.1552 48.9174 75.1614 48.9018 75.1683C48.9247 75.1965 48.9449 75.2259 48.9643 75.2543C49.0045 75.3128 49.0415 75.3667 49.0925 75.3958C49.4482 75.6041 49.8026 75.8157 50.1571 76.0274C51.1465 76.6183 52.1368 77.2097 53.1605 77.7293C53.5375 77.9155 53.9741 77.9813 54.4122 78.0474C54.6519 78.0835 54.892 78.1198 55.1231 78.1758C55.8573 78.332 56.5139 78.7505 56.9763 79.3569C56.0118 78.6281 54.924 78.389 53.6484 78.4149C53.7356 78.5755 53.8311 78.7313 53.9343 78.8816C54.5596 79.6479 55.4371 79.9619 56.3146 80.2701C56.7104 80.4064 57.1061 80.5254 57.5019 80.6444L57.502 80.6444L57.502 80.6444L57.5021 80.6444C57.667 80.694 57.8319 80.7436 57.9968 80.7944L57.9828 80.9068L57.0576 80.852C57.1664 81.097 57.2745 81.3399 57.3819 81.5813C57.6951 82.2851 58.0025 82.9758 58.3052 83.6666L58.1622 83.7443C57.9979 83.5001 57.8544 83.2418 57.7333 82.9723C57.2875 81.7019 56.5193 80.8088 55.1791 80.5063C54.3829 80.322 53.7661 79.8063 53.2054 79.233C53.0778 79.1058 52.944 78.9851 52.8106 78.8647L52.8103 78.8644L52.7163 78.7794C52.6969 78.7619 52.6777 78.7443 52.6585 78.7268C52.6435 78.7131 52.6287 78.6994 52.6138 78.6857L52.5017 78.7635C52.5305 78.9281 52.5585 79.0909 52.5862 79.2525L52.5862 79.2526L52.5862 79.2526L52.5862 79.2527C52.6555 79.6566 52.7236 80.0533 52.8017 80.4545C52.9924 81.4286 53.4361 82.3314 54.0857 83.0674C54.3107 83.3056 54.4834 83.5906 54.5922 83.9032C54.701 84.2157 54.7434 84.5486 54.7166 84.8794C54.6826 84.7211 54.6308 84.5674 54.5624 84.4213C54.3238 83.9738 54.042 83.552 53.7213 83.1624C52.7624 82.1455 52.0195 81.0335 51.8092 79.5989C51.6942 78.8124 51.184 78.3083 50.5055 77.9713C50.3523 77.8964 50.199 77.8241 50.0458 77.7517L49.9079 77.6865L49.8158 77.6428L49.7653 77.7293L50.6989 79.0256L50.5952 79.1236C50.4404 78.9884 50.2823 78.8563 50.1242 78.724L50.124 78.7239C49.7295 78.3941 49.3341 78.0636 48.9859 77.6832C48.6409 77.3063 48.3394 76.9078 48.0378 76.5091L48.0376 76.5089L48.0374 76.5086C47.9126 76.3437 47.7878 76.1787 47.6598 76.0152L47.5449 76.0584C47.5811 76.1973 47.614 76.3374 47.6469 76.4774C47.7183 76.7817 47.7897 77.0858 47.8953 77.3778C48.1427 78.0496 48.554 78.6448 49.0897 79.1063L49.2111 79.2127L49.2882 79.2802C49.6854 79.6276 50.0826 79.9751 50.455 80.3479C50.7187 80.6258 50.9163 80.9625 51.0325 81.3318C51.1488 81.701 51.1804 82.0929 51.1251 82.4768C51.0045 83.9518 51.1027 84.4933 51.6858 85.7724C51.3905 85.5724 51.1693 85.2761 51.0578 84.9312C50.899 84.5896 50.7768 84.2312 50.6933 83.8625C50.6404 83.4489 50.6141 83.0322 50.6148 82.6151C50.2002 83.0884 49.8674 83.6311 49.6308 84.2197C49.4118 84.7756 49.2337 85.3476 49.0981 85.9309C48.9704 85.2667 49.0428 84.5783 49.3055 83.9575C49.4903 83.5396 49.6449 83.1082 49.7681 82.6669C49.8969 82.2713 49.9055 81.8447 49.7928 81.4439C49.6802 81.0431 49.4515 80.687 49.1373 80.4228C48.9102 80.2154 48.6663 80.0281 48.4224 79.8466C47.4579 79.1121 46.9869 78.0721 46.6785 76.9284C46.6002 76.6727 46.4746 76.435 46.3085 76.2284C46.1555 76.9178 46.1993 77.638 46.4346 78.3025C46.7598 79.403 47.5561 80.1174 48.3579 80.8232C48.7087 81.1066 48.9629 81.4969 49.0841 81.9381L47.629 80.708L47.5084 80.8002C47.5451 80.9557 47.5939 81.1079 47.6542 81.2554C47.8315 81.6028 47.9271 81.988 47.9334 82.3802C47.9398 82.7724 47.8566 83.1606 47.6906 83.5139C47.5153 83.9558 47.3937 84.4197 47.2704 84.8897C47.1847 85.2164 47.0983 85.546 46.9925 85.8732C46.9858 85.4293 47.0101 84.9855 47.0654 84.5452C47.1377 84.1545 47.2486 83.7783 47.3598 83.4014C47.4125 83.2226 47.4653 83.0436 47.514 82.8628C47.7177 82.1182 47.3749 81.5198 47.0342 80.9247L46.9729 80.8175C46.9518 80.7951 46.9265 80.7775 46.8986 80.7656C46.8706 80.7537 46.8406 80.7478 46.8103 80.7483C46.7529 80.8116 46.7124 80.889 46.6926 80.973C46.632 81.3188 46.575 81.6645 46.518 82.0102C46.4326 82.5287 46.3471 83.0472 46.2496 83.5657C46.2496 83.6118 46.2019 83.655 46.0786 83.6925C46.0321 83.2353 46.0377 82.7742 46.0954 82.3184C46.3757 81.0854 46.3169 79.936 45.6384 78.847C45.5541 78.6704 45.4783 78.4897 45.4113 78.3054C45.3761 78.2396 45.3196 78.1886 45.2515 78.1614C45.2178 78.1614 45.1337 78.219 45.1113 78.2709C45.0291 78.4702 44.938 78.668 44.8468 78.8661C44.6269 79.3435 44.4066 79.8219 44.3095 80.3249C44.2256 80.7498 44.2788 81.2012 44.3321 81.6539L44.3322 81.654C44.3555 81.8519 44.3788 82.0501 44.3908 82.2463C44.4034 82.4764 44.4167 82.7064 44.4299 82.9364L44.43 82.9368L44.43 82.9373C44.4433 83.1679 44.4566 83.3985 44.4693 83.6291L44.2786 83.6522L43.7179 80.7339C43.1964 81.094 42.7983 82.2204 42.9525 82.7937C42.9995 82.9684 43.0512 83.1498 43.104 83.3351L43.104 83.3352C43.2244 83.7579 43.3507 84.201 43.4403 84.6316C43.5034 85.0198 43.5034 85.416 43.4403 85.8041C43.3579 85.5006 43.2759 85.1971 43.1941 84.8938C43.0895 84.5062 42.985 84.1191 42.8796 83.7328C42.7605 83.4191 42.6585 83.0989 42.574 82.7735C42.4921 82.2752 42.5719 81.763 42.8011 81.3158C42.8597 81.1974 42.9067 81.076 42.9536 80.9549L42.9536 80.9548L42.9536 80.9547C42.9717 80.9079 42.9898 80.8611 43.0086 80.8146L42.8964 80.708L41.4722 81.8776L41.4021 81.8401C41.5458 81.5681 41.7128 81.3097 41.9011 81.0681C42.1045 80.832 42.3477 80.6186 42.5901 80.4059L42.5901 80.4059L42.5902 80.4059L42.5903 80.4058C42.682 80.3253 42.7735 80.245 42.8628 80.1635C43.9422 79.1812 44.3431 77.9252 44.2983 76.4877C44.2773 76.3745 44.2464 76.2637 44.2057 76.1564C44.1215 76.2791 44.0447 76.407 43.9758 76.5395C43.7346 77.2691 43.4461 77.9813 43.1123 78.6713C42.8056 79.1936 42.3947 79.6433 41.9067 79.9907C40.4825 80.999 40.3676 82.1282 41.0657 83.6666C41.4441 84.5049 41.5703 85.2251 41.3628 86C41.3264 84.7382 40.676 83.7703 39.961 82.8167C39.9033 83.367 39.8096 83.9127 39.6807 84.4501C39.5237 84.9572 39.3218 85.4786 38.8396 85.7926C39.2041 85.139 39.4153 84.4071 39.4564 83.655C39.4868 83.3678 39.4868 83.078 39.4564 82.7908C39.3498 82.2636 39.3921 81.7161 39.5784 81.2128C39.7646 80.7095 40.0871 80.2715 40.5077 79.9504C40.5674 79.9011 40.6273 79.8519 40.6873 79.8027L40.6888 79.8015C41.3927 79.2239 42.1063 78.6386 42.4703 77.7552C42.6276 77.3806 42.7455 76.9899 42.8636 76.5987L42.8637 76.5985L42.8637 76.5983L42.8638 76.5981L42.8639 76.5979C42.9183 76.4177 42.9727 76.2373 43.031 76.0584L42.8488 76.0008C42.4346 76.5914 41.991 77.1597 41.5198 77.7033C41.0086 78.1993 40.4734 78.6685 39.9162 79.1092L39.8293 79.04L40.704 77.7437C39.8993 77.7811 38.9377 78.6079 38.7414 79.4145C38.7085 79.5448 38.6762 79.6753 38.644 79.8058C38.5531 80.1742 38.4622 80.5422 38.3545 80.9039C38.161 81.5633 37.732 82.0524 37.3022 82.5424C37.1405 82.7267 36.9788 82.9111 36.8294 83.1048C36.5499 83.4653 36.2985 83.8488 36.0513 84.2258L36.0513 84.2258L36.0507 84.2267C35.9484 84.3827 35.8469 84.5376 35.7444 84.6892C35.7206 84.5948 35.7206 84.4956 35.7444 84.4012C35.9209 83.9228 36.1564 83.4697 36.4453 83.053C37.2025 82.1435 37.6702 81.0175 37.7854 79.8265C37.8583 79.4556 37.9079 79.0804 37.934 78.703C37.9088 78.7213 37.8835 78.7395 37.8581 78.7576L37.825 78.7813C37.7453 78.8381 37.6652 78.8953 37.5863 78.9565C37.4199 79.085 37.2541 79.2146 37.0882 79.3443L37.088 79.3444L37.0878 79.3445L37.0877 79.3446C36.6586 79.68 36.2291 80.0157 35.7864 80.3335C35.5822 80.4608 35.3554 80.5451 35.1192 80.5813C33.9332 80.8405 33.2912 81.6846 32.8398 82.7476C32.6874 83.1 32.4995 83.4351 32.2791 83.7472C32.3382 83.5595 32.3916 83.3696 32.4449 83.1799C32.6445 82.4701 32.8433 81.763 33.3388 81.1833C33.3961 81.0893 33.4378 80.9861 33.4622 80.878C33.3541 80.8494 33.243 80.8349 33.1314 80.8348C32.9699 80.8514 32.8098 80.8799 32.6491 80.9086C32.5866 80.9197 32.5241 80.9309 32.4613 80.9413L32.4333 80.806C32.6323 80.7446 32.8348 80.6851 33.0387 80.6252C33.4091 80.5163 33.7838 80.4062 34.1491 80.2816C35.0406 79.9936 35.9266 79.6536 36.5546 78.8701C36.6219 78.7865 36.6892 78.703 36.7509 78.6166C36.7703 78.5519 36.7825 78.4852 36.7873 78.4178C35.638 78.3124 34.4917 78.6503 33.5715 79.3656L33.4986 79.2302C33.8051 78.9568 34.1387 78.7173 34.4939 78.5157C35.0034 78.2722 35.5461 78.11 36.1032 78.0346C36.9703 77.9318 37.8054 77.6369 38.5508 77.1704C39.2896 76.738 40.0153 76.2864 40.7416 75.8344L40.742 75.8341L40.7424 75.8339L40.7484 75.8302C40.9101 75.7295 41.0719 75.6288 41.2339 75.5284C41.3675 75.4346 41.494 75.3306 41.6124 75.2172L41.5451 75.0991C41.4398 75.1466 41.3353 75.196 41.2306 75.2455L41.2305 75.2455C40.967 75.3699 40.7025 75.4948 40.4236 75.5917C39.8435 75.8344 39.2416 76.0177 38.6265 76.1391C37.5387 76.2889 36.4957 76.5309 35.5649 77.1531L35.4948 77.0494C35.5874 76.974 35.6789 76.8969 35.7705 76.8197L35.7706 76.8196L35.7712 76.819C35.9874 76.6368 36.2038 76.4544 36.4341 76.2946C36.6547 76.1416 36.9058 76.0002 37.1796 75.8461C37.3129 75.771 37.4516 75.6929 37.5948 75.609C37.4905 75.5755 37.3835 75.5514 37.2751 75.537C36.8098 75.5257 36.3476 75.6185 35.9206 75.809C35.4936 75.9995 35.112 76.2832 34.8023 76.6403C34.0077 77.585 33.0886 78.4112 32.0716 79.0948C31.5909 79.4049 31.4661 79.9285 31.3434 80.4429L31.3433 80.4432C31.3179 80.5498 31.2926 80.656 31.2642 80.7599C31.1102 81.4742 30.7866 82.1383 30.3221 82.6929C30.3351 82.658 30.3487 82.6231 30.3624 82.5881L30.3624 82.588C30.3961 82.5018 30.43 82.4151 30.4539 82.327C30.5136 82.1082 30.5767 81.8898 30.6398 81.6714C30.7902 81.1509 30.9408 80.6298 31.0455 80.1002C31.1149 79.726 31.2668 79.3732 31.4893 79.0686C31.7119 78.764 31.9993 78.5158 32.3295 78.3429C33.0304 77.9385 33.5638 77.3538 34.0982 76.7681C34.2756 76.5737 34.4531 76.3791 34.6369 76.1909C34.6641 76.162 34.6834 76.1262 34.693 76.0872C34.693 76.0671 34.693 76.0383 34.665 75.9605C34.0008 76.1474 33.4606 76.5431 32.9226 76.9372C32.6317 77.1504 32.3413 77.3631 32.0323 77.542C31.9071 77.6145 31.7808 77.6857 31.6544 77.7568L31.6542 77.7569C30.8917 78.1861 30.1258 78.6173 29.5848 79.3684L29.467 79.2532L30.5296 78.0173C29.8312 78.1723 29.1862 78.5176 28.6624 79.017C28.1694 79.522 27.8196 80.1554 27.6503 80.8492C27.5045 80.273 27.74 79.7804 28.0203 79.3396C28.3348 78.8967 28.6737 78.4725 29.0353 78.0692C27.6334 78.1355 26.6494 78.9075 25.755 79.838L25.6793 79.7516C25.7248 79.6922 25.7692 79.6317 25.8137 79.5712C25.9202 79.4265 26.0269 79.2816 26.1475 79.1495C26.8757 78.3899 27.8185 77.8859 28.8418 77.7091C30.4483 77.3548 31.8697 76.577 33.2323 75.6897C33.2602 75.6712 33.2768 75.6368 33.2931 75.6029L33.2931 75.6028C33.2972 75.5943 33.3013 75.5859 33.3055 75.5778C33.3081 75.5727 33.3108 75.5677 33.3136 75.5629C32.9379 75.2748 32.7529 75.3094 30.8576 76.0094C31.1156 75.6292 31.8866 75.0905 32.4333 75.0991C33.296 75.1171 34.0851 74.8663 34.8782 74.6142L34.8783 74.6142L34.8784 74.6142L34.8786 74.6141C35.1009 74.5434 35.3235 74.4727 35.5481 74.4077C36.0988 74.2725 36.6692 74.2432 37.2303 74.3213C37.7496 74.3847 38.2761 74.3362 38.7762 74.179C39.2763 74.0218 39.739 73.7592 40.1348 73.4081C40.1621 73.3853 40.1791 73.3487 40.209 73.2839L40.209 73.2838C40.2282 73.2421 40.2529 73.1888 40.2891 73.12C40.1338 73.1463 39.9843 73.1628 39.8412 73.1786H39.8411L39.841 73.1786C39.5449 73.2112 39.2767 73.2408 39.0442 73.3476C37.8919 73.8834 36.7425 73.7538 35.5902 73.4225C34.6525 73.1541 33.6521 73.2421 32.7725 73.6702C31.9298 74.028 31.1582 74.5416 30.496 75.1855C30.1541 75.5361 29.7484 75.8139 29.3019 76.0032C28.8555 76.1926 28.3771 76.2896 27.8942 76.2889C26.8051 76.2866 25.7369 76.5969 24.8102 77.1848L24.7317 77.0926C24.8903 76.9261 25.0609 76.772 25.242 76.6317C26.0543 76.113 26.991 75.8367 27.9475 75.8337C29.01 75.7934 29.8511 75.2864 30.6109 74.3933H30.2408C30.0304 74.3991 29.82 74.4045 29.6096 74.4099C28.9789 74.4261 28.3482 74.4423 27.7176 74.4682C27.0212 74.4771 26.3257 74.5252 25.6345 74.6123C25.3209 74.7046 25.0328 74.8714 24.7934 75.0991C23.8598 75.8424 22.8561 76.4041 21.6281 76.4444C21.8231 76.3533 22.0209 76.2674 22.2193 76.1812C23.0559 75.8177 23.9035 75.4494 24.6083 74.667H23.6074L23.5906 74.6007C23.7784 74.5356 23.965 74.4715 24.1521 74.4074L24.1536 74.4069C24.3878 74.3266 24.6225 74.246 24.8607 74.1629C25.4406 73.9404 26.031 73.7481 26.6297 73.5867C27.0326 73.5047 27.4463 73.4959 27.8521 73.5608C29.2414 73.7675 30.657 73.4612 31.8473 72.6965C32.5499 72.2563 33.367 72.0481 34.1883 72.1002C34.6363 72.0985 35.0834 72.0609 35.5257 71.9879C35.5853 71.971 35.6421 71.9448 35.6939 71.9101L35.7163 71.7776L34.5472 71.4895C33.165 71.1409 31.8669 71.4405 30.6221 72.034C29.8467 72.3858 29.0082 72.5673 28.1605 72.5669C27.7184 72.5786 27.2762 72.6405 26.8332 72.7024L26.833 72.7025L26.8327 72.7025L26.8324 72.7026L26.832 72.7026C26.6209 72.7321 26.4096 72.7617 26.198 72.7859C26.119 72.7846 26.0403 72.7769 25.9625 72.7628C26.4566 72.3875 27.0501 72.1754 27.6643 72.155C28.6975 72.17 29.7201 71.9403 30.653 71.4837C30.7835 71.4079 30.9091 71.3232 31.0287 71.2302C30.4067 71.1278 29.7704 71.1712 29.167 71.357C28.7228 71.4949 28.2599 71.5581 27.7961 71.5442C26.1503 71.3426 24.7597 71.9475 23.4504 72.8607C22.7647 73.3644 21.914 73.5713 21.0814 73.4369C20.3019 73.313 19.5281 73.169 18.7515 73.0019C19.3212 72.8856 19.908 72.8905 20.4758 73.0163C20.948 73.1298 21.4385 73.1371 21.9137 73.0377C22.3889 72.9382 22.8376 72.7344 23.2289 72.4402C23.3123 72.3718 23.3918 72.2987 23.4672 72.2212L19.8421 71.7833V71.72C19.9114 71.6878 19.9852 71.6674 20.0608 71.6595C20.5122 71.6595 20.9636 71.6595 21.4094 71.7084C22.6332 71.8621 23.8746 71.6709 25.0008 71.1553C25.1517 71.0871 25.2969 71.0231 25.4408 70.9596C25.5643 70.9052 25.6868 70.8511 25.8111 70.7952L25.7943 70.6915L9 70.1311C18.0927 70.045 31.6961 70.0013 45.3683 70C45.2366 68.1336 45.136 66.2306 45.0417 64.3577C44.9678 62.8892 44.9269 61.4194 44.8859 59.9491C44.8678 59.303 44.8498 58.6568 44.829 58.0107H44.6327C44.5588 59.3506 44.4855 60.69 44.4115 62.0421L44.4101 62.0677C44.3206 63.703 44.2301 65.357 44.1364 67.0533C44.0659 66.748 44.0015 66.4734 43.9408 66.2148L43.9405 66.2137C43.8721 65.9222 43.8085 65.6511 43.7464 65.3792C43.4145 63.935 42.762 62.5843 41.8375 61.4273C41.7449 61.3355 41.6862 61.2151 41.6708 61.0856C41.6555 60.9562 41.6844 60.8253 41.7529 60.7144C42.5274 59.0758 43.1164 57.3716 43.1737 55.5991L41.4502 59.9088L41.3412 59.876L41.153 57.7812C41.1534 57.7025 41.1415 57.6241 41.1175 57.5491C40.7003 56.6806 40.9321 55.9569 41.4557 55.1785C42.3992 53.772 42.9883 52.1934 43.4846 50.5766C43.4846 50.5165 43.4846 50.451 43.4982 50.38C43.3667 49.5486 43.0414 48.76 42.5486 48.0782C42.0558 47.3963 41.4095 46.8403 40.6621 46.4554C40.5562 46.3994 40.4558 46.3336 40.3621 46.2587C37.5969 44.814 34.7636 43.5549 33.3973 43.6178C31.0003 43.727 40.2149 49.1127 40.2149 49.1127C40.2149 49.1127 27.3979 46.7913 20.5585 39.0077C20.5585 39.0077 29.1977 40.873 32.1783 40.3104C32.1783 40.3104 21.6793 39.0459 18.2078 35.3425C14.7363 31.6392 16.3971 24.8769 16.3971 24.8769C17.1595 26.8531 18.4527 28.5796 20.1338 29.8655C21.8149 31.1515 23.8183 31.9468 25.9226 32.1635C25.9226 32.1635 16.4707 28.8534 17.9078 19.8026C18.2842 17.4156 22.192 12.5952 22.192 12.5952C22.192 12.5952 21.6984 19.4229 26.228 23.0553C26.228 23.0553 22.4101 15.5967 25.9335 10.3011C28.9768 5.71828 39.724 5 39.724 5C39.724 5 25.2708 9.30421 31.6084 23.6998C28.775 37.0467 41.4257 37.156 41.4257 37.156C41.4257 37.156 43.4355 35.8068 42.9092 33.6929C42.2874 31.1913 40.3703 32.8053 40.3703 32.8053C40.3703 29.1375 43.7546 27.9549 43.7546 27.9549C43.7546 27.9549 41.9056 28.3482 41.2402 27.2066C41.2402 27.2066 42.2656 27.7965 43.6946 25.7864C45.1235 23.7763 47.6733 23.8146 47.6733 23.8146C47.6733 23.8146 48.7641 24.0877 49.5631 23.8938C50.3621 23.6998 52.2902 23.3803 52.7128 24.3662C52.7128 24.3662 49.6395 24.328 48.8541 25.8246L48.7987 25.9299C47.9608 27.5193 45.6941 31.819 50.5858 35.2497C50.5858 35.2497 49.285 35.5665 47.4361 34.2637C47.4224 34.2637 46.9997 37.5219 48.8732 37.4482ZM58.7475 24.5055C58.7475 24.5055 58.0575 33.7667 53.4325 36.2492C53.4325 36.2602 60.0155 35.1677 58.7475 24.5055ZM33.5798 24.7896C33.5798 24.7896 31.6708 34.4658 39.3065 35.9324C39.3067 35.9324 39.306 35.9322 39.3044 35.9316L39.2994 35.9298C39.0829 35.8515 33.9876 34.0103 33.5798 24.7896Z" fill="url(#paint0_linear_25_49)"/>
<defs>
<linearGradient id="paint0_linear_25_49" x1="46.499" y1="84.6749" x2="46.499" y2="-0.402257" gradientUnits="userSpaceOnUse">
<stop stop-color="#040D20"/>
<stop offset="1" stop-color="#696969"/>
</linearGradient>
</defs>
</svg>
