<svg width="117" height="142" viewBox="0 0 117 142" fill="none" xmlns="http://www.w3.org/2000/svg">
<path d="M9.38554 109.847C11.2857 109.847 12.8979 110.5 14.2223 111.805C15.5466 113.11 16.2088 114.684 16.2088 116.526C16.2088 118.388 15.5466 119.971 14.2223 121.277C12.8979 122.582 11.2857 123.234 9.38554 123.234H5.84437V130H1.87135V109.847H5.84437H9.38554ZM9.38554 119.52C10.1917 119.52 10.8634 119.233 11.4008 118.657C11.9574 118.081 12.2358 117.371 12.2358 116.526C12.2358 115.682 11.9574 114.981 11.4008 114.425C10.8634 113.849 10.1917 113.561 9.38554 113.561H5.84437V119.52H9.38554ZM29.449 109.847H33.422V130H29.449V121.536H22.7697V130H18.7967V109.847H22.7697V117.735H29.449V109.847ZM54.1133 127.38C52.0788 129.395 49.6029 130.403 46.6855 130.403C43.7681 130.403 41.2921 129.395 39.2576 127.38C37.2423 125.346 36.2347 122.86 36.2347 119.923C36.2347 116.987 37.2423 114.511 39.2576 112.496C41.2921 110.461 43.7681 109.444 46.6855 109.444C49.6029 109.444 52.0788 110.461 54.1133 112.496C56.1478 114.511 57.165 116.987 57.165 119.923C57.165 122.86 56.1478 125.346 54.1133 127.38ZM42.0503 124.674C43.2978 125.902 44.8429 126.516 46.6855 126.516C48.528 126.516 50.0731 125.902 51.3207 124.674C52.5682 123.426 53.192 121.843 53.192 119.923C53.192 118.004 52.5682 116.421 51.3207 115.173C50.0731 113.926 48.528 113.302 46.6855 113.302C44.8429 113.302 43.2978 113.926 42.0503 115.173C40.8027 116.421 40.1789 118.004 40.1789 119.923C40.1789 121.843 40.8027 123.426 42.0503 124.674ZM63.9304 126.2H71.9053V130H61.253H59.9574V109.847H63.9304H71.7613V113.647H63.9304V117.966H71.0416V121.68H63.9304V126.2ZM85.6005 109.847H89.5448V130H86.5218L78.6909 117.534V130H74.7179V109.847H77.7409L85.6005 122.284V109.847ZM93.274 109.847H97.247V130H93.274V109.847ZM116.035 130H111.543L107.743 123.493L103.943 130H99.4805L105.498 119.636L99.7972 109.847H104.288L107.743 115.807L111.227 109.847H115.689L109.989 119.636L116.035 130Z" fill="url(#paint0_linear_25_44)"/>
<path d="M5.17576 140.045C4.78129 140.045 4.41677 139.98 4.08222 139.85C3.74767 139.715 3.45805 139.528 3.21338 139.288C2.96871 139.049 2.77646 138.767 2.63665 138.442C2.50183 138.118 2.43442 137.763 2.43442 137.378C2.43442 136.994 2.50183 136.639 2.63665 136.315C2.77646 135.99 2.96871 135.708 3.21338 135.469C3.46305 135.229 3.75516 135.044 4.08971 134.914C4.42426 134.779 4.78878 134.712 5.18325 134.712C5.56274 134.712 5.91977 134.777 6.25432 134.907C6.58887 135.032 6.871 135.221 7.10069 135.476L6.74866 135.828C6.53395 135.608 6.29676 135.451 6.03711 135.356C5.77746 135.256 5.49783 135.206 5.19823 135.206C4.88365 135.206 4.59154 135.261 4.3219 135.371C4.05226 135.476 3.81757 135.628 3.61784 135.828C3.41811 136.023 3.26082 136.253 3.14597 136.517C3.03612 136.777 2.98119 137.064 2.98119 137.378C2.98119 137.693 3.03612 137.983 3.14597 138.247C3.26082 138.507 3.41811 138.737 3.61784 138.936C3.81757 139.131 4.05226 139.283 4.3219 139.393C4.59154 139.498 4.88365 139.551 5.19823 139.551C5.49783 139.551 5.77746 139.501 6.03711 139.401C6.29676 139.301 6.53395 139.141 6.74866 138.921L7.10069 139.273C6.871 139.528 6.58887 139.72 6.25432 139.85C5.91977 139.98 5.56025 140.045 5.17576 140.045ZM10.435 140.045C10.0406 140.045 9.67354 139.98 9.334 139.85C8.99944 139.715 8.70733 139.528 8.45767 139.288C8.21299 139.044 8.02075 138.762 7.88094 138.442C7.74612 138.118 7.67871 137.763 7.67871 137.378C7.67871 136.994 7.74612 136.642 7.88094 136.322C8.02075 135.998 8.21299 135.716 8.45767 135.476C8.70733 135.231 8.99944 135.044 9.334 134.914C9.66855 134.779 10.0356 134.712 10.435 134.712C10.8295 134.712 11.194 134.779 11.5286 134.914C11.8631 135.044 12.1527 135.229 12.3974 135.469C12.6471 135.708 12.8393 135.99 12.9741 136.315C13.114 136.639 13.1839 136.994 13.1839 137.378C13.1839 137.763 13.114 138.118 12.9741 138.442C12.8393 138.767 12.6471 139.049 12.3974 139.288C12.1527 139.528 11.8631 139.715 11.5286 139.85C11.194 139.98 10.8295 140.045 10.435 140.045ZM10.435 139.551C10.7496 139.551 11.0392 139.498 11.3039 139.393C11.5735 139.283 11.8057 139.131 12.0004 138.936C12.2002 138.737 12.355 138.507 12.4648 138.247C12.5747 137.983 12.6296 137.693 12.6296 137.378C12.6296 137.064 12.5747 136.777 12.4648 136.517C12.355 136.253 12.2002 136.023 12.0004 135.828C11.8057 135.628 11.5735 135.476 11.3039 135.371C11.0392 135.261 10.7496 135.206 10.435 135.206C10.1204 135.206 9.82834 135.261 9.5587 135.371C9.28906 135.476 9.05437 135.628 8.85464 135.828C8.6599 136.023 8.5051 136.253 8.39026 136.517C8.2804 136.777 8.22548 137.064 8.22548 137.378C8.22548 137.688 8.2804 137.975 8.39026 138.24C8.5051 138.504 8.6599 138.737 8.85464 138.936C9.05437 139.131 9.28906 139.283 9.5587 139.393C9.82834 139.498 10.1204 139.551 10.435 139.551ZM13.7321 134.757H14.3687L15.8592 136.832L17.3423 134.757H17.9939L16.2038 137.274L18.1362 140H17.4846L15.8592 137.746L14.2339 140H13.5973L15.5222 137.296L13.7321 134.757ZM19.0049 140V134.757H20.9673C21.4117 134.757 21.7937 134.829 22.1132 134.974C22.4328 135.114 22.6775 135.319 22.8472 135.588C23.022 135.853 23.1094 136.175 23.1094 136.555C23.1094 136.924 23.022 137.244 22.8472 137.513C22.6775 137.778 22.4328 137.983 22.1132 138.128C21.7937 138.272 21.4117 138.345 20.9673 138.345H19.312L19.5591 138.083V140H19.0049ZM19.5591 138.128L19.312 137.858H20.9523C21.4766 137.858 21.8735 137.746 22.1432 137.521C22.4178 137.291 22.5551 136.969 22.5551 136.555C22.5551 136.135 22.4178 135.811 22.1432 135.581C21.8735 135.351 21.4766 135.236 20.9523 135.236H19.312L19.5591 134.974V138.128ZM23.2072 140L25.604 134.757H26.1508L28.5476 140H27.9634L25.7613 135.079H25.986L23.784 140H23.2072ZM24.151 138.599L24.3158 138.15H27.3642L27.529 138.599H24.151ZM33.3872 134.757H33.934V140H33.3872V134.757ZM30.1066 140H29.5523V134.757H30.1066V140ZM33.4396 137.581H30.0467V137.094H33.4396V137.581ZM35.7038 140V134.757H36.2505V139.101L39.6061 134.757H40.1079V140H39.5611V135.663L36.2056 140H35.7038ZM43.8374 140V134.757H46.017C46.5713 134.757 47.0057 134.872 47.3203 135.102C47.6399 135.326 47.7997 135.658 47.7997 136.098C47.7997 136.532 47.6474 136.862 47.3428 137.086C47.0382 137.306 46.6387 137.416 46.1444 137.416L46.2717 137.229C46.8559 137.229 47.3003 137.344 47.6049 137.573C47.9095 137.803 48.0618 138.14 48.0618 138.584C48.0618 139.034 47.902 139.383 47.5824 139.633C47.2679 139.878 46.7935 140 46.1593 140H43.8374ZM44.3842 139.558H46.1593C46.6037 139.558 46.9408 139.476 47.1705 139.311C47.4002 139.146 47.515 138.891 47.515 138.547C47.515 138.207 47.4002 137.958 47.1705 137.798C46.9408 137.638 46.6037 137.558 46.1593 137.558H44.3842V139.558ZM44.3842 137.131H45.9871C46.3915 137.131 46.7011 137.051 46.9158 136.892C47.1355 136.727 47.2454 136.485 47.2454 136.165C47.2454 135.846 47.1355 135.606 46.9158 135.446C46.7011 135.281 46.3915 135.199 45.9871 135.199H44.3842V137.131ZM51.7471 140.045C51.3526 140.045 50.9856 139.98 50.646 139.85C50.3115 139.715 50.0194 139.528 49.7697 139.288C49.525 139.044 49.3328 138.762 49.193 138.442C49.0581 138.118 48.9907 137.763 48.9907 137.378C48.9907 136.994 49.0581 136.642 49.193 136.322C49.3328 135.998 49.525 135.716 49.7697 135.476C50.0194 135.231 50.3115 135.044 50.646 134.914C50.9806 134.779 51.3476 134.712 51.7471 134.712C52.1415 134.712 52.506 134.779 52.8406 134.914C53.1752 135.044 53.4648 135.229 53.7094 135.469C53.9591 135.708 54.1513 135.99 54.2862 136.315C54.426 136.639 54.4959 136.994 54.4959 137.378C54.4959 137.763 54.426 138.118 54.2862 138.442C54.1513 138.767 53.9591 139.049 53.7094 139.288C53.4648 139.528 53.1752 139.715 52.8406 139.85C52.506 139.98 52.1415 140.045 51.7471 140.045ZM51.7471 139.551C52.0616 139.551 52.3513 139.498 52.6159 139.393C52.8855 139.283 53.1177 139.131 53.3125 138.936C53.5122 138.737 53.667 138.507 53.7768 138.247C53.8867 137.983 53.9416 137.693 53.9416 137.378C53.9416 137.064 53.8867 136.777 53.7768 136.517C53.667 136.253 53.5122 136.023 53.3125 135.828C53.1177 135.628 52.8855 135.476 52.6159 135.371C52.3513 135.261 52.0616 135.206 51.7471 135.206C51.4325 135.206 51.1404 135.261 50.8707 135.371C50.6011 135.476 50.3664 135.628 50.1667 135.828C49.9719 136.023 49.8171 136.253 49.7023 136.517C49.5924 136.777 49.5375 137.064 49.5375 137.378C49.5375 137.688 49.5924 137.975 49.7023 138.24C49.8171 138.504 49.9719 138.737 50.1667 138.936C50.3664 139.131 50.6011 139.283 50.8707 139.393C51.1404 139.498 51.4325 139.551 51.7471 139.551ZM58.1105 140.045C57.716 140.045 57.3515 139.98 57.0169 139.85C56.6824 139.715 56.3927 139.528 56.1481 139.288C55.9034 139.049 55.7112 138.767 55.5713 138.442C55.4365 138.118 55.3691 137.763 55.3691 137.378C55.3691 136.994 55.4365 136.639 55.5713 136.315C55.7112 135.99 55.9034 135.708 56.1481 135.469C56.3977 135.229 56.6899 135.044 57.0244 134.914C57.359 134.779 57.7235 134.712 58.1179 134.712C58.4974 134.712 58.8545 134.777 59.189 134.907C59.5236 135.032 59.8057 135.221 60.0354 135.476L59.6834 135.828C59.4686 135.608 59.2315 135.451 58.9718 135.356C58.7122 135.256 58.4325 135.206 58.1329 135.206C57.8183 135.206 57.5262 135.261 57.2566 135.371C56.987 135.476 56.7523 135.628 56.5525 135.828C56.3528 136.023 56.1955 136.253 56.0807 136.517C55.9708 136.777 55.9159 137.064 55.9159 137.378C55.9159 137.693 55.9708 137.983 56.0807 138.247C56.1955 138.507 56.3528 138.737 56.5525 138.936C56.7523 139.131 56.987 139.283 57.2566 139.393C57.5262 139.498 57.8183 139.551 58.1329 139.551C58.4325 139.551 58.7122 139.501 58.9718 139.401C59.2315 139.301 59.4686 139.141 59.6834 138.921L60.0354 139.273C59.8057 139.528 59.5236 139.72 59.189 139.85C58.8545 139.98 58.4949 140.045 58.1105 140.045ZM61.18 140V134.757H65.5916V140H65.0448V135.087L65.1872 135.236H61.5845L61.7268 135.087V140H61.18ZM69.6602 140.045C69.2657 140.045 68.8987 139.98 68.5591 139.85C68.2246 139.715 67.9325 139.528 67.6828 139.288C67.4381 139.044 67.2459 138.762 67.1061 138.442C66.9712 138.118 66.9038 137.763 66.9038 137.378C66.9038 136.994 66.9712 136.642 67.1061 136.322C67.2459 135.998 67.4381 135.716 67.6828 135.476C67.9325 135.231 68.2246 135.044 68.5591 134.914C68.8937 134.779 69.2607 134.712 69.6602 134.712C70.0546 134.712 70.4191 134.779 70.7537 134.914C71.0882 135.044 71.3779 135.229 71.6225 135.469C71.8722 135.708 72.0644 135.99 72.1993 136.315C72.3391 136.639 72.409 136.994 72.409 137.378C72.409 137.763 72.3391 138.118 72.1993 138.442C72.0644 138.767 71.8722 139.049 71.6225 139.288C71.3779 139.528 71.0882 139.715 70.7537 139.85C70.4191 139.98 70.0546 140.045 69.6602 140.045ZM69.6602 139.551C69.9747 139.551 70.2643 139.498 70.529 139.393C70.7986 139.283 71.0308 139.131 71.2256 138.936C71.4253 138.737 71.5801 138.507 71.6899 138.247C71.7998 137.983 71.8547 137.693 71.8547 137.378C71.8547 137.064 71.7998 136.777 71.6899 136.517C71.5801 136.253 71.4253 136.023 71.2256 135.828C71.0308 135.628 70.7986 135.476 70.529 135.371C70.2643 135.261 69.9747 135.206 69.6602 135.206C69.3456 135.206 69.0535 135.261 68.7838 135.371C68.5142 135.476 68.2795 135.628 68.0798 135.828C67.885 136.023 67.7302 136.253 67.6154 136.517C67.5055 136.777 67.4506 137.064 67.4506 137.378C67.4506 137.688 67.5055 137.975 67.6154 138.24C67.7302 138.504 67.885 138.737 68.0798 138.936C68.2795 139.131 68.5142 139.283 68.7838 139.393C69.0535 139.498 69.3456 139.551 69.6602 139.551ZM73.7316 140V134.757H74.1885L76.5853 138.847H76.3456L78.72 134.757H79.1768V140H78.6451V135.588H78.7724L76.5853 139.333H76.3232L74.1211 135.588H74.2634V140H73.7316ZM80.9437 140V134.757H81.4904V139.101L84.846 134.757H85.3478V140H84.801V135.663L81.4455 140H80.9437ZM90.9519 134.757H91.4987V140H90.9519V134.757ZM87.6713 140H87.1171V134.757H87.6713V140ZM91.0044 137.581H87.6114V137.094H91.0044V137.581ZM92.497 140L94.8938 134.757H95.4406L97.8374 140H97.2532L95.0511 135.079H95.2758L93.0738 140H92.497ZM93.4408 138.599L93.6056 138.15H96.654L96.8188 138.599H93.4408ZM102.677 134.757H103.224V140H102.677V134.757ZM99.3964 140H98.8421V134.757H99.3964V140ZM102.729 137.581H99.3365V137.094H102.729V137.581ZM104.994 140V134.757H105.54V139.101L108.896 134.757H109.398V140H108.851V135.663L105.495 140H104.994ZM114.335 140V138.262L114.485 138.412H112.77C112.35 138.412 111.991 138.34 111.691 138.195C111.397 138.05 111.169 137.845 111.01 137.581C110.855 137.311 110.777 136.989 110.777 136.615C110.777 136.215 110.862 135.878 111.032 135.603C111.202 135.324 111.442 135.114 111.751 134.974C112.066 134.829 112.43 134.757 112.845 134.757H114.882V140H114.335ZM110.777 140L112.066 138.157H112.635L111.369 140H110.777ZM114.335 138.105V135.079L114.485 135.236H112.867C112.378 135.236 111.998 135.354 111.729 135.588C111.464 135.818 111.332 136.155 111.332 136.6C111.332 137.029 111.457 137.361 111.706 137.596C111.956 137.825 112.325 137.94 112.815 137.94H114.485L114.335 138.105Z" fill="black"/>
<path fill-rule="evenodd" clip-rule="evenodd" d="M58.5 91C83.629 91 104 70.629 104 45.5C104 20.371 83.629 0 58.5 0C33.371 0 13 20.371 13 45.5C13 70.629 33.371 91 58.5 91ZM61.8732 37.4482C77.4936 36.8419 73.3894 23.6998 73.3894 23.6998C79.7407 9.30421 65.2683 5 65.2683 5C65.2683 5 76.0237 5.71828 79.078 10.3011C82.6068 15.5967 78.7835 23.0553 78.7835 23.0553C83.3131 19.412 82.8195 12.5952 82.8195 12.5952C82.8195 12.5952 86.7273 17.4156 87.1036 19.8026C88.5299 28.8534 79.078 32.1635 79.078 32.1635C81.1828 31.9486 83.1871 31.154 84.8685 29.8678C86.5499 28.5816 87.8427 26.8541 88.6035 24.8769C88.6035 24.8769 90.267 31.6337 86.7955 35.3343C83.324 39.035 72.8276 40.3022 72.8276 40.3022C75.8056 40.8648 84.4448 38.9995 84.4448 38.9995C77.6027 46.794 64.7884 49.1045 64.7884 49.1045C64.7884 49.1045 73.9921 43.7188 71.6059 43.6096C70.417 43.5549 67.9735 44.5928 65.3911 45.901C65.2366 46.004 65.071 46.0892 64.8975 46.155L64.7272 46.243C64.3797 46.4226 64.0248 46.6059 63.6921 46.7913C61.3523 48.43 61.7096 51.1337 61.7096 51.1337C62.268 52.8542 63.054 54.4919 64.0466 56.0033C64.1366 56.1405 64.1779 56.304 64.1639 56.4676C64.0314 57.2978 63.8856 58.1251 63.7396 58.9538L63.7395 58.9542C63.6872 59.2512 63.6348 59.5484 63.583 59.846C63.507 59.6737 63.4286 59.4981 63.3491 59.3202C63.1149 58.7958 62.8717 58.2513 62.6558 57.713C62.4304 57.1505 62.2248 56.5764 62.0016 55.9531L62.0015 55.953C61.9386 55.7773 61.8743 55.5977 61.8077 55.4134C61.9196 57.0302 62.2113 58.5023 62.8986 59.8405C63.3431 60.7035 63.3376 61.3399 62.6968 62.1264C61.6575 63.3977 61.3183 64.9874 60.9829 66.5593L60.9515 66.7065C60.9444 66.7338 60.9368 66.762 60.9284 66.793C60.9109 66.858 60.89 66.9352 60.8642 67.0424C60.6951 63.9863 60.5315 61.0012 60.3706 58.0298H60.177C60.1279 62.0252 59.9493 66.0174 59.6415 70C73.3094 70.0014 86.9083 70.045 96 70.1311L77.6694 70.6886C79.4443 71.9433 81.3729 71.7909 83.2967 71.6389L83.2985 71.6387C83.3884 71.6317 83.4782 71.6246 83.568 71.6176C83.599 71.6152 83.6299 71.6128 83.6608 71.6105V71.7862L79.8871 72.2558C80.0462 72.3398 80.1961 72.4218 80.3405 72.5008C80.6464 72.6681 80.9274 72.8218 81.2189 72.9529C81.7512 73.1881 82.2987 73.117 82.8517 73.0451L82.9403 73.0336C83.3391 72.9824 83.755 72.9648 84.1808 72.9469H84.1809C84.3776 72.9386 84.5764 72.9302 84.7767 72.9184C84.7671 72.9487 84.7598 72.9741 84.7541 72.995C84.7505 73.0082 84.7475 73.0196 84.745 73.0294C84.7363 73.0628 84.7326 73.0768 84.7262 73.0768C84.4615 73.1218 84.1965 73.1637 83.9315 73.2057C83.4666 73.2792 83.0019 73.3528 82.5394 73.4427C81.3702 73.6674 80.4254 73.1546 79.503 72.5352C78.8409 72.0387 78.0711 71.7154 77.2601 71.5932C77.0115 71.5551 76.76 71.5397 76.5087 71.5471C75.5949 71.6029 74.6783 71.5056 73.7948 71.259C73.3861 71.1896 72.9727 71.152 72.5584 71.1467L72.5248 71.2648C72.5862 71.3371 72.658 71.3993 72.7379 71.4492C73.6911 71.8698 74.6612 72.2039 75.7237 72.1578C76.0329 72.1415 76.3421 72.1886 76.6334 72.2964C76.9246 72.4043 77.192 72.5706 77.4199 72.7859C77.2178 72.7226 77.0117 72.6735 76.8031 72.6389L76.7363 72.6326C76.2731 72.5884 75.8051 72.5439 75.3396 72.5439C74.3694 72.5511 73.4105 72.3303 72.536 71.8986C71.2936 71.2835 69.8717 71.1704 68.552 71.5817C68.3766 71.6335 68.1997 71.6808 68.0234 71.7279L68.023 71.7281L68.0227 71.7282L68.0221 71.7283C67.9538 71.7466 67.8855 71.7649 67.8175 71.7833V71.9418C68.0591 72.013 68.3043 72.0707 68.552 72.1146C68.8318 72.1409 69.1133 72.1409 69.3931 72.1146C70.1818 72.0515 70.9691 72.2537 71.636 72.6908C72.8376 73.4899 74.2885 73.7934 75.6985 73.5406C76.5396 73.3793 77.347 73.6645 78.132 73.967C78.4903 74.1031 78.8507 74.2328 79.2361 74.3716L79.2377 74.3722L79.239 74.3726L79.2406 74.3732C79.4902 74.4631 79.7504 74.5567 80.0273 74.6584H79.0517L79.0152 74.7649C79.7062 75.5612 80.6492 75.9132 81.5917 76.2651C81.72 76.313 81.8482 76.3609 81.9758 76.4099L81.9422 76.5337C81.4643 76.4567 80.9949 76.3323 80.5404 76.1621C79.9348 75.8669 79.3575 75.5139 78.8161 75.1078C78.3207 74.6951 77.7094 74.4568 77.0723 74.4279C76.8172 74.4279 76.5615 74.4439 76.3057 74.4599H76.3056H76.3055H76.3054C76.0188 74.4779 75.7321 74.4958 75.4462 74.4913C74.9476 74.4913 74.4491 74.4616 73.9506 74.432C73.737 74.4193 73.5234 74.4066 73.3098 74.3962L72.9397 74.3732C73.0252 74.5013 73.1189 74.6235 73.2201 74.739C73.8813 75.4225 74.7723 75.8194 75.7097 75.8481C76.6009 75.8555 77.4733 76.1125 78.233 76.5914C78.4435 76.7415 78.644 76.9061 78.833 77.084L78.7741 77.1733L78.6597 77.1196L78.5976 77.0906L78.5973 77.0905C78.417 77.0062 78.2359 76.9216 78.0564 76.8305C77.3286 76.4625 76.5263 76.2769 75.7153 76.2889C75.2186 76.3039 74.7241 76.216 74.2612 76.0304C73.7983 75.8448 73.3765 75.5653 73.021 75.2086C72.1458 74.3325 71.0741 73.6914 69.9006 73.3418C69.2958 73.1775 68.6588 73.1865 68.0586 73.3678C67.1418 73.6069 66.2278 73.8431 65.2802 73.6069C64.9968 73.5356 64.7167 73.4577 64.4367 73.3799L64.4364 73.3798L64.4362 73.3797C64.1957 73.3128 63.9552 73.246 63.713 73.1834C63.5276 73.147 63.3404 73.121 63.1522 73.1056C63.1895 73.164 63.2178 73.214 63.2419 73.2565L63.242 73.2566C63.2868 73.3356 63.3169 73.3888 63.3625 73.4225C64.2625 74.1139 65.2409 74.5086 66.3988 74.2867C67.2961 74.1157 68.1162 74.4182 68.9418 74.7227L68.9439 74.7234L68.946 74.7242C68.976 74.7353 69.0061 74.7464 69.0363 74.7575C69.0692 74.7696 69.1022 74.7817 69.1352 74.7938C69.5433 74.9472 69.9736 75.029 70.408 75.0357C70.8265 75.0302 71.2417 75.1133 71.6276 75.2798C72.0135 75.4463 72.3618 75.6927 72.651 76.0037C72.5198 75.9541 72.3894 75.9026 72.2589 75.8511L72.2584 75.8509L72.2581 75.8508C71.9343 75.7229 71.6107 75.5952 71.2772 75.4967C71.0066 75.4358 70.7297 75.4096 70.4529 75.4189C70.4011 75.4189 70.3493 75.4539 70.2975 75.489C70.2736 75.5052 70.2497 75.5214 70.2258 75.5341C70.2412 75.5574 70.2549 75.5841 70.2685 75.6106C70.297 75.666 70.3252 75.721 70.3688 75.7444C70.6115 75.8761 70.8526 76.0118 71.0937 76.1476C71.7438 76.5136 72.394 76.8796 73.0771 77.1675C73.5673 77.3743 74.0821 77.5184 74.5976 77.6627L74.5977 77.6627L74.5978 77.6627L74.5978 77.6628C74.9874 77.7718 75.3773 77.881 75.7574 78.0173C76.5671 78.3333 77.267 78.8899 77.7676 79.6162C77.7916 79.6474 77.8106 79.6824 77.8237 79.7199C77.8237 79.7401 77.8237 79.7689 77.79 79.8466C76.8788 78.9162 75.9088 78.1182 74.507 78.0606C74.8787 78.4975 75.2277 78.9543 75.5527 79.4289C75.7139 79.65 75.8268 79.9041 75.8839 80.174C75.941 80.444 75.9409 80.7233 75.8835 80.9932C75.5779 79.3051 74.4565 78.4552 72.9593 77.9655L74.0556 79.2734C73.0759 78.4432 71.9937 77.7938 70.9156 77.1469L70.9156 77.1469L70.9155 77.1468L70.9153 77.1467C70.3212 76.7902 69.7285 76.4345 69.1548 76.0498C69.0413 76.0057 68.9224 75.9776 68.8016 75.9662C68.8269 76.0553 68.8637 76.1406 68.9109 76.2197C69.0595 76.3777 69.205 76.5388 69.3504 76.7C69.9292 77.3413 70.5075 77.9821 71.2828 78.4149C71.5961 78.5918 71.8665 78.8392 72.0737 79.1385C72.281 79.4377 72.4199 79.7812 72.4799 80.1434C72.5769 80.6034 72.697 81.0634 72.8185 81.529L72.8185 81.5292C72.9253 81.9383 73.0332 82.3518 73.1276 82.7735C72.9858 82.5819 72.8628 82.3764 72.7603 82.1599C72.5273 81.5729 72.327 80.9727 72.1603 80.3623C71.9788 79.6779 71.5535 79.0887 70.9688 78.7116C70.543 78.4035 70.1471 78.05 69.7507 77.696L69.7505 77.6958C69.591 77.5534 69.4314 77.4109 69.2698 77.2712C69.0905 77.1164 68.9195 76.9536 68.7497 76.7921L68.7497 76.792L68.7495 76.7918C68.3857 76.4457 68.0277 76.1051 67.6072 75.8596C67.1813 75.6104 66.6271 75.593 66.0868 75.5761C66.0402 75.5746 65.9938 75.5732 65.9475 75.5716C66.1472 75.7126 66.3534 75.8421 66.5586 75.971L66.5587 75.971C67.091 76.3053 67.6168 76.6354 68.0053 77.1531C67.5948 76.9255 67.1695 76.7272 66.7325 76.5597C66.1631 76.385 65.5794 76.2645 64.9886 76.1996C64.0663 76.0998 63.258 75.7034 62.445 75.3046L62.4449 75.3046L62.3481 75.2571L62.2074 75.1884C62.1483 75.1602 62.0874 75.1361 62.0252 75.1164C62.0126 75.1164 61.9977 75.1235 61.9678 75.1378L61.9426 75.1497C61.9309 75.1552 61.9174 75.1614 61.9018 75.1683C61.9247 75.1965 61.9449 75.2259 61.9643 75.2543C62.0045 75.3128 62.0415 75.3667 62.0925 75.3958C62.4482 75.6041 62.8026 75.8157 63.1571 76.0274C64.1465 76.6183 65.1368 77.2097 66.1605 77.7293C66.5375 77.9155 66.9741 77.9813 67.4122 78.0474C67.6519 78.0835 67.892 78.1198 68.1231 78.1758C68.8573 78.332 69.5139 78.7505 69.9763 79.3569C69.0118 78.6281 67.924 78.389 66.6484 78.4149C66.7356 78.5755 66.8311 78.7313 66.9343 78.8816C67.5596 79.6479 68.4371 79.9619 69.3146 80.2701C69.7104 80.4064 70.1061 80.5254 70.5019 80.6444L70.502 80.6444L70.502 80.6444L70.5021 80.6444C70.667 80.694 70.8319 80.7436 70.9968 80.7944L70.9828 80.9068L70.0576 80.852C70.1664 81.097 70.2745 81.3399 70.3819 81.5813C70.6951 82.2851 71.0025 82.9758 71.3052 83.6666L71.1622 83.7443C70.9979 83.5001 70.8544 83.2418 70.7333 82.9723C70.2875 81.7019 69.5193 80.8088 68.1791 80.5063C67.3829 80.322 66.7661 79.8063 66.2054 79.233C66.0778 79.1058 65.944 78.9851 65.8106 78.8647L65.8103 78.8644L65.7163 78.7794C65.6969 78.7619 65.6777 78.7443 65.6585 78.7268C65.6435 78.7131 65.6287 78.6994 65.6138 78.6857L65.5017 78.7635C65.5305 78.9281 65.5585 79.0909 65.5862 79.2525L65.5862 79.2526L65.5862 79.2526L65.5862 79.2527C65.6555 79.6566 65.7236 80.0533 65.8017 80.4545C65.9924 81.4286 66.4361 82.3314 67.0857 83.0674C67.3107 83.3056 67.4834 83.5906 67.5922 83.9032C67.701 84.2157 67.7434 84.5486 67.7166 84.8794C67.6826 84.7211 67.6308 84.5674 67.5624 84.4213C67.3238 83.9738 67.042 83.552 66.7213 83.1624C65.7624 82.1455 65.0195 81.0335 64.8092 79.5989C64.6942 78.8124 64.184 78.3083 63.5055 77.9713C63.3523 77.8964 63.199 77.8241 63.0458 77.7517L62.9079 77.6865L62.8158 77.6428L62.7653 77.7293L63.6989 79.0256L63.5952 79.1236C63.4404 78.9884 63.2823 78.8563 63.1242 78.724L63.124 78.7239C62.7295 78.3941 62.3341 78.0636 61.9859 77.6832C61.6409 77.3063 61.3394 76.9078 61.0378 76.5091L61.0376 76.5089L61.0374 76.5086C60.9126 76.3437 60.7878 76.1787 60.6598 76.0152L60.5449 76.0584C60.5811 76.1973 60.614 76.3374 60.6469 76.4774C60.7183 76.7817 60.7897 77.0858 60.8953 77.3778C61.1427 78.0496 61.554 78.6448 62.0897 79.1063L62.2111 79.2127L62.2882 79.2802C62.6854 79.6276 63.0826 79.9751 63.455 80.3479C63.7187 80.6258 63.9163 80.9625 64.0325 81.3318C64.1488 81.701 64.1804 82.0929 64.1251 82.4768C64.0045 83.9518 64.1027 84.4933 64.6858 85.7724C64.3905 85.5724 64.1693 85.2761 64.0578 84.9312C63.899 84.5896 63.7768 84.2312 63.6933 83.8625C63.6404 83.4489 63.6141 83.0322 63.6148 82.6151C63.2002 83.0884 62.8674 83.6311 62.6308 84.2197C62.4118 84.7756 62.2337 85.3476 62.0981 85.9309C61.9704 85.2667 62.0428 84.5783 62.3055 83.9575C62.4903 83.5396 62.6449 83.1082 62.7681 82.6669C62.8969 82.2713 62.9055 81.8447 62.7928 81.4439C62.6802 81.0431 62.4515 80.687 62.1373 80.4228C61.9102 80.2154 61.6663 80.0281 61.4224 79.8466C60.4579 79.1121 59.9869 78.0721 59.6785 76.9284C59.6002 76.6727 59.4746 76.435 59.3085 76.2284C59.1555 76.9178 59.1993 77.638 59.4346 78.3025C59.7598 79.403 60.5561 80.1174 61.3579 80.8232C61.7087 81.1066 61.9629 81.4969 62.0841 81.9381L60.629 80.708L60.5084 80.8002C60.5451 80.9557 60.5939 81.1079 60.6542 81.2554C60.8315 81.6028 60.9271 81.988 60.9334 82.3802C60.9398 82.7724 60.8566 83.1606 60.6906 83.5139C60.5153 83.9558 60.3937 84.4197 60.2704 84.8897C60.1847 85.2164 60.0983 85.546 59.9925 85.8732C59.9858 85.4293 60.0101 84.9855 60.0654 84.5452C60.1377 84.1545 60.2486 83.7783 60.3598 83.4014C60.4125 83.2226 60.4653 83.0436 60.514 82.8628C60.7177 82.1182 60.3749 81.5198 60.0342 80.9247L59.9729 80.8175C59.9518 80.7951 59.9265 80.7775 59.8986 80.7656C59.8706 80.7537 59.8406 80.7478 59.8103 80.7483C59.7529 80.8116 59.7124 80.889 59.6926 80.973C59.632 81.3188 59.575 81.6645 59.518 82.0102C59.4326 82.5287 59.3471 83.0472 59.2496 83.5657C59.2496 83.6118 59.2019 83.655 59.0786 83.6925C59.0321 83.2353 59.0377 82.7742 59.0954 82.3184C59.3757 81.0854 59.3169 79.936 58.6384 78.847C58.5541 78.6704 58.4783 78.4897 58.4113 78.3054C58.3761 78.2396 58.3196 78.1886 58.2515 78.1614C58.2178 78.1614 58.1337 78.219 58.1113 78.2709C58.0291 78.4702 57.938 78.668 57.8468 78.8661C57.6269 79.3435 57.4066 79.8219 57.3095 80.3249C57.2256 80.7498 57.2788 81.2012 57.3321 81.6539L57.3322 81.654C57.3555 81.8519 57.3788 82.0501 57.3908 82.2463C57.4034 82.4764 57.4167 82.7064 57.4299 82.9364L57.43 82.9368L57.43 82.9373C57.4433 83.1679 57.4566 83.3985 57.4693 83.6291L57.2786 83.6522L56.7179 80.7339C56.1964 81.094 55.7983 82.2204 55.9525 82.7937C55.9995 82.9684 56.0512 83.1498 56.104 83.3351L56.104 83.3352C56.2244 83.7579 56.3507 84.201 56.4403 84.6316C56.5034 85.0198 56.5034 85.416 56.4403 85.8041C56.3579 85.5006 56.2759 85.1971 56.1941 84.8938C56.0895 84.5062 55.985 84.1191 55.8796 83.7328C55.7605 83.4191 55.6585 83.0989 55.574 82.7735C55.4921 82.2752 55.5719 81.763 55.8011 81.3158C55.8597 81.1974 55.9067 81.076 55.9536 80.9549L55.9536 80.9548L55.9536 80.9547C55.9717 80.9079 55.9898 80.8611 56.0086 80.8146L55.8964 80.708L54.4722 81.8776L54.4021 81.8401C54.5458 81.5681 54.7128 81.3097 54.9011 81.0681C55.1045 80.832 55.3477 80.6186 55.5901 80.4059L55.5901 80.4059L55.5902 80.4059L55.5903 80.4058C55.682 80.3253 55.7735 80.245 55.8628 80.1635C56.9422 79.1812 57.3431 77.9252 57.2983 76.4877C57.2773 76.3745 57.2464 76.2637 57.2057 76.1564C57.1215 76.2791 57.0447 76.407 56.9758 76.5395C56.7346 77.2691 56.4461 77.9813 56.1123 78.6713C55.8056 79.1936 55.3947 79.6433 54.9067 79.9907C53.4825 80.999 53.3676 82.1282 54.0657 83.6666C54.4441 84.5049 54.5703 85.2251 54.3628 86C54.3264 84.7382 53.676 83.7703 52.961 82.8167C52.9033 83.367 52.8096 83.9127 52.6807 84.4501C52.5237 84.9572 52.3218 85.4786 51.8396 85.7926C52.2041 85.139 52.4153 84.4071 52.4564 83.655C52.4868 83.3678 52.4868 83.078 52.4564 82.7908C52.3498 82.2636 52.3921 81.7161 52.5784 81.2128C52.7646 80.7095 53.0871 80.2715 53.5077 79.9504C53.5674 79.9011 53.6273 79.8519 53.6873 79.8027L53.6888 79.8015C54.3927 79.2239 55.1063 78.6386 55.4703 77.7552C55.6276 77.3806 55.7455 76.9899 55.8636 76.5987L55.8637 76.5985L55.8637 76.5983L55.8638 76.5981L55.8639 76.5979C55.9183 76.4177 55.9727 76.2373 56.031 76.0584L55.8488 76.0008C55.4346 76.5914 54.991 77.1597 54.5198 77.7033C54.0086 78.1993 53.4734 78.6685 52.9162 79.1092L52.8293 79.04L53.704 77.7437C52.8993 77.7811 51.9377 78.6079 51.7414 79.4145C51.7085 79.5448 51.6762 79.6753 51.644 79.8058C51.5531 80.1742 51.4622 80.5422 51.3545 80.9039C51.161 81.5633 50.732 82.0524 50.3022 82.5424C50.1405 82.7267 49.9788 82.9111 49.8294 83.1048C49.5499 83.4653 49.2985 83.8488 49.0513 84.2258L49.0513 84.2258L49.0507 84.2267C48.9484 84.3827 48.8469 84.5376 48.7444 84.6892C48.7206 84.5948 48.7206 84.4956 48.7444 84.4012C48.9209 83.9228 49.1564 83.4697 49.4453 83.053C50.2025 82.1435 50.6702 81.0175 50.7854 79.8265C50.8583 79.4556 50.9079 79.0804 50.934 78.703C50.9088 78.7213 50.8835 78.7395 50.8581 78.7576L50.825 78.7813C50.7453 78.8381 50.6652 78.8953 50.5863 78.9565C50.4199 79.085 50.2541 79.2146 50.0882 79.3443L50.088 79.3444L50.0878 79.3445L50.0877 79.3446C49.6586 79.68 49.2291 80.0157 48.7864 80.3335C48.5822 80.4608 48.3554 80.5451 48.1192 80.5813C46.9332 80.8405 46.2912 81.6846 45.8398 82.7476C45.6874 83.1 45.4995 83.4351 45.2791 83.7472C45.3382 83.5595 45.3916 83.3696 45.4449 83.1799C45.6445 82.4701 45.8433 81.763 46.3388 81.1833C46.3961 81.0893 46.4378 80.9861 46.4622 80.878C46.3541 80.8494 46.243 80.8349 46.1314 80.8348C45.9699 80.8514 45.8098 80.8799 45.6491 80.9086C45.5866 80.9197 45.5241 80.9309 45.4613 80.9413L45.4333 80.806C45.6323 80.7446 45.8348 80.6851 46.0387 80.6252C46.4091 80.5163 46.7838 80.4062 47.1491 80.2816C48.0406 79.9936 48.9266 79.6536 49.5546 78.8701C49.6219 78.7865 49.6892 78.703 49.7509 78.6166C49.7703 78.5519 49.7825 78.4852 49.7873 78.4178C48.638 78.3124 47.4917 78.6503 46.5715 79.3656L46.4986 79.2302C46.8051 78.9568 47.1387 78.7173 47.4939 78.5157C48.0034 78.2722 48.5461 78.11 49.1032 78.0346C49.9703 77.9318 50.8054 77.6369 51.5508 77.1704C52.2896 76.738 53.0153 76.2864 53.7416 75.8344L53.742 75.8341L53.7424 75.8339L53.7484 75.8302C53.9101 75.7295 54.0719 75.6288 54.2339 75.5284C54.3675 75.4346 54.494 75.3306 54.6124 75.2172L54.5451 75.0991C54.4398 75.1466 54.3353 75.196 54.2306 75.2455L54.2305 75.2455C53.967 75.3699 53.7025 75.4948 53.4236 75.5917C52.8435 75.8344 52.2416 76.0177 51.6265 76.1391C50.5387 76.2889 49.4957 76.5309 48.5649 77.1531L48.4948 77.0494C48.5874 76.974 48.6789 76.8969 48.7705 76.8197L48.7706 76.8196L48.7712 76.819C48.9874 76.6368 49.2038 76.4544 49.4341 76.2946C49.6547 76.1416 49.9058 76.0002 50.1796 75.8461C50.3129 75.771 50.4516 75.6929 50.5948 75.609C50.4905 75.5755 50.3835 75.5514 50.2751 75.537C49.8098 75.5257 49.3476 75.6185 48.9206 75.809C48.4936 75.9995 48.112 76.2832 47.8023 76.6403C47.0077 77.585 46.0886 78.4112 45.0716 79.0948C44.5909 79.4049 44.4661 79.9285 44.3434 80.4429L44.3433 80.4432C44.3179 80.5498 44.2926 80.656 44.2642 80.7599C44.1102 81.4742 43.7866 82.1383 43.3221 82.6929C43.3351 82.658 43.3487 82.6231 43.3624 82.5881L43.3624 82.588C43.3961 82.5018 43.43 82.4151 43.4539 82.327C43.5136 82.1082 43.5767 81.8898 43.6398 81.6714C43.7902 81.1509 43.9408 80.6298 44.0455 80.1002C44.1149 79.726 44.2668 79.3732 44.4893 79.0686C44.7119 78.764 44.9993 78.5158 45.3295 78.3429C46.0304 77.9385 46.5638 77.3538 47.0982 76.7681C47.2756 76.5737 47.4531 76.3791 47.6369 76.1909C47.6641 76.162 47.6834 76.1262 47.693 76.0872C47.693 76.0671 47.693 76.0383 47.665 75.9605C47.0008 76.1474 46.4606 76.5431 45.9226 76.9372C45.6317 77.1504 45.3413 77.3631 45.0323 77.542C44.9071 77.6145 44.7808 77.6857 44.6544 77.7568L44.6542 77.7569C43.8917 78.1861 43.1258 78.6173 42.5848 79.3684L42.467 79.2532L43.5296 78.0173C42.8312 78.1723 42.1862 78.5176 41.6624 79.017C41.1694 79.522 40.8196 80.1554 40.6503 80.8492C40.5045 80.273 40.74 79.7804 41.0203 79.3396C41.3348 78.8967 41.6737 78.4725 42.0353 78.0692C40.6334 78.1355 39.6494 78.9075 38.755 79.838L38.6793 79.7516C38.7248 79.6922 38.7692 79.6317 38.8137 79.5712C38.9202 79.4265 39.0269 79.2816 39.1475 79.1495C39.8757 78.3899 40.8185 77.8859 41.8418 77.7091C43.4483 77.3548 44.8697 76.577 46.2323 75.6897C46.2602 75.6712 46.2768 75.6368 46.2931 75.6029L46.2931 75.6028C46.2972 75.5943 46.3013 75.5859 46.3055 75.5778C46.3081 75.5727 46.3108 75.5677 46.3136 75.5629C45.9379 75.2748 45.7529 75.3094 43.8576 76.0094C44.1156 75.6292 44.8866 75.0905 45.4333 75.0991C46.296 75.1171 47.0851 74.8663 47.8782 74.6142L47.8783 74.6142L47.8784 74.6142L47.8786 74.6141C48.1009 74.5434 48.3235 74.4727 48.5481 74.4077C49.0988 74.2725 49.6692 74.2432 50.2303 74.3213C50.7496 74.3847 51.2761 74.3362 51.7762 74.179C52.2763 74.0218 52.739 73.7592 53.1348 73.4081C53.1621 73.3853 53.1791 73.3487 53.209 73.2839L53.209 73.2838C53.2282 73.2421 53.2529 73.1888 53.2891 73.12C53.1338 73.1463 52.9843 73.1628 52.8412 73.1786H52.8411L52.841 73.1786C52.5449 73.2112 52.2767 73.2408 52.0442 73.3476C50.8919 73.8834 49.7425 73.7538 48.5902 73.4225C47.6525 73.1541 46.6521 73.2421 45.7725 73.6702C44.9298 74.028 44.1582 74.5416 43.496 75.1855C43.1541 75.5361 42.7484 75.8139 42.3019 76.0032C41.8555 76.1926 41.3771 76.2896 40.8942 76.2889C39.8051 76.2866 38.7369 76.5969 37.8102 77.1848L37.7317 77.0926C37.8903 76.9261 38.0609 76.772 38.242 76.6317C39.0543 76.113 39.991 75.8367 40.9475 75.8337C42.01 75.7934 42.8511 75.2864 43.6109 74.3933H43.2408C43.0304 74.3991 42.82 74.4045 42.6096 74.4099C41.9789 74.4261 41.3482 74.4423 40.7176 74.4682C40.0212 74.4771 39.3257 74.5252 38.6345 74.6123C38.3209 74.7046 38.0328 74.8714 37.7934 75.0991C36.8598 75.8424 35.8561 76.4041 34.6281 76.4444C34.8231 76.3533 35.0209 76.2674 35.2193 76.1812C36.0559 75.8177 36.9035 75.4494 37.6083 74.667H36.6074L36.5906 74.6007C36.7784 74.5356 36.965 74.4715 37.1521 74.4074L37.1536 74.4069C37.3878 74.3266 37.6225 74.246 37.8607 74.1629C38.4406 73.9404 39.031 73.7481 39.6297 73.5867C40.0326 73.5047 40.4463 73.4959 40.8521 73.5608C42.2414 73.7675 43.657 73.4612 44.8473 72.6965C45.5499 72.2563 46.367 72.0481 47.1883 72.1002C47.6363 72.0985 48.0834 72.0609 48.5257 71.9879C48.5853 71.971 48.6421 71.9448 48.6939 71.9101L48.7163 71.7776L47.5472 71.4895C46.165 71.1409 44.8669 71.4405 43.6221 72.034C42.8467 72.3858 42.0082 72.5673 41.1605 72.5669C40.7184 72.5786 40.2762 72.6405 39.8332 72.7024L39.833 72.7025L39.8327 72.7025L39.8324 72.7026L39.832 72.7026C39.6209 72.7321 39.4096 72.7617 39.198 72.7859C39.119 72.7846 39.0403 72.7769 38.9625 72.7628C39.4566 72.3875 40.0501 72.1754 40.6643 72.155C41.6975 72.17 42.7201 71.9403 43.653 71.4837C43.7835 71.4079 43.9091 71.3232 44.0287 71.2302C43.4067 71.1278 42.7704 71.1712 42.167 71.357C41.7228 71.4949 41.2599 71.5581 40.7961 71.5442C39.1503 71.3426 37.7597 71.9475 36.4504 72.8607C35.7647 73.3644 34.914 73.5713 34.0814 73.4369C33.3019 73.313 32.5281 73.169 31.7515 73.0019C32.3212 72.8856 32.908 72.8905 33.4758 73.0163C33.948 73.1298 34.4385 73.1371 34.9137 73.0377C35.3889 72.9382 35.8376 72.7344 36.2289 72.4402C36.3123 72.3718 36.3918 72.2987 36.4672 72.2212L32.8421 71.7833V71.72C32.9114 71.6878 32.9852 71.6674 33.0608 71.6595C33.5122 71.6595 33.9636 71.6595 34.4094 71.7084C35.6332 71.8621 36.8746 71.6709 38.0008 71.1553C38.1517 71.0871 38.2969 71.0231 38.4408 70.9596C38.5643 70.9052 38.6868 70.8511 38.8111 70.7952L38.7943 70.6915L22 70.1311C31.0927 70.045 44.6961 70.0013 58.3683 70C58.2366 68.1336 58.136 66.2306 58.0417 64.3577C57.9678 62.8892 57.9269 61.4194 57.8859 59.9491C57.8678 59.303 57.8498 58.6568 57.829 58.0107H57.6327C57.5588 59.3506 57.4855 60.69 57.4115 62.0421L57.4101 62.0677C57.3206 63.703 57.2301 65.357 57.1364 67.0533C57.0659 66.748 57.0015 66.4734 56.9408 66.2148L56.9405 66.2137C56.8721 65.9222 56.8085 65.6511 56.7464 65.3792C56.4145 63.935 55.762 62.5843 54.8375 61.4273C54.7449 61.3355 54.6862 61.2151 54.6708 61.0856C54.6555 60.9562 54.6844 60.8253 54.7529 60.7144C55.5274 59.0758 56.1164 57.3716 56.1737 55.5991L54.4502 59.9088L54.3412 59.876L54.153 57.7812C54.1534 57.7025 54.1415 57.6241 54.1175 57.5491C53.7003 56.6806 53.9321 55.9569 54.4557 55.1785C55.3992 53.772 55.9883 52.1934 56.4846 50.5766C56.4846 50.5165 56.4846 50.451 56.4982 50.38C56.3667 49.5486 56.0414 48.76 55.5486 48.0782C55.0558 47.3963 54.4095 46.8403 53.6621 46.4554C53.5562 46.3994 53.4558 46.3336 53.3621 46.2587C50.5969 44.814 47.7636 43.5549 46.3973 43.6178C44.0003 43.727 53.2149 49.1127 53.2149 49.1127C53.2149 49.1127 40.3979 46.7913 33.5585 39.0077C33.5585 39.0077 42.1977 40.873 45.1783 40.3104C45.1783 40.3104 34.6793 39.0459 31.2078 35.3425C27.7363 31.6392 29.3971 24.8769 29.3971 24.8769C30.1595 26.8531 31.4527 28.5796 33.1338 29.8655C34.8149 31.1515 36.8183 31.9468 38.9226 32.1635C38.9226 32.1635 29.4707 28.8534 30.9078 19.8026C31.2842 17.4156 35.192 12.5952 35.192 12.5952C35.192 12.5952 34.6984 19.4229 39.228 23.0553C39.228 23.0553 35.4101 15.5967 38.9335 10.3011C41.9768 5.71828 52.724 5 52.724 5C52.724 5 38.2708 9.30421 44.6084 23.6998C41.775 37.0467 54.4257 37.156 54.4257 37.156C54.4257 37.156 56.4355 35.8068 55.9092 33.6929C55.2874 31.1913 53.3703 32.8053 53.3703 32.8053C53.3703 29.1375 56.7546 27.9549 56.7546 27.9549C56.7546 27.9549 54.9056 28.3482 54.2402 27.2066C54.2402 27.2066 55.2656 27.7965 56.6946 25.7864C58.1235 23.7763 60.6733 23.8146 60.6733 23.8146C60.6733 23.8146 61.7641 24.0877 62.5631 23.8938C63.3621 23.6998 65.2902 23.3803 65.7128 24.3662C65.7128 24.3662 62.6395 24.328 61.8541 25.8246L61.7987 25.9299C60.9608 27.5193 58.6941 31.819 63.5858 35.2497C63.5858 35.2497 62.285 35.5665 60.4361 34.2637C60.4224 34.2637 59.9997 37.5219 61.8732 37.4482ZM71.7475 24.5055C71.7475 24.5055 71.0575 33.7667 66.4325 36.2492C66.4325 36.2602 73.0155 35.1677 71.7475 24.5055ZM46.5798 24.7896C46.5798 24.7896 44.6708 34.4658 52.3065 35.9324C52.3067 35.9324 52.306 35.9322 52.3044 35.9316L52.2994 35.9298C52.0829 35.8515 46.9876 34.0103 46.5798 24.7896Z" fill="url(#paint1_linear_25_44)"/>
<defs>
<linearGradient id="paint0_linear_25_44" x1="1.80928" y1="138" x2="116.397" y2="138" gradientUnits="userSpaceOnUse">
<stop/>
<stop offset="0.723958" stop-opacity="0.55"/>
<stop offset="1" stop-opacity="0.990196"/>
</linearGradient>
<linearGradient id="paint1_linear_25_44" x1="59.499" y1="84.6749" x2="59.499" y2="-0.402257" gradientUnits="userSpaceOnUse">
<stop stop-color="#040D20"/>
<stop offset="1" stop-color="#696969"/>
</linearGradient>
</defs>
</svg>
